<?plantuml 1.2026.1?><svg xmlns="http://www.w3.org/2000/svg" xmlns:xlink="http://www.w3.org/1999/xlink" contentStyleType="text/css" data-diagram-type="DESCRIPTION" height="675px" preserveAspectRatio="none" style="width:662px;height:675px;background:#FFFFFF;" version="1.1" viewBox="0 0 662 675" width="662px" zoomAndPan="magnify"><title>ETR Study API &#8212; C4 Level 2 (containers)</title><defs/><g><g class="title" data-source-line="44"><text fill="#000000" font-family="'Arial'" font-size="14" font-weight="bold" lengthAdjust="spacing" textLength="318.1172" x="165.3398" y="26.9951">ETR Study API &#8212; C4 Level 2 (containers)</text></g><!--cluster Proc--><g class="cluster" data-qualified-name="Proc" data-source-line="50" id="ent0003"><rect fill="#F8FAFC" height="220.42" rx="3" ry="3" style="stroke:#2563EB;stroke-width:1;" width="144" x="428.73" y="258.5769"/><text fill="#000000" font-family="'Arial'" font-size="10" font-weight="bold" lengthAdjust="spacing" textLength="65.8447" x="467.8076" y="273.8591">API process</text><text fill="#000000" font-family="'Arial'" font-size="10" font-weight="bold" lengthAdjust="spacing" textLength="108.5205" x="446.4697" y="285.4997">(single deployable)</text></g><!--cluster Obs--><g class="cluster" data-qualified-name="Obs" data-source-line="61" id="ent0011"><rect fill="#F8FAFC" height="182.28" rx="3" ry="3" style="stroke:#2563EB;stroke-width:1;" width="194" x="447.73" y="52.2969"/><text fill="#000000" font-family="'Arial'" font-size="10" font-weight="bold" lengthAdjust="spacing" textLength="75.332" x="507.064" y="67.5791">Observability</text><text fill="#000000" font-family="'Arial'" font-size="10" font-weight="bold" lengthAdjust="spacing" textLength="55.542" x="516.959" y="79.2197">(optional)</text></g><!--cluster LogStack--><g class="cluster" data-qualified-name="LogStack" data-source-line="67" id="ent0015"><rect fill="#F8FAFC" height="166.78" rx="3" ry="3" style="stroke:#2563EB;stroke-width:1;" width="182" x="7.73" y="502.9969"/><text fill="#000000" font-family="'Arial'" font-size="10" font-weight="bold" lengthAdjust="spacing" textLength="69.165" x="64.1475" y="518.2791">Log pipeline</text><text fill="#000000" font-family="'Arial'" font-size="10" font-weight="bold" lengthAdjust="spacing" textLength="55.542" x="70.959" y="529.9197">(optional)</text></g><!--entity Http--><g class="entity" data-qualified-name="Proc.Http" data-source-line="51" id="ent0004"><rect fill="#F1F1F1" height="39.6406" rx="3" ry="3" style="stroke:#181818;stroke-width:0.5;" width="100.1338" x="450.66" y="308.5769"/><text fill="#000000" font-family="'Arial'" font-size="10" lengthAdjust="spacing" textLength="72.1338" x="464.66" y="331.8591">HTTP &#183; FastAPI</text></g><!--entity App--><g class="entity" data-qualified-name="Proc.App" data-source-line="52" id="ent0005"><rect fill="#F1F1F1" height="39.6406" rx="3" ry="3" style="stroke:#181818;stroke-width:0.5;" width="111.0127" x="445.22" y="365.2169"/><text fill="#000000" font-family="'Arial'" font-size="10" lengthAdjust="spacing" textLength="83.0127" x="459.22" y="388.4991">Domain services</text></g><!--entity Persist--><g class="entity" data-qualified-name="Proc.Persist" data-source-line="53" id="ent0006"><rect fill="#F1F1F1" height="39.6406" rx="3" ry="3" style="stroke:#181818;stroke-width:0.5;" width="89.8457" x="455.81" y="423.3569"/><text fill="#000000" font-family="'Arial'" font-size="10" lengthAdjust="spacing" textLength="61.8457" x="469.81" y="446.6391">Repositories</text></g><!--entity Graf--><g class="entity" data-qualified-name="Obs.Graf" data-source-line="62" id="ent0012"><rect fill="#F1F1F1" height="39.6406" rx="3" ry="3" style="stroke:#181818;stroke-width:0.5;" width="68.1025" x="557.68" y="102.2969"/><text fill="#000000" font-family="'Arial'" font-size="10" lengthAdjust="spacing" textLength="40.1025" x="571.68" y="125.5791">Grafana</text></g><!--entity Prom--><g class="entity" data-qualified-name="Obs.Prom" data-source-line="63" id="ent0013"><rect fill="#F1F1F1" height="39.6406" rx="3" ry="3" style="stroke:#181818;stroke-width:0.5;" width="88.1123" x="534.67" y="178.9369"/><text fill="#000000" font-family="'Arial'" font-size="10" lengthAdjust="spacing" textLength="60.1123" x="548.67" y="202.2191">Prometheus</text></g><!--entity Bbx--><g class="entity" data-qualified-name="Obs.Bbx" data-source-line="64" id="ent0014"><rect fill="#F1F1F1" height="39.6406" rx="3" ry="3" style="stroke:#181818;stroke-width:0.5;" width="73.4395" x="464.01" y="102.2969"/><text fill="#000000" font-family="'Arial'" font-size="10" lengthAdjust="spacing" textLength="45.4395" x="478.01" y="125.5791">Blackbox</text></g><!--entity ES--><g class="entity" data-qualified-name="LogStack.ES" data-source-line="68" id="ent0016"><rect fill="#F1F1F1" height="39.6406" rx="3" ry="3" style="stroke:#181818;stroke-width:0.5;" width="94.0693" x="51.7" y="614.1369"/><text fill="#000000" font-family="'Arial'" font-size="10" lengthAdjust="spacing" textLength="66.0693" x="65.7" y="637.4191">Elasticsearch</text></g><!--entity Kib--><g class="entity" data-qualified-name="LogStack.Kib" data-source-line="69" id="ent0017"><rect fill="#F1F1F1" height="39.6406" rx="3" ry="3" style="stroke:#181818;stroke-width:0.5;" width="62.2773" x="111.59" y="552.9969"/><text fill="#000000" font-family="'Arial'" font-size="10" lengthAdjust="spacing" textLength="34.2773" x="125.59" y="576.2791">Kibana</text></g><!--entity FB--><g class="entity" data-qualified-name="LogStack.FB" data-source-line="70" id="ent0018"><rect fill="#F1F1F1" height="39.6406" rx="3" ry="3" style="stroke:#181818;stroke-width:0.5;" width="68.0098" x="23.73" y="552.9969"/><text fill="#000000" font-family="'Arial'" font-size="10" lengthAdjust="spacing" textLength="40.0098" x="37.73" y="576.2791">Filebeat</text></g><!--entity Client--><g class="entity" data-qualified-name="Client" data-source-line="48" id="ent0002"><ellipse cx="402.7288" cy="167.4369" fill="#ECFDF5" rx="8" ry="8" style="stroke:#047857;stroke-width:0.5;"/><path d="M402.7288,175.4369 L402.7288,202.4369 M389.7288,183.4369 L415.7288,183.4369 M402.7288,202.4369 L389.7288,217.4369 M402.7288,202.4369 L415.7288,217.4369" fill="none" style="stroke:#047857;stroke-width:0.5;"/><text fill="#000000" font-family="'Arial'" font-size="10" lengthAdjust="spacing" textLength="50.0977" x="377.68" y="232.2191">Integrator</text></g><!--entity Db--><g class="entity" data-qualified-name="Db" data-source-line="58" id="ent0009"><path d="M523.87,558.4969 C523.87,548.4969 561.7274,548.4969 561.7274,548.4969 C561.7274,548.4969 599.5848,548.4969 599.5848,558.4969 L599.5848,587.1375 C599.5848,597.1375 561.7274,597.1375 561.7274,597.1375 C561.7274,597.1375 523.87,597.1375 523.87,587.1375 L523.87,558.4969" fill="#FFF7ED" style="stroke:#C2410C;stroke-width:0.5;"/><path d="M523.87,558.4969 C523.87,568.4969 561.7274,568.4969 561.7274,568.4969 C561.7274,568.4969 599.5848,568.4969 599.5848,558.4969" fill="none" style="stroke:#C2410C;stroke-width:0.5;"/><text fill="#000000" font-family="'Arial'" font-size="10" lengthAdjust="spacing" textLength="47.7148" x="537.87" y="585.7791">Database</text></g><!--entity Mig--><g class="entity" data-qualified-name="Mig" data-source-line="59" id="ent0010"><rect fill="#F8FAFC" height="39.6406" rx="3" ry="3" style="stroke:#2563EB;stroke-width:0.5;" width="68.1367" x="588.66" y="423.3569"/><text fill="#000000" font-family="'Arial'" font-size="10" lengthAdjust="spacing" textLength="40.1367" x="602.66" y="446.6391">Alembic</text></g><!--entity LogFile--><g class="entity" data-qualified-name="LogFile" data-source-line="73" id="ent0019"><rect fill="#F1F1F1" height="42.6406" rx="3" ry="3" style="stroke:#181818;stroke-width:0.5;" width="101.4619" x="7" y="421.8569"/><polygon fill="#F1F1F1" points="91.4619,426.8569,91.4619,440.8569,103.4619,440.8569,103.4619,432.8569,97.4619,426.8569,91.4619,426.8569" style="stroke:#181818;stroke-width:0.5;"/><line style="stroke:#181818;stroke-width:0.5;" x1="97.4619" x2="97.4619" y1="426.8569" y2="432.8569"/><line style="stroke:#181818;stroke-width:0.5;" x1="103.4619" x2="97.4619" y1="432.8569" y2="432.8569"/><text fill="#000000" font-family="'Arial'" font-size="10" lengthAdjust="spacing" textLength="63.4619" x="21" y="448.1391">NDJSON logs</text></g><g class="entity" data-qualified-name="GMN32" data-source-line="91" id="ent0033"><path d="M128.47,425.5369 L128.47,460.8181 A3,3 0 0 0 131.47,463.8181 L409.9827,463.8181 A3,3 0 0 0 412.9827,460.8181 L412.9827,432.5369 L402.9827,422.5369 L131.47,422.5369 A3,3 0 0 0 128.47,425.5369" fill="#FEFFDD" style="stroke:#181818;stroke-width:0.5;"/><path d="M402.9827,422.5369 L402.9827,431.0369 A1.5,1.5 0 0 0 404.4827,432.5369 L412.9827,432.5369 L402.9827,422.5369" fill="#FEFFDD" style="stroke:#181818;stroke-width:1;"/><text fill="#000000" font-family="'Arial'" font-size="10" lengthAdjust="spacing" textLength="187.3047" x="138.47" y="440.8191">Writes update snapshots and append</text><text fill="#000000" font-family="'Arial'" font-size="10" lengthAdjust="spacing" textLength="255.5127" x="138.47" y="452.4597">review_log / conspectus_events in one transaction.</text></g><!--link Http to App--><!--link Http to App--><g class="link" data-entity-1="ent0004" data-entity-2="ent0005" data-link-type="dependency" data-source-line="76" id="lnk21"><path d="M517.42,348.5269 C517.42,353.8669 517.42,353.6369 517.42,358.9669" fill="none" id="Http-to-App" style="stroke:#64748B;stroke-width:1.1;"/><polygon fill="#64748B" points="517.42,364.9669,521.42,355.9669,517.42,359.9669,513.42,355.9669,517.42,364.9669" style="stroke:#64748B;stroke-width:1.1;"/></g><!--link App to Persist--><!--link App to Persist--><g class="link" data-entity-1="ent0005" data-entity-2="ent0006" data-link-type="dependency" data-source-line="77" id="lnk22"><path d="M515.7,405.0469 C515.7,410.8269 515.7,411.1369 515.7,416.9369" fill="none" id="App-to-Persist" style="stroke:#64748B;stroke-width:1.1;"/><polygon fill="#64748B" points="515.7,422.9369,519.7,413.9369,515.7,417.9369,511.7,413.9369,515.7,422.9369" style="stroke:#64748B;stroke-width:1.1;"/></g><!--link Client to Http--><g class="link" data-entity-1="ent0002" data-entity-2="ent0004" data-link-type="dependency" data-source-line="75" id="lnk20"><path d="M432.27,228.7769 C445.14,228.7769 457.34,228.7769 457.34,228.7769 C457.34,228.7769 457.34,273.1269 457.34,302.2369" fill="none" id="Client-to-Http" style="stroke:#64748B;stroke-width:1.1;"/><polygon fill="#64748B" points="457.34,308.2369,461.34,299.2369,457.34,303.2369,453.34,299.2369,457.34,308.2369" style="stroke:#64748B;stroke-width:1.1;"/><text fill="#000000" font-family="'Arial'" font-size="9" lengthAdjust="spacing" textLength="28.9028" x="462.34" y="249.3309">HTTPS</text><text fill="#000000" font-family="'Arial'" font-size="9" lengthAdjust="spacing" textLength="2.8608" x="491.2428" y="249.3309">&#160;</text><text fill="#000000" font-family="'Arial'" font-size="9" lengthAdjust="spacing" textLength="3.0322" x="494.1037" y="249.3309">/</text><text fill="#000000" font-family="'Arial'" font-size="9" lengthAdjust="spacing" textLength="2.8608" x="497.1359" y="249.3309">&#160;</text><text fill="#000000" font-family="'Arial'" font-size="9" lengthAdjust="spacing" textLength="22.1836" x="499.9967" y="249.3309">JSON</text></g><!--link Persist to Db--><g class="link" data-entity-1="ent0006" data-entity-2="ent0009" data-link-type="dependency" data-source-line="78" id="lnk23"><path d="M534.76,463.4269 C534.76,486.3669 534.76,517.7169 534.76,542.2769" fill="none" id="Persist-to-Db" style="stroke:#64748B;stroke-width:1.1;"/><polygon fill="#64748B" points="534.76,548.2769,538.76,539.2769,534.76,543.2769,530.76,539.2769,534.76,548.2769" style="stroke:#64748B;stroke-width:1.1;"/><text fill="#000000" font-family="'Arial'" font-size="9" lengthAdjust="spacing" textLength="17.811" x="512.76" y="499.2109">SQL</text></g><!--link Mig to Db--><g class="link" data-entity-1="ent0010" data-entity-2="ent0009" data-link-type="dependency" data-source-line="79" id="lnk24"><path d="M594.12,463.4269 C594.12,486.3669 594.12,517.7169 594.12,542.2769" fill="none" id="Mig-to-Db" style="stroke:#64748B;stroke-width:1.1;stroke-dasharray:7,7;"/><polygon fill="#64748B" points="594.12,548.2769,598.12,539.2769,594.12,543.2769,590.12,539.2769,594.12,548.2769" style="stroke:#64748B;stroke-width:1.1;"/><text fill="#000000" font-family="'Arial'" font-size="9" lengthAdjust="spacing" textLength="48.1245" x="541.12" y="499.2109">migrations</text></g><!--link App to LogFile--><g class="link" data-entity-1="ent0005" data-entity-2="ent0019" data-link-type="dependency" data-source-line="81" id="lnk25"><path d="M445.07,385.7769 C326.09,385.7769 57.73,385.7769 57.73,385.7769 C57.73,385.7769 57.73,399.2169 57.73,415.4769" fill="none" id="App-to-LogFile" style="stroke:#64748B;stroke-width:1.1;stroke-dasharray:7,7;"/><polygon fill="#64748B" points="57.73,421.4769,61.73,412.4769,57.73,416.4769,53.73,412.4769,57.73,421.4769" style="stroke:#64748B;stroke-width:1.1;"/></g><!--link LogFile to FB--><g class="link" data-entity-1="ent0019" data-entity-2="ent0018" data-link-type="dependency" data-source-line="82" id="lnk26"><path d="M57.73,464.8769 C57.73,489.3769 57.73,522.9369 57.73,546.7569" fill="none" id="LogFile-to-FB" style="stroke:#64748B;stroke-width:1.1;stroke-dasharray:7,7;"/><polygon fill="#64748B" points="57.73,552.7569,61.73,543.7569,57.73,547.7569,53.73,543.7569,57.73,552.7569" style="stroke:#64748B;stroke-width:1.1;"/></g><!--link FB to ES--><g class="link" data-entity-1="ent0018" data-entity-2="ent0016" data-link-type="dependency" data-source-line="83" id="lnk27"><path d="M71.72,592.8369 C71.72,599.5269 71.72,600.9769 71.72,607.6869" fill="none" id="FB-to-ES" style="stroke:#64748B;stroke-width:1.1;"/><polygon fill="#64748B" points="71.72,613.6869,75.72,604.6869,71.72,608.6869,67.72,604.6869,71.72,613.6869" style="stroke:#64748B;stroke-width:1.1;"/></g><!--link Kib to ES--><g class="link" data-entity-1="ent0017" data-entity-2="ent0016" data-link-type="dependency" data-source-line="84" id="lnk28"><path d="M128.68,592.8369 C128.68,599.5269 128.68,600.9769 128.68,607.6869" fill="none" id="Kib-to-ES" style="stroke:#64748B;stroke-width:1.1;"/><polygon fill="#64748B" points="128.68,613.6869,132.68,604.6869,128.68,608.6869,124.68,604.6869,128.68,613.6869" style="stroke:#64748B;stroke-width:1.1;"/></g><!--link Graf to Prom--><g class="link" data-entity-1="ent0012" data-entity-2="ent0013" data-link-type="dependency" data-source-line="86" id="lnk29"><path d="M590.23,142.2469 C590.23,153.4269 590.23,161.2869 590.23,172.4869" fill="none" id="Graf-to-Prom" style="stroke:#64748B;stroke-width:1.1;"/><polygon fill="#64748B" points="590.23,178.4869,594.23,169.4869,590.23,173.4869,586.23,169.4869,590.23,178.4869" style="stroke:#64748B;stroke-width:1.1;"/></g><!--link Prom to Http--><g class="link" data-entity-1="ent0013" data-entity-2="ent0004" data-link-type="dependency" data-source-line="87" id="lnk30"><path d="M542.74,219.0069 C542.74,243.3669 542.74,277.9869 542.74,302.2769" fill="none" id="Prom-to-Http" style="stroke:#64748B;stroke-width:1.1;stroke-dasharray:7,7;"/><polygon fill="#64748B" points="542.74,308.2769,546.74,299.2769,542.74,303.2769,538.74,299.2769,542.74,308.2769" style="stroke:#64748B;stroke-width:1.1;"/><text fill="#000000" font-family="'Arial'" font-size="9" lengthAdjust="spacing" textLength="62.6396" x="547.74" y="257.0009">:8000/metrics</text></g><!--link Bbx to Http--><g class="link" data-entity-1="ent0014" data-entity-2="ent0004" data-link-type="dependency" data-source-line="88" id="lnk31"><path d="M499.34,142.2669 C499.34,181.7069 499.34,262.6569 499.34,302.1569" fill="none" id="Bbx-to-Http" style="stroke:#64748B;stroke-width:1.1;stroke-dasharray:7,7;"/><polygon fill="#64748B" points="499.34,308.1569,503.34,299.1569,499.34,303.1569,495.34,299.1569,499.34,308.1569" style="stroke:#64748B;stroke-width:1.1;"/><text fill="#000000" font-family="'Arial'" font-size="9" lengthAdjust="spacing" textLength="54.7603" x="440.34" y="218.5709">:8000/ready</text></g><!--link App to GMN32--><g class="link" data-entity-1="ent0005" data-entity-2="ent0033" data-link-type="association" data-source-line="91" id="lnk34"><path d="M450.52,405.2469 C450.52,422.2469 450.52,443.7769 450.52,443.7769 C450.52,443.7769 435.08,443.7769 413.26,443.7769" fill="none" id="App-GMN32" style="stroke:#64748B;stroke-width:1.1;stroke-dasharray:7,7;"/></g><?plantuml-src XLRRSXj547tVh-WoHSKsM98TtsAgA2pBYaCSnrW67Y0Lp-wsj8D7EyFCh2MHIXKVmR_mpgVm9PoPNOdr1V9YhRjx-dAwJyyyer4XBETqgKJfltzpJkvMbhGkoryuyv2BiMTBtpWlhA-cYj85kSnAurtNyeHBjiBp-rndhcCMDDQMNbjzAyd9Sg9uQomLa-KoPxkHFAFhXT4JAqonEA9ZAuNgdh6wOoypGGYHtT9K-AnWHtvX85HqBijgJexj7T8Owz8xMeyHDkZlt_yWSQTbxcZ44yrRkbGBogqS-quIoZ32YYcvGkHwXdHeB9JZbaR9aX67ILjVw9OYqrEZIoxzo2zY_faNePoMYK6oOiB_RP3pM5JA3v7oXPWohSLwrvws6CdVcBPxGAWlq8YCZyZBIU69IrrD2lAwhfIAQi8q4SPzIKfhnoq39QVIan8fgwwmLiz80pCbJ8T6Ha6LIm7ifuxa661BfIY3LSvv6wrIv-pOq4wl9RIYl0t2xOEMy5BaUK1rjrsIaVHY7sMS24CyDm2MPZBt1SNUX8xbcZOtI-qtDwb2_ZSt3crcdEhLbZSt-4KxAW_TLCnlRe158NoOhOmTV3FAMYoh2PNxWia5Z8sSise2YZAdoaJdZieQa3eZJ52gzCn1JPxdVgC3fsVNcFrfvVmgE-SjOnPfzCDB5rD2Fj7r4JhL-nnvXd923RBqLfPEPfXwzF6B40VXkogqCDNpuFzgHHP2QQP25ZMriWAJ4t3qXKHceUPRfa0ea0VLKnTn7rFjvWPfrz01f7_XGwXHZ0kuumY54DhYi4CFI2ZVrGPW0ZhWiWvm7F7K-0NSMEH1eP2SWy5a2WQuZVPqM5sLUUsEzcDLG4c0HZa8eTXx36x95MJA0GTmY59LCOaiWozQ5mQJc0alaOeHljZuYcR2eec0C2uFWpobymmAjECUX_QTQ0MBp_Pt3tOF-m-LruNCRijGpNPd-w5oHR4Nz-OtChYlBPPJu_kaFzWxtNx223-JM7nZEDmUxWtRtgwMA-2Ulvsz_UUd_IVD7day71uFJrgc0-55Ajo317TsjtjFMZtoDnmUd0vQbXTWzZrVZu2C5f_CwpZpsjvprDizEDmxU6JoqDFfoN0mtBi7hiNcb-2A_t_KseQVp6_4lrPXVjvW6D2wOx2Xf31-RDkJp0uhtYsj-eoD46U5lAtQUnpiQcpY11tk1OOr8LOhzGXVkB-2A6K_OownZiSSBfZ00ra6mfXcOUfnf27ZCWfSx8PoJDWHrzfiAMmtHQlme2YsKRqz6sPYOox3V_Y8DK1ErtTkTtM72pKJ2omOi6qHjkEqypIOonNURafVpvVYvucN7WlczFgAHhxA5tHy-IfklPDTEe-9xj1w1dA55M3THf9uRS96JhNt6jU133SZo9ua8em4hRr26u0OljT8E3fH4er9akOsnIM90CPgB7htSxbUFo9mKHgb5o9Ll15FNSA0FYH4FvrTNr_INt_IK3YFe--2zinx4tG3FKLQyUaWuI_gZarKNR7HJY89sSWlwxK3NJXDMpyLCi-vV8U7GxdLdCBVXuhbiOz9aZSyfBKb8sEgWpHPFGvGdU9fAhEeUICdhRhVfY5FaKfSr0jKZha0R4BL1KDRr_lIYh4eHSmvV0SPq9WocbmrfU3V8Euh-CRb4uNzT1wIN8KxrnDSbYOEwADeK8xYMoo6F5N0LcQEXSsAwEnq5EIlPRhC19z1CiHRBsNXespO3m73g8tHUbgx67mxUdk1Hyl4BOC4-oIfHu2sjhwkiJ-YqDGHhhrm8Adx0MLeGcm1lfUuDxzHDaXnTFJTUG9WgTDf15CPfWt5kIIU3efbwEOtof3ki1_ze3hKi_nC0ifrp81h-1FjcrIF3dkzNXVmMo2K0EN7IiiYNoG9MCnBMc01r2FrevMUmpia3-y2L-9TL-ZmCi3R1UJ5inb6bkyapzu3EM02iZc3WQhSU_0ll8Onuk6QnPLREX79rabma4B0v1y0?></g></svg>
