<?plantuml 1.2026.1?><svg xmlns="http://www.w3.org/2000/svg" xmlns:xlink="http://www.w3.org/1999/xlink" contentStyleType="text/css" data-diagram-type="DESCRIPTION" height="504px" preserveAspectRatio="none" style="width:700px;height:504px;background:#FFFFFF;" version="1.1" viewBox="0 0 700 504" width="700px" zoomAndPan="magnify"><title>ETR Study API &#8212; C4 Level 1 (system context)</title><defs/><g><g class="title" data-source-line="44"><text fill="#000000" font-family="'Arial'" font-size="14" font-weight="bold" lengthAdjust="spacing" textLength="355.8311" x="165.1395" y="26.9951">ETR Study API &#8212; C4 Level 1 (system context)</text></g><!--cluster Obs--><g class="cluster" data-qualified-name="Obs" data-source-line="60" id="ent0009"><rect fill="#F8FAFC" height="188.11" rx="3" ry="3" style="stroke:#2563EB;stroke-width:1;" width="194" x="437.11" y="52.2969"/><text fill="#000000" font-family="'Arial'" font-size="10" font-weight="bold" lengthAdjust="spacing" textLength="75.332" x="496.444" y="67.5791">Observability</text><text fill="#000000" font-family="'Arial'" font-size="10" font-weight="bold" lengthAdjust="spacing" textLength="117.6953" x="475.2623" y="79.2197">(optional &#183; Compose)</text></g><!--cluster LogSearch--><g class="cluster" data-qualified-name="LogSearch" data-source-line="66" id="ent0013"><rect fill="#F8FAFC" height="105.64" rx="3" ry="3" style="stroke:#2563EB;stroke-width:1;" width="208" x="486.11" y="334.5069"/><text fill="#000000" font-family="'Arial'" font-size="10" font-weight="bold" lengthAdjust="spacing" textLength="61.3428" x="559.4386" y="349.7891">Log search</text><text fill="#000000" font-family="'Arial'" font-size="10" font-weight="bold" lengthAdjust="spacing" textLength="55.542" x="562.339" y="361.4297">(optional)</text></g><!--entity Graf--><g class="entity" data-qualified-name="Obs.Graf" data-source-line="61" id="ent0010"><rect fill="#F1F1F1" height="39.6406" rx="3" ry="3" style="stroke:#181818;stroke-width:0.5;" width="68.1025" x="453.06" y="102.2969"/><text fill="#000000" font-family="'Arial'" font-size="10" lengthAdjust="spacing" textLength="40.1025" x="467.06" y="125.5791">Grafana</text></g><!--entity Prom--><g class="entity" data-qualified-name="Obs.Prom" data-source-line="62" id="ent0011"><rect fill="#F1F1F1" height="39.6406" rx="3" ry="3" style="stroke:#181818;stroke-width:0.5;" width="88.1123" x="453.05" y="184.7669"/><text fill="#000000" font-family="'Arial'" font-size="10" lengthAdjust="spacing" textLength="60.1123" x="467.05" y="208.0491">Prometheus</text></g><!--entity Bbx--><g class="entity" data-qualified-name="Obs.Bbx" data-source-line="63" id="ent0012"><rect fill="#F1F1F1" height="39.6406" rx="3" ry="3" style="stroke:#181818;stroke-width:0.5;" width="73.4395" x="541.39" y="102.2969"/><text fill="#000000" font-family="'Arial'" font-size="10" lengthAdjust="spacing" textLength="45.4395" x="555.39" y="125.5791">Blackbox</text></g><!--entity ES--><g class="entity" data-qualified-name="LogSearch.ES" data-source-line="67" id="ent0014"><rect fill="#F1F1F1" height="39.6406" rx="3" ry="3" style="stroke:#181818;stroke-width:0.5;" width="94.0693" x="584.07" y="384.5069"/><text fill="#000000" font-family="'Arial'" font-size="10" lengthAdjust="spacing" textLength="66.0693" x="598.07" y="407.7891">Elasticsearch</text></g><!--entity Kib--><g class="entity" data-qualified-name="LogSearch.Kib" data-source-line="68" id="ent0015"><rect fill="#F1F1F1" height="39.6406" rx="3" ry="3" style="stroke:#181818;stroke-width:0.5;" width="62.2773" x="501.97" y="384.5069"/><text fill="#000000" font-family="'Arial'" font-size="10" lengthAdjust="spacing" textLength="34.2773" x="515.97" y="407.7891">Kibana</text></g><!--entity Integrator--><g class="entity" data-qualified-name="Integrator" data-source-line="48" id="ent0002"><ellipse cx="38.1069" cy="167.4469" fill="#ECFDF5" rx="8" ry="8" style="stroke:#047857;stroke-width:0.5;"/><path d="M38.1069,175.4469 L38.1069,202.4469 M25.1069,183.4469 L51.1069,183.4469 M38.1069,202.4469 L25.1069,217.4469 M38.1069,202.4469 L51.1069,217.4469" fill="none" style="stroke:#047857;stroke-width:0.5;"/><text fill="#000000" font-family="'Arial'" font-size="10" lengthAdjust="spacing" textLength="50.0977" x="6" y="232.2291">Integrator</text><text fill="#000000" font-family="'Arial'" font-size="10" lengthAdjust="spacing" textLength="64.2139" x="6" y="243.8697">(HTTP client)</text></g><g class="entity" data-qualified-name="GMN3" data-source-line="50" id="ent0004"><path d="M94.19,186.9469 L94.19,201.4269 L74.64,205.4269 L94.19,209.4269 L94.19,222.2281 A3,3 0 0 0 97.19,225.2281 L301.0201,225.2281 A3,3 0 0 0 304.0201,222.2281 L304.0201,193.9469 L294.0201,183.9469 L97.19,183.9469 A3,3 0 0 0 94.19,186.9469" fill="#FEFFDD" style="stroke:#181818;stroke-width:0.5;"/><path d="M294.0201,183.9469 L294.0201,192.4469 A1.5,1.5 0 0 0 295.5201,193.9469 L304.0201,193.9469 L294.0201,183.9469" fill="#FEFFDD" style="stroke:#181818;stroke-width:0.5;"/><text fill="#000000" font-family="'Arial'" font-size="10" font-weight="bold" lengthAdjust="spacing" textLength="75.2734" x="104.19" y="202.2291">Out of scope:</text><text fill="#000000" font-family="'Arial'" font-size="10" lengthAdjust="spacing" textLength="92.085" x="182.6421" y="202.2291">web, mobile, bots.</text><text fill="#000000" font-family="'Arial'" font-size="10" lengthAdjust="spacing" textLength="180.8301" x="104.19" y="213.8697">Any OpenAPI-compliant HTTP client.</text></g><!--entity Api--><g class="entity" data-qualified-name="Api" data-source-line="54" id="ent0006"><rect fill="#F8FAFC" height="51.2813" rx="3" ry="3" style="stroke:#2563EB;stroke-width:0.5;" width="160.7051" x="353.75" y="267.2269"/><text fill="#000000" font-family="'Arial'" font-size="10" lengthAdjust="spacing" textLength="70.4248" x="367.75" y="290.5091">ETR Study API</text><text fill="#000000" font-family="'Arial'" font-size="10" lengthAdjust="spacing" textLength="132.7051" x="367.75" y="302.1497">FastAPI &#183; OpenAPI &#183; /api/v1</text></g><!--entity Db--><g class="entity" data-qualified-name="Db" data-source-line="56" id="ent0007"><path d="M284.27,384.1869 C284.27,374.1869 377.103,374.1869 377.103,374.1869 C377.103,374.1869 469.936,374.1869 469.936,384.1869 L469.936,424.4681 C469.936,434.4681 377.103,434.4681 377.103,434.4681 C377.103,434.4681 284.27,434.4681 284.27,424.4681 L284.27,384.1869" fill="#FFF7ED" style="stroke:#C2410C;stroke-width:0.5;"/><path d="M284.27,384.1869 C284.27,394.1869 377.103,394.1869 377.103,394.1869 C377.103,394.1869 469.936,394.1869 469.936,384.1869" fill="none" style="stroke:#C2410C;stroke-width:0.5;"/><text fill="#000000" font-family="'Arial'" font-size="10" lengthAdjust="spacing" textLength="78.7598" x="298.27" y="411.4691">Relational store</text><text fill="#000000" font-family="'Arial'" font-size="10" lengthAdjust="spacing" textLength="157.666" x="298.27" y="423.1097">(SQLite dev &#183; Postgres-capable)</text></g><!--entity Img--><g class="entity" data-qualified-name="Img" data-source-line="58" id="ent0008"><rect fill="#F8FAFC" height="51.2813" rx="3" ry="3" style="stroke:#2563EB;stroke-width:0.5;" width="97.0283" x="323.59" y="178.9469"/><text fill="#000000" font-family="'Arial'" font-size="10" lengthAdjust="spacing" textLength="52.1289" x="337.59" y="202.2291">OCI image</text><text fill="#000000" font-family="'Arial'" font-size="10" lengthAdjust="spacing" textLength="69.0283" x="337.59" y="213.8697">study-app-api</text></g><g class="entity" data-qualified-name="GMN23" data-source-line="83" id="ent0024"><path d="M259.98,459.1469 L259.98,494.4281 A3,3 0 0 0 262.98,497.4281 L491.229,497.4281 A3,3 0 0 0 494.229,494.4281 L494.229,466.1469 L484.229,456.1469 L381.11,456.1469 L377.11,434.6369 L373.11,456.1469 L262.98,456.1469 A3,3 0 0 0 259.98,459.1469" fill="#FEFFDD" style="stroke:#181818;stroke-width:0.5;"/><path d="M484.229,456.1469 L484.229,464.6469 A1.5,1.5 0 0 0 485.729,466.1469 L494.229,466.1469 L484.229,456.1469" fill="#FEFFDD" style="stroke:#181818;stroke-width:0.5;"/><text fill="#000000" font-family="'Arial'" font-size="10" lengthAdjust="spacing" textLength="144.1895" x="269.98" y="474.4291">Single service owns schema,</text><text fill="#000000" font-family="'Arial'" font-size="10" lengthAdjust="spacing" textLength="205.249" x="269.98" y="486.0697">Alembic migrations, transactional writes.</text></g><!--link Integrator to Api--><g class="link" data-entity-1="ent0002" data-entity-2="ent0006" data-link-type="dependency" data-source-line="71" id="lnk16"><path d="M74.59,240.4269 C161.98,240.4269 376.04,240.4269 376.04,240.4269 C376.04,240.4269 376.04,247.7469 376.04,260.9569" fill="none" id="Integrator-to-Api" style="stroke:#64748B;stroke-width:1.1;"/><polygon fill="#64748B" points="376.04,266.9569,380.04,257.9569,376.04,261.9569,372.04,257.9569,376.04,266.9569" style="stroke:#64748B;stroke-width:1.1;"/><text fill="#000000" font-family="'Arial'" font-size="9" lengthAdjust="spacing" textLength="28.9028" x="174.58" y="253.7809">HTTPS</text><text fill="#000000" font-family="'Arial'" font-size="9" lengthAdjust="spacing" textLength="2.8608" x="203.4828" y="253.7809">&#160;</text><text fill="#000000" font-family="'Arial'" font-size="9" lengthAdjust="spacing" textLength="2.8608" x="206.3437" y="253.7809">&#183;</text><text fill="#000000" font-family="'Arial'" font-size="9" lengthAdjust="spacing" textLength="2.8608" x="209.2045" y="253.7809">&#160;</text><text fill="#000000" font-family="'Arial'" font-size="9" lengthAdjust="spacing" textLength="22.1836" x="212.0654" y="253.7809">JSON</text></g><!--link Api to Db--><g class="link" data-entity-1="ent0006" data-entity-2="ent0007" data-link-type="dependency" data-source-line="72" id="lnk17"><path d="M411.85,318.9969 C411.85,335.4669 411.85,350.7969 411.85,368.0169" fill="none" id="Api-to-Db" style="stroke:#64748B;stroke-width:1.1;"/><polygon fill="#64748B" points="411.85,374.0169,415.85,365.0169,411.85,369.0169,407.85,365.0169,411.85,374.0169" style="stroke:#64748B;stroke-width:1.1;"/><text fill="#000000" font-family="'Arial'" font-size="9" lengthAdjust="spacing" textLength="17.811" x="325.85" y="339.8609">SQL</text><text fill="#000000" font-family="'Arial'" font-size="9" lengthAdjust="spacing" textLength="2.8608" x="343.661" y="339.8609">&#160;</text><text fill="#000000" font-family="'Arial'" font-size="9" lengthAdjust="spacing" textLength="2.8608" x="346.5219" y="339.8609">&#183;</text><text fill="#000000" font-family="'Arial'" font-size="9" lengthAdjust="spacing" textLength="2.8608" x="349.3827" y="339.8609">&#160;</text><text fill="#000000" font-family="'Arial'" font-size="9" lengthAdjust="spacing" textLength="55.5293" x="352.2436" y="339.8609">transactions</text></g><!--link Img to Api--><g class="link" data-entity-1="ent0008" data-entity-2="ent0006" data-link-type="dependency" data-source-line="74" id="lnk18"><path d="M398.33,230.5969 C398.33,241.9869 398.33,249.3269 398.33,260.7369" fill="none" id="Img-to-Api" style="stroke:#64748B;stroke-width:1.1;stroke-dasharray:7,7;"/><polygon fill="#64748B" points="398.33,266.7369,402.33,257.7369,398.33,261.7369,394.33,257.7369,398.33,266.7369" style="stroke:#64748B;stroke-width:1.1;"/><text fill="#000000" font-family="'Arial'" font-size="9" lengthAdjust="spacing" textLength="42.8423" x="403.33" y="242.0209">packages</text></g><!--link Prom to Api--><g class="link" data-entity-1="ent0011" data-entity-2="ent0006" data-link-type="dependency" data-source-line="76" id="lnk19"><path d="M483.76,224.6169 C483.76,237.1269 483.76,247.3769 483.76,260.8769" fill="none" id="Prom-to-Api" style="stroke:#64748B;stroke-width:1.1;stroke-dasharray:7,7;"/><polygon fill="#64748B" points="483.76,266.8769,487.76,257.8769,483.76,261.8769,479.76,257.8769,483.76,266.8769" style="stroke:#64748B;stroke-width:1.1;"/><text fill="#000000" font-family="'Arial'" font-size="9" lengthAdjust="spacing" textLength="30.1025" x="488.76" y="259.1009">scrape</text><text fill="#000000" font-family="'Arial'" font-size="9" lengthAdjust="spacing" textLength="2.8608" x="518.8625" y="259.1009">&#160;</text><text fill="#000000" font-family="'Arial'" font-size="9" lengthAdjust="spacing" textLength="36.7031" x="521.7234" y="259.1009">/metrics</text></g><!--link Bbx to Api--><g class="link" data-entity-1="ent0012" data-entity-2="ent0006" data-link-type="dependency" data-source-line="77" id="lnk20"><path d="M552.82,142.3469 C552.82,185.8569 552.82,284.4269 552.82,284.4269 C552.82,284.4269 541.95,284.4269 520.93,284.4269" fill="none" id="Bbx-to-Api" style="stroke:#64748B;stroke-width:1.1;stroke-dasharray:7,7;"/><polygon fill="#64748B" points="514.93,284.4269,523.93,288.4269,519.93,284.4269,523.93,280.4269,514.93,284.4269" style="stroke:#64748B;stroke-width:1.1;"/><text fill="#000000" font-family="'Arial'" font-size="9" lengthAdjust="spacing" textLength="26.1694" x="557.82" y="225.6809">probe</text><text fill="#000000" font-family="'Arial'" font-size="9" lengthAdjust="spacing" textLength="2.8608" x="583.9894" y="225.6809">&#160;</text><text fill="#000000" font-family="'Arial'" font-size="9" lengthAdjust="spacing" textLength="28.8237" x="586.8503" y="225.6809">/ready</text></g><!--link Graf to Prom--><g class="link" data-entity-1="ent0010" data-entity-2="ent0011" data-link-type="dependency" data-source-line="78" id="lnk21"><path d="M487.11,142.0869 C487.11,154.9569 487.11,165.6269 487.11,178.5169" fill="none" id="Graf-to-Prom" style="stroke:#64748B;stroke-width:1.1;"/><polygon fill="#64748B" points="487.11,184.5169,491.11,175.5169,487.11,179.5169,483.11,175.5169,487.11,184.5169" style="stroke:#64748B;stroke-width:1.1;"/></g><!--link Api to ES--><g class="link" data-entity-1="ent0006" data-entity-2="ent0014" data-link-type="dependency" data-source-line="80" id="lnk22"><path d="M514.84,301.4269 C556.81,301.4269 599.45,301.4269 599.45,301.4269 C599.45,301.4269 599.45,348.5869 599.45,378.4869" fill="none" id="Api-to-ES" style="stroke:#64748B;stroke-width:1.1;stroke-dasharray:7,7;"/><polygon fill="#64748B" points="599.45,384.4869,603.45,375.4869,599.45,379.4869,595.45,375.4869,599.45,384.4869" style="stroke:#64748B;stroke-width:1.1;"/><text fill="#000000" font-family="'Arial'" font-size="9" lengthAdjust="spacing" textLength="35.8462" x="536.67" y="284.7809">NDJSON</text><text fill="#000000" font-family="'Arial'" font-size="9" lengthAdjust="spacing" textLength="2.8608" x="572.5162" y="284.7809">&#160;</text><text fill="#000000" font-family="'Arial'" font-size="9" lengthAdjust="spacing" textLength="18.4087" x="575.377" y="284.7809">logs</text><text fill="#000000" font-family="'Arial'" font-size="9" lengthAdjust="spacing" textLength="43.4971" x="543.4793" y="295.2574">(optional)</text></g><?plantuml-src XLRRRXit47tVhnYuA6AxbcGbliK5YagsbAHnRDVhzgKfAkxkI6BD9RSarv8Q1EX7z5_wta_fb_IGafprfSr3O6KuEtFEcGlvZDAfi5pGfHBQ__3kZDoDrBGfzQ-SUzZ5sBEbRvqNrjUbecn1BhUoygvZUSAQhV3yIs5orwuMD3QMtbfp8yb9FL7S6al5P5aNRBUIPtIzgCp4YcgwEAQUbK9rNhEwPIzpGKYHtr0fV3vbHtvHmQZeJEfwJexjBM2CZVQEDcE6BVhdZpz9t1fPE4fvOhXbj5fGOUNOjvD0en9MbEIceZ0pmA6nK8uR9qfgHXucO_tKD0voKrP6i_QfNqJykHU1JiEb0bWnuVzsA7WiQkM7W7mkIgQDo7VZQOzK_ixKtOL2VO52v7nCNawcdbYRUZ8bRvPCQLfFc2QYSZkaZ77SS52ob9wKo5XrXBLcHWQQAL6rAQqKZWefe7tfI8uXjbIASdWLN3JLqgPWnnKztsqOhT0tmTWzR1WlHL44LVUQb2f9Bmz0uqHKnFCAmj9C5dvAiJQXOeMXxMrj_FOsrS0_6ZcKcV7Lxj9pDC9VbAFsE2l5V3I25bFXGs_bx12RGMknPXEO-ocJ2nfNSivgbL3eWkeg1dUabu8i4Q63CcLc3iVaUUwtsWZw-XgzNzREtw5ptZ9waT8VNxa82NXYw6DKQlTBu0nq0WUflPNQoHnTZpf-5V8WVKU54cPc7k9VtGqBWLfL0yLojF8fEYVewASIo0Bd6wOmK1WUiASEyZuUjT48i9VIGQHFyY5L6lD2xjX28OMn-DYX1YIKxvWAOa8wwB89SHnnMVa5mbZWe42auE0mAJ41RglP7TRKkbY6euF82Ye9Z561WL3iFHfNSmsRSj01CqIPgfb4dYCMROeAdPWBBm6b4dwwzJNDX4KH8M5S7XLmIkSP8z3CsmlbEp4A7bySx1tk7VKV7bvFPNwZ0vjkk_lmy6x4NjxhtpZ1VMEnd5QnJ_gd-uFk4qxuCudaLux3xd1_s8nsjLu1z-8ztpzuCUW_wVOeuj6mDpnfk9uABpBX7W1yljVTVTBhKRpXy71msl0ynsJVY_L8oEZnMLozt1jxBz3ktk7H_k4ZbuUH1YV3q-7-FN4jDh_4hFZ_Lwtf-5byAVzMX_vvXsP0wNgO1asX_TWsEvaTLhnRU_KP6o7s2dbRD_Sufclb4pleQ3zCs2h5tKeznY_SNy6KiPynQwpZCOSB9io1r65WgjN2DECuXepBACnY9z2fmewuDbLBORifkakF4SKsMcxFrMHYOwxJV_Y8DK3EBE_SpjqTBjHCBB1WC6sBi1tBzjDYhbTuioXzCr-RNoHUUYoOmVKLfRuk5jIxV1EttiaUdKMWNTfq2ynhk3DrNAP9uaqLjd9cl3Uu4cIu7J7mII92Mz366pX2DVn-hpTVNrzVKguawhErGSBHfzC4p76tndiGcZKE24lweevMbvkAZx6kPvpjK6aoF3XsGcxNXbjFB-YYOWtShN2fAmdMrCZPJl0seP0eIUvkSTgun_Yz7Whd0_M__rf72pyxefATssv4tQjaaXIhMQIDArPnoU41um2OGJJz_ao2Ji6tuTjBu_m4FTZAHIKonKlkfzaz51SdRqYMwBptsWKmBHGK_-HIftAI9AjN25opy4GIO2_z0jdGLylqo7KINZDkbGAEz07A_FJAYh7GukTW3B-3xTAQaj4ljOlcyDzWxYkamJqMZVriddniP3up4ppFXCsdZRJBN3XAuyaouq11HfaldMEiGHhiRsMs1eAV8VYdKbEhzKqGbuvZrTB0vxlquZm9jd1sck48seO3N3lQYTXi3a7A2RNRwwzNU64Fh1e7UCqAF04x86u1BW6_vcVMP3YqB8f54cIAIQCm4KBm7AHmF3yDiF0ecxYc3icoYLUpW7v5YOdI-3YEhrg9CJOpxO03SofsGjCgBZCy9aePD0XaTfhKKDIPHIkvHk_-2m00?></g></svg>
