<?plantuml 1.2026.1?><svg xmlns="http://www.w3.org/2000/svg" xmlns:xlink="http://www.w3.org/1999/xlink" contentStyleType="text/css" data-diagram-type="DESCRIPTION" height="587.5617px" preserveAspectRatio="none" style="width:960px;height:587px;background:#FFFFFF;" version="1.1" viewBox="0 0 960 587" width="960.9477px" zoomAndPan="magnify"><title>ETR Study API &#8212; C4 Level 3 (components)</title><defs/><g><g class="title" data-source-line="44"><text fill="#000000" font-family="'Arial'" font-size="13.2675" font-weight="bold" lengthAdjust="spacing" textLength="313.8663" x="316.9069" y="25.5827">ETR Study API &#8212; C4 Level 3 (components)</text></g><!--cluster Pres--><g class="cluster" data-qualified-name="Pres" data-source-line="50" id="ent0003"><rect fill="#F8FAFC" height="192.6444" rx="2.843" ry="2.843" style="stroke:#2563EB;stroke-width:0.9477;" width="377.1767" x="6.6338" y="138.7753"/><text fill="#000000" font-family="'Arial'" font-size="9.4768" font-weight="bold" lengthAdjust="spacing" textLength="68.8225" x="160.8109" y="153.258">Presentation</text></g><!--cluster AppPkg--><g class="cluster" data-qualified-name="AppPkg" data-source-line="59" id="ent0008"><rect fill="#F8FAFC" height="200.2259" rx="2.843" ry="2.843" style="stroke:#2563EB;stroke-width:0.9477;" width="370.5429" x="406.5548" y="242.679"/><text fill="#000000" font-family="'Arial'" font-size="9.4768" font-weight="bold" lengthAdjust="spacing" textLength="60.447" x="561.6028" y="257.1616">Application</text></g><!--cluster PerPkg--><g class="cluster" data-qualified-name="PerPkg" data-source-line="66" id="ent0013"><rect fill="#F8FAFC" height="156.6326" rx="2.843" ry="2.843" style="stroke:#2563EB;stroke-width:0.9477;" width="155.4195" x="799.8421" y="354.1641"/><text fill="#000000" font-family="'Arial'" font-size="9.4768" font-weight="bold" lengthAdjust="spacing" textLength="62.3257" x="846.389" y="368.6467">Persistence</text></g><!--entity UR--><g class="entity" data-qualified-name="Pres.UR" data-source-line="52" id="ent0004"><rect fill="#F1F1F1" height="37.5666" rx="2.843" ry="2.843" style="stroke:#181818;stroke-width:0.4738;" width="80.2909" x="281.1198" y="182.3686"/><text fill="#000000" font-family="'Arial'" font-size="9.4768" lengthAdjust="spacing" textLength="53.7559" x="294.3874" y="204.4327">User router</text></g><!--entity CR--><g class="entity" data-qualified-name="Pres.CR" data-source-line="53" id="ent0005"><rect fill="#F1F1F1" height="37.5666" rx="2.843" ry="2.843" style="stroke:#181818;stroke-width:0.4738;" width="113.7651" x="29.3591" y="182.3686"/><text fill="#000000" font-family="'Arial'" font-size="9.4768" lengthAdjust="spacing" textLength="87.2301" x="42.6267" y="204.4327">Conspectus router</text></g><!--entity ER--><g class="entity" data-qualified-name="Pres.ER" data-source-line="54" id="ent0006"><rect fill="#F1F1F1" height="37.5666" rx="2.843" ry="2.843" style="stroke:#181818;stroke-width:0.4738;" width="100.0312" x="162.2618" y="182.3686"/><text fill="#000000" font-family="'Arial'" font-size="9.4768" lengthAdjust="spacing" textLength="73.4961" x="175.5293" y="204.4327">Error-log router</text></g><!--entity Sch--><g class="entity" data-qualified-name="Pres.Sch" data-source-line="56" id="ent0007"><rect fill="#F1F1F1" height="37.5666" rx="2.843" ry="2.843" style="stroke:#181818;stroke-width:0.4738;" width="112.2196" x="156.1682" y="278.6908"/><text fill="#000000" font-family="'Arial'" font-size="9.4768" lengthAdjust="spacing" textLength="85.6845" x="169.4357" y="300.7549">Pydantic schemas</text></g><!--entity USvc--><g class="entity" data-qualified-name="AppPkg.USvc" data-source-line="60" id="ent0009"><rect fill="#F1F1F1" height="37.5666" rx="2.843" ry="2.843" style="stroke:#181818;stroke-width:0.4738;" width="83.1599" x="678.6527" y="278.6908"/><text fill="#000000" font-family="'Arial'" font-size="9.4768" lengthAdjust="spacing" textLength="56.6248" x="691.9202" y="300.7549">UserService</text></g><!--entity CSvc--><g class="entity" data-qualified-name="AppPkg.CSvc" data-source-line="61" id="ent0010"><rect fill="#F1F1F1" height="37.5666" rx="2.843" ry="2.843" style="stroke:#181818;stroke-width:0.4738;" width="116.6341" x="422.1536" y="278.6908"/><text fill="#000000" font-family="'Arial'" font-size="9.4768" lengthAdjust="spacing" textLength="90.099" x="435.4211" y="300.7549">ConspectusService</text></g><!--entity ESvc--><g class="entity" data-qualified-name="AppPkg.ESvc" data-source-line="62" id="ent0011"><rect fill="#F1F1F1" height="37.5666" rx="2.843" ry="2.843" style="stroke:#181818;stroke-width:0.4738;" width="102.1273" x="557.3497" y="278.6908"/><text fill="#000000" font-family="'Arial'" font-size="9.4768" lengthAdjust="spacing" textLength="75.5923" x="570.6172" y="300.7549">ErrorLogService</text></g><!--entity Pol--><g class="entity" data-qualified-name="AppPkg.Pol" data-source-line="63" id="ent0012"><rect fill="#F1F1F1" height="37.5666" rx="2.843" ry="2.843" style="stroke:#181818;stroke-width:0.4738;" width="97.6805" x="431.6304" y="390.1759"/><text fill="#000000" font-family="'Arial'" font-size="9.4768" lengthAdjust="spacing" textLength="71.1454" x="444.8979" y="412.24">SchedulePolicy</text></g><!--entity Repo--><g class="entity" data-qualified-name="PerPkg.Repo" data-source-line="67" id="ent0014"><rect fill="#F1F1F1" height="37.5666" rx="2.843" ry="2.843" style="stroke:#181818;stroke-width:0.4738;" width="85.145" x="815.0808" y="390.1759"/><text fill="#000000" font-family="'Arial'" font-size="9.4768" lengthAdjust="spacing" textLength="58.6099" x="828.3483" y="412.24">Repositories</text></g><!--entity Sess--><g class="entity" data-qualified-name="PerPkg.Sess" data-source-line="68" id="ent0015"><rect fill="#F1F1F1" height="37.5666" rx="2.843" ry="2.843" style="stroke:#181818;stroke-width:0.4738;" width="124.3849" x="815.3556" y="458.0677"/><text fill="#000000" font-family="'Arial'" font-size="9.4768" lengthAdjust="spacing" textLength="97.8498" x="828.6231" y="480.1318">SQLAlchemy session</text></g><!--entity Client--><g class="entity" data-qualified-name="Client" data-source-line="48" id="ent0002"><ellipse cx="212.2792" cy="56.1945" fill="#ECFDF5" rx="7.5814" ry="7.5814" style="stroke:#047857;stroke-width:0.4738;"/><path d="M212.2792,63.7759 L212.2792,89.3633 M199.9594,71.3574 L224.5991,71.3574 M212.2792,89.3633 L199.9594,103.5785 M212.2792,89.3633 L224.5991,103.5785" fill="none" style="stroke:#047857;stroke-width:0.4738;"/><text fill="#000000" font-family="'Arial'" font-size="9.4768" lengthAdjust="spacing" textLength="47.4766" x="188.541" y="117.5873">Integrator</text></g><!--entity Db--><g class="entity" data-qualified-name="Db" data-source-line="71" id="ent0016"><path d="M841.6727,535.4363 C841.6727,525.9595 877.5494,525.9595 877.5494,525.9595 C877.5494,525.9595 913.4261,525.9595 913.4261,535.4363 L913.4261,562.5785 C913.4261,572.0553 877.5494,572.0553 877.5494,572.0553 C877.5494,572.0553 841.6727,572.0553 841.6727,562.5785 L841.6727,535.4363" fill="#FFF7ED" style="stroke:#C2410C;stroke-width:0.4738;"/><path d="M841.6727,535.4363 C841.6727,544.9131 877.5494,544.9131 877.5494,544.9131 C877.5494,544.9131 913.4261,544.9131 913.4261,535.4363" fill="none" style="stroke:#C2410C;stroke-width:0.4738;"/><text fill="#000000" font-family="'Arial'" font-size="9.4768" lengthAdjust="spacing" textLength="45.2184" x="854.9402" y="561.2912">Database</text></g><!--link Client to UR--><g class="link" data-entity-1="ent0002" data-entity-2="ent0004" data-link-type="dependency" data-source-line="73" id="lnk17"><path d="M240.0663,85.8948 C272.3538,85.8948 321.2636,85.8948 321.2636,85.8948 C321.2636,85.8948 321.2636,143.6938 321.2636,176.4267" fill="none" id="Client-to-UR" style="stroke:#64748B;stroke-width:1.0424;"/><polygon fill="#64748B" points="321.2636,182.1127,325.0543,173.5836,321.2636,177.3743,317.4729,173.5836,321.2636,182.1127" style="stroke:#64748B;stroke-width:1.0424;"/></g><!--link Client to CR--><g class="link" data-entity-1="ent0002" data-entity-2="ent0005" data-link-type="dependency" data-source-line="74" id="lnk18"><path d="M184.3048,85.8948 C147.1747,85.8948 86.2389,85.8948 86.2389,85.8948 C86.2389,85.8948 86.2389,143.6938 86.2389,176.4267" fill="none" id="Client-to-CR" style="stroke:#64748B;stroke-width:1.0424;"/><polygon fill="#64748B" points="86.2389,182.1127,90.0296,173.5836,86.2389,177.3743,82.4482,173.5836,86.2389,182.1127" style="stroke:#64748B;stroke-width:1.0424;"/></g><!--link Client to ER--><g class="link" data-entity-1="ent0002" data-entity-2="ent0006" data-link-type="dependency" data-source-line="75" id="lnk19"><path d="M212.2804,123.9346 C212.2804,143.4853 212.2804,160.7425 212.2804,176.5119" fill="none" id="Client-to-ER" style="stroke:#64748B;stroke-width:1.0424;"/><polygon fill="#64748B" points="212.2804,182.198,216.0711,173.6689,212.2804,177.4596,208.4896,173.6689,212.2804,182.198" style="stroke:#64748B;stroke-width:1.0424;"/></g><!--link UR to Sch--><g class="link" data-entity-1="ent0004" data-entity-2="ent0007" data-link-type="dependency" data-source-line="77" id="lnk20"><path d="M321.2636,220.3137 C321.2636,248.5925 321.2636,298.1751 321.2636,298.1751 C321.2636,298.1751 300.9643,298.1751 274.3724,298.1751" fill="none" id="UR-to-Sch" style="stroke:#64748B;stroke-width:1.0424;"/><polygon fill="#64748B" points="268.6863,298.1751,277.2154,301.9658,273.4247,298.1751,277.2154,294.3844,268.6863,298.1751" style="stroke:#64748B;stroke-width:1.0424;"/></g><!--link CR to Sch--><g class="link" data-entity-1="ent0005" data-entity-2="ent0007" data-link-type="dependency" data-source-line="78" id="lnk21"><path d="M105.202,220.3137 C105.202,248.5925 105.202,298.1751 105.202,298.1751 C105.202,298.1751 124.4304,298.1751 150.2357,298.1751" fill="none" id="CR-to-Sch" style="stroke:#64748B;stroke-width:1.0424;"/><polygon fill="#64748B" points="155.9218,298.1751,147.3927,294.3844,151.1834,298.1751,147.3927,301.9658,155.9218,298.1751" style="stroke:#64748B;stroke-width:1.0424;"/></g><!--link ER to Sch--><g class="link" data-entity-1="ent0006" data-entity-2="ent0007" data-link-type="dependency" data-source-line="79" id="lnk22"><path d="M195.6107,220.181 C195.6107,237.0687 195.6107,255.9181 195.6107,272.7962" fill="none" id="ER-to-Sch" style="stroke:#64748B;stroke-width:1.0424;"/><polygon fill="#64748B" points="195.6107,278.4823,199.4014,269.9532,195.6107,273.7439,191.8199,269.9532,195.6107,278.4823" style="stroke:#64748B;stroke-width:1.0424;"/></g><!--link UR to USvc--><g class="link" data-entity-1="ent0004" data-entity-2="ent0009" data-link-type="dependency" data-source-line="81" id="lnk23"><path d="M361.7106,201.5117 C463.1408,201.5117 720.2369,201.5117 720.2369,201.5117 C720.2369,201.5117 720.2369,244.8586 720.2369,272.8247" fill="none" id="UR-to-USvc" style="stroke:#64748B;stroke-width:1.0424;"/><polygon fill="#64748B" points="720.2369,278.5108,724.0276,269.9816,720.2369,273.7724,716.4462,269.9816,720.2369,278.5108" style="stroke:#64748B;stroke-width:1.0424;"/></g><!--link CR to CSvc--><g class="link" data-entity-1="ent0005" data-entity-2="ent0010" data-link-type="dependency" data-source-line="82" id="lnk24"><path d="M67.2758,220.2 C67.2758,237.1635 67.2758,259.3202 67.2758,259.3202 C67.2758,259.3202 480.4738,259.3202 480.4738,259.3202 C480.4738,259.3202 480.4738,263.1678 480.4738,272.711" fill="none" id="CR-to-CSvc" style="stroke:#64748B;stroke-width:1.0424;"/><polygon fill="#64748B" points="480.4738,278.397,484.2646,269.8679,480.4738,273.6586,476.6831,269.8679,480.4738,278.397" style="stroke:#64748B;stroke-width:1.0424;"/></g><!--link ER to ESvc--><g class="link" data-entity-1="ent0006" data-entity-2="ent0011" data-link-type="dependency" data-source-line="83" id="lnk25"><path d="M228.95,220.2948 C228.95,230.2549 228.95,240.3666 228.95,240.3666 C228.95,240.3666 608.4107,240.3666 608.4107,240.3666 C608.4107,240.3666 608.4107,256.155 608.4107,272.7678" fill="none" id="ER-to-ESvc" style="stroke:#64748B;stroke-width:1.0424;"/><polygon fill="#64748B" points="608.4107,278.4539,612.2014,269.9248,608.4107,273.7155,604.6199,269.9248,608.4107,278.4539" style="stroke:#64748B;stroke-width:1.0424;"/></g><!--link CSvc to Pol--><g class="link" data-entity-1="ent0010" data-entity-2="ent0012" data-link-type="dependency" data-source-line="85" id="lnk26"><path d="M480.4738,316.6359 C480.4738,337.1816 480.4738,363.9062 480.4738,384.3572" fill="none" id="CSvc-to-Pol" style="stroke:#64748B;stroke-width:1.0424;"/><polygon fill="#64748B" points="480.4738,390.0432,484.2646,381.5141,480.4738,385.3048,476.6831,381.5141,480.4738,390.0432" style="stroke:#64748B;stroke-width:1.0424;"/></g><!--link USvc to Repo--><g class="link" data-entity-1="ent0009" data-entity-2="ent0014" data-link-type="dependency" data-source-line="86" id="lnk27"><path d="M720.2369,316.6738 C720.2369,346.2509 720.2369,399.5769 720.2369,399.5769 C720.2369,399.5769 768.9003,399.5769 809.243,399.5769" fill="none" id="USvc-to-Repo" style="stroke:#64748B;stroke-width:1.0424;"/><polygon fill="#64748B" points="814.9291,399.5769,806.4,395.7862,810.1907,399.5769,806.4,403.3676,814.9291,399.5769" style="stroke:#64748B;stroke-width:1.0424;"/></g><!--link CSvc to Repo--><g class="link" data-entity-1="ent0010" data-entity-2="ent0014" data-link-type="dependency" data-source-line="87" id="lnk28"><path d="M534.0557,316.6549 C534.0557,350.7903 534.0557,418.5305 534.0557,418.5305 C534.0557,418.5305 720.9666,418.5305 808.9966,418.5305" fill="none" id="CSvc-to-Repo" style="stroke:#64748B;stroke-width:1.0424;"/><polygon fill="#64748B" points="814.6827,418.5305,806.1536,414.7398,809.9443,418.5305,806.1536,422.3212,814.6827,418.5305" style="stroke:#64748B;stroke-width:1.0424;"/></g><!--link ESvc to Repo--><g class="link" data-entity-1="ent0011" data-entity-2="ent0014" data-link-type="dependency" data-source-line="88" id="lnk29"><path d="M608.4107,316.6549 C608.4107,348.5538 608.4107,409.0537 608.4107,409.0537 C608.4107,409.0537 737.8543,409.0537 809.1198,409.0537" fill="none" id="ESvc-to-Repo" style="stroke:#64748B;stroke-width:1.0424;"/><polygon fill="#64748B" points="814.8059,409.0537,806.2768,405.263,810.0675,409.0537,806.2768,412.8444,814.8059,409.0537" style="stroke:#64748B;stroke-width:1.0424;"/></g><!--link Repo to Sess--><g class="link" data-entity-1="ent0014" data-entity-2="ent0015" data-link-type="dependency" data-source-line="90" id="lnk30"><path d="M857.7927,427.8652 C857.7927,437.2093 857.7927,442.7627 857.7927,452.1163" fill="none" id="Repo-to-Sess" style="stroke:#64748B;stroke-width:1.0424;"/><polygon fill="#64748B" points="857.7927,457.8024,861.5834,449.2732,857.7927,453.064,854.002,449.2732,857.7927,457.8024" style="stroke:#64748B;stroke-width:1.0424;"/></g><!--link Sess to Db--><g class="link" data-entity-1="ent0015" data-entity-2="ent0016" data-link-type="dependency" data-source-line="91" id="lnk31"><path d="M877.5518,495.8043 C877.5518,504.9115 877.5518,510.2186 877.5518,519.847" fill="none" id="Sess-to-Db" style="stroke:#64748B;stroke-width:1.0424;"/><polygon fill="#64748B" points="877.5518,525.5331,881.3425,517.0039,877.5518,520.7947,873.7611,517.0039,877.5518,525.5331" style="stroke:#64748B;stroke-width:1.0424;"/></g><?plantuml-src XLRRRY9747sVhoWvYjPsOcEylgqZHG4CsLMyAsBilAoYqCmKCnqtqvtk7WDPhPIFo1VcItAw1_1WEza7OBggg3frwjBpYaQ5i9pHK8dItxs_9dSlIzgLvU-SUiZ5rBEb7vmNrbSpHPCbkTHAurtBSiubM-7vjqodxj0iQQej_MJrlIGdorpnmLGg9ijbndOlUKMtIwDpAqonlAIEbKArth9wO2zJGGYHtjDC-BHWHtvf85HqBSjgGOxj0s1CTUaTxSO8U_JFNt-JUD0oSpJYNFE1BjMICYkd_Z09QHXXnOnS8J8z1noQ2kMueL6oPCHXqjONkg58zSpeaai_yik8F_KYfDCmCG0hSlvlWuodeb9-0CWVn8nf9-QxyxB5IFx9r3u2Grs1GgHyILxcXISkTPKNv7MTAHLLpfGBuxubfRNZXe6IC-b9YGchbh1Mpqc3CoNC8OsCWYgJ0jpF7Cafo9PAKGghZBCcMwNEsB6XuwE6q8hoFWZRvmtXK6HPOFMacPAHzEOCQVI48LuO44jpcVc2Ocr2nJ9D-_kbzllxL07_UEnGPiQ_ZchByHY_A4VbePk9nNWCBWhXGs-bxE2RaTPodKt8t1TCBd1iv8BLAg0eCwfCTEweh0cf4Q639ahF7TJaUU7t3k7qxIrwVrOvlq7dl6Nq8er--T55IC0JNL-YKaTV0sT89-GWIszbwMIAhaSTlmbn4BwbGWadUX7ytso6XP2QgO2Y7gsqGES47dqXWIpaVCyK1Wh3W-ofXRZFHsqy1koQEf3qI1z2ZM9Sq1rRA8JG5dzsg049vLlQW4nG1rvsGOuZdXc_X1iB71GIoJWOv3DCWDjhTeVLLPdLxkWiPWMM1COemq0ezXwDMt85cNBW0JD44rKnYJI5BzeL1fsO2Yy1nGXVx7r7Ss5HH50ObuS1JkayOmIQSJkXV3sjOF7LsSdvoKNtgVAsaEbz6R9f7xQVAZSZzcQhV-C4TxN5SbhvxdMlJllj5upmayVaLuQ3zk1qqFHsiru1M_wEJyzUzxilcZtpU37e37eDqolXnKIu9m2FJzf7BrezypSOdFUl6fOVCDbRlfuH6Is-YAkJUcst71sTd5-SdZypUUgftnjS3KwtoBNO_1Apul-VjQRX5_6D-8ygzCzxD0DAry4qb1JQZsspazbXnRkrLPUn4MAlaBTLSuzZkbOsiOCkJiE4hK9iLkebdd1_1T64_Povn3gUShXWmXp8CWoCMIrCFOrZoBYCmYosGZecx8XRRGuKjfkYJNYCABPHlJrNaucDkGx_wJFM03bTtxcjpHqkr5miiM0mRSkm7MU7BvEvNk7DedJrOYr-dNZfiM3wjpSqybMsfCxmNTnwlHEwZa1Vq-xcidHxIUAr2HjvehtNk0vak1anx4aYGalGpZkK0OpXUOU4evwI-6EIh6vJsXcYBf343H4jWe0-9GIlEICL6mz47-_mJX3s4ShwQp2ykwdbFLJL86hbcjhUIjj7YUs1qdbJsG_Ap_Xy72upq18MELv2Pi95zIWjaiyDZ9t79HOXuZoypoEkY6g4bnMPSergz90cMwYQsjvA6r5TwxofwwzqYCvPfNYe4NGPLNZS0ZHyN9erPsmtW6xOQ2V1j-Gwco28Vd--xgYG9LxeqDz8fauMpy5vjjehjBFUCD7rrIH9wgBHmS7tWVJ6gRTr0gl9tKry30ps7X_xZuzhYyZJoYIoihA9B2H14eyXyxlr8MRIsphrjqv9-Av3XQp2LpmXYNy1?></g></svg>
