<?plantuml 1.2026.1?><svg xmlns="http://www.w3.org/2000/svg" xmlns:xlink="http://www.w3.org/1999/xlink" contentStyleType="text/css" data-diagram-type="DESCRIPTION" height="572.2586px" preserveAspectRatio="none" style="width:960px;height:572px;background:#FFFFFF;" version="1.1" viewBox="0 0 960 572" width="960.8503px" zoomAndPan="magnify"><title>ETR Study API &#8212; C4 Level 3 (components)</title><defs/><g><g class="title" data-source-line="274"><text fill="#0F172A" font-family="'Helvetica'" font-size="12.7547" font-weight="bold" lengthAdjust="spacing" textLength="301.7334" x="323.6063" y="25.4441">ETR Study API &#8212; C4 Level 3 (components)</text></g><!--cluster Pres--><g class="cluster" data-qualified-name="Pres" data-source-line="280" id="ent0003"><rect fill="#F8FAFC" height="190.1378" rx="3.4012" ry="3.4012" style="stroke:#1D4ED8;stroke-width:1.0204;" width="381.7892" x="5.9522" y="134.7494"/><text fill="#0F172A" font-family="'Helvetica'" font-size="9.3534" font-weight="bold" lengthAdjust="spacing" textLength="67.9264" x="162.8836" y="150.234">Presentation</text></g><!--cluster AppPkg--><g class="cluster" data-qualified-name="AppPkg" data-source-line="289" id="ent0008"><rect fill="#F8FAFC" height="196.9403" rx="3.4012" ry="3.4012" style="stroke:#1D4ED8;stroke-width:1.0204;" width="375.837" x="408.1488" y="236.6166"/><text fill="#0F172A" font-family="'Helvetica'" font-size="9.3534" font-weight="bold" lengthAdjust="spacing" textLength="59.66" x="566.2373" y="252.1011">Application</text></g><!--cluster PerPkg--><g class="cluster" data-qualified-name="PerPkg" data-source-line="296" id="ent0013"><rect fill="#F8FAFC" height="153.5745" rx="3.4012" ry="3.4012" style="stroke:#1D4ED8;stroke-width:1.0204;" width="151.3552" x="804.3933" y="345.2947"/><text fill="#0F172A" font-family="'Helvetica'" font-size="9.3534" font-weight="bold" lengthAdjust="spacing" textLength="61.5142" x="849.3138" y="360.7792">Persistence</text></g><!--entity UR--><g class="entity" data-qualified-name="Pres.UR" data-source-line="282" id="ent0004"><rect fill="#F8FAFC" height="38.0979" rx="3.4012" ry="3.4012" style="stroke:#2563EB;stroke-width:1.0204;" width="80.2659" x="287.2347" y="178.1152"/><text fill="#0F172A" font-family="'Helvetica'" font-size="9.3534" lengthAdjust="spacing" textLength="53.0559" x="300.8397" y="200.4022">User router</text></g><!--entity CR--><g class="entity" data-qualified-name="Pres.CR" data-source-line="283" id="ent0005"><rect fill="#F8FAFC" height="38.0979" rx="3.4012" ry="3.4012" style="stroke:#2563EB;stroke-width:1.0204;" width="113.3042" x="26.6742" y="178.1152"/><text fill="#0F172A" font-family="'Helvetica'" font-size="9.3534" lengthAdjust="spacing" textLength="86.0943" x="40.2792" y="200.4022">Conspectus router</text></g><!--entity ER--><g class="entity" data-qualified-name="Pres.ER" data-source-line="284" id="ent0006"><rect fill="#F8FAFC" height="38.0979" rx="3.4012" ry="3.4012" style="stroke:#2563EB;stroke-width:1.0204;" width="99.7491" x="163.5571" y="178.1152"/><text fill="#0F172A" font-family="'Helvetica'" font-size="9.3534" lengthAdjust="spacing" textLength="72.5392" x="177.1621" y="200.4022">Error-log router</text></g><!--entity Sch--><g class="entity" data-qualified-name="Pres.Sch" data-source-line="286" id="ent0007"><rect fill="#F8FAFC" height="38.0979" rx="3.4012" ry="3.4012" style="stroke:#2563EB;stroke-width:1.0204;" width="111.7788" x="157.5369" y="273.1799"/><text fill="#0F172A" font-family="'Helvetica'" font-size="9.3534" lengthAdjust="spacing" textLength="84.5689" x="171.1419" y="295.4669">Pydantic schemas</text></g><!--entity USvc--><g class="entity" data-qualified-name="AppPkg.USvc" data-source-line="290" id="ent0009"><rect fill="#F8FAFC" height="38.0979" rx="3.4012" ry="3.4012" style="stroke:#2563EB;stroke-width:1.0204;" width="83.0975" x="687.1695" y="273.1799"/><text fill="#0F172A" font-family="'Helvetica'" font-size="9.3534" lengthAdjust="spacing" textLength="55.8875" x="700.7745" y="295.4669">UserService</text></g><!--entity CSvc--><g class="entity" data-qualified-name="AppPkg.CSvc" data-source-line="291" id="ent0010"><rect fill="#F8FAFC" height="38.0979" rx="3.4012" ry="3.4012" style="stroke:#2563EB;stroke-width:1.0204;" width="116.1358" x="421.5072" y="273.1799"/><text fill="#0F172A" font-family="'Helvetica'" font-size="9.3534" lengthAdjust="spacing" textLength="88.9259" x="435.1121" y="295.4669">ConspectusService</text></g><!--entity ESvc--><g class="entity" data-qualified-name="AppPkg.ESvc" data-source-line="292" id="ent0011"><rect fill="#F8FAFC" height="38.0979" rx="3.4012" ry="3.4012" style="stroke:#2563EB;stroke-width:1.0204;" width="101.818" x="561.3151" y="273.1799"/><text fill="#0F172A" font-family="'Helvetica'" font-size="9.3534" lengthAdjust="spacing" textLength="74.6081" x="574.9201" y="295.4669">ErrorLogService</text></g><!--entity Pol--><g class="entity" data-qualified-name="AppPkg.Pol" data-source-line="293" id="ent0012"><rect fill="#F8FAFC" height="38.0979" rx="3.4012" ry="3.4012" style="stroke:#2563EB;stroke-width:1.0204;" width="97.429" x="430.8606" y="381.858"/><text fill="#0F172A" font-family="'Helvetica'" font-size="9.3534" lengthAdjust="spacing" textLength="70.2191" x="444.4655" y="404.145">SchedulePolicy</text></g><!--entity Repo--><g class="entity" data-qualified-name="PerPkg.Repo" data-source-line="297" id="ent0014"><rect fill="#F8FAFC" height="38.0979" rx="3.4012" ry="3.4012" style="stroke:#2563EB;stroke-width:1.0204;" width="85.0567" x="817.9812" y="381.858"/><text fill="#0F172A" font-family="'Helvetica'" font-size="9.3534" lengthAdjust="spacing" textLength="57.8468" x="831.5862" y="404.145">Repositories</text></g><!--entity Sess--><g class="entity" data-qualified-name="PerPkg.Sess" data-source-line="298" id="ent0015"><rect fill="#F8FAFC" height="38.0979" rx="3.4012" ry="3.4012" style="stroke:#2563EB;stroke-width:1.0204;" width="123.7857" x="818.1768" y="447.1618"/><text fill="#0F172A" font-family="'Helvetica'" font-size="9.3534" lengthAdjust="spacing" textLength="96.5758" x="831.7818" y="469.4488">SQLAlchemy session</text></g><!--entity Client--><g class="entity" data-qualified-name="Client" data-source-line="278" id="ent0002"><ellipse cx="213.4297" cy="61.6143" fill="#ECFDF5" rx="13.605" ry="13.605" style="stroke:#047857;stroke-width:1.0204;"/><path d="M213.4297,78.6205 C216.831,78.6205 219.3819,78.6205 222.7831,75.2192 C229.5856,75.2192 236.3881,82.0217 236.3881,88.8242 L236.3881,92.2254 C236.3881,95.6267 232.9869,99.0279 229.5856,99.0279 L197.2738,99.0279 C193.8726,99.0279 190.4714,95.6267 190.4714,92.2254 L190.4714,88.8242 C190.4714,82.0217 197.2738,75.2192 204.0763,75.2192 C207.4776,78.6205 210.0285,78.6205 213.4297,78.6205" fill="#ECFDF5" style="stroke:#047857;stroke-width:1.0204;"/><text fill="#0F172A" font-family="'Helvetica'" font-size="9.3534" font-weight="bold" lengthAdjust="spacing" textLength="54.0835" x="186.388" y="113.8322">Integrator</text></g><!--entity Db--><g class="entity" data-qualified-name="Db" data-source-line="301" id="ent0016"><path d="M844.1538,520.9772 C844.1538,512.4741 880.0735,512.4741 880.0735,512.4741 C880.0735,512.4741 915.9933,512.4741 915.9933,520.9772 L915.9933,549.7217 C915.9933,558.2248 880.0735,558.2248 880.0735,558.2248 C880.0735,558.2248 844.1538,558.2248 844.1538,549.7217 L844.1538,520.9772" fill="#FFF7ED" style="stroke:#C2410C;stroke-width:1.1904;"/><path d="M844.1538,520.9772 C844.1538,529.4803 880.0735,529.4803 880.0735,529.4803 C880.0735,529.4803 915.9933,529.4803 915.9933,520.9772" fill="none" style="stroke:#C2410C;stroke-width:1.1904;"/><text fill="#0F172A" font-family="'Helvetica'" font-size="9.3534" lengthAdjust="spacing" textLength="44.6297" x="857.7587" y="546.6655">Database</text></g><!--link Client to UR--><g class="link" data-entity-1="ent0002" data-entity-2="ent0004" data-link-type="dependency" data-source-line="303" id="lnk17"><path d="M245.7736,84.5981 C279.4629,84.5981 327.3694,84.5981 327.3694,84.5981 C327.3694,84.5981 327.3694,140.523 327.3694,172.7073" fill="none" id="Client-to-UR" style="stroke:#64748B;stroke-width:1.0204;"/><polygon fill="#64748B" points="327.3694,177.8091,330.7706,170.1563,327.3694,173.5576,323.9681,170.1563,327.3694,177.8091" style="stroke:#64748B;stroke-width:1.0204;"/></g><!--link Client to CR--><g class="link" data-entity-1="ent0002" data-entity-2="ent0005" data-link-type="dependency" data-source-line="304" id="lnk18"><path d="M180.9375,84.5981 C142.4014,84.5981 83.3304,84.5981 83.3304,84.5981 C83.3304,84.5981 83.3304,140.523 83.3304,172.7073" fill="none" id="Client-to-CR" style="stroke:#64748B;stroke-width:1.0204;"/><polygon fill="#64748B" points="83.3304,177.8091,86.7316,170.1563,83.3304,173.5576,79.9291,170.1563,83.3304,177.8091" style="stroke:#64748B;stroke-width:1.0204;"/></g><!--link Client to ER--><g class="link" data-entity-1="ent0002" data-entity-2="ent0006" data-link-type="dependency" data-source-line="305" id="lnk19"><path d="M213.4278,121.4081 C213.4278,140.3275 213.4278,157.3932 213.4278,172.8433" fill="none" id="Client-to-ER" style="stroke:#64748B;stroke-width:1.0204;"/><polygon fill="#64748B" points="213.4278,177.9452,216.8291,170.2924,213.4278,173.6936,210.0266,170.2924,213.4278,177.9452" style="stroke:#64748B;stroke-width:1.0204;"/></g><!--link UR to Sch--><g class="link" data-entity-1="ent0004" data-entity-2="ent0007" data-link-type="dependency" data-source-line="307" id="lnk20"><path d="M286.9796,197.6894 C275.628,197.6894 266.3086,197.6894 266.3086,197.6894 C266.3086,197.6894 266.3086,240.1113 266.3086,267.7719" fill="none" id="UR-to-Sch" style="stroke:#64748B;stroke-width:1.0204;"/><polygon fill="#64748B" points="266.3086,272.8738,269.7098,265.221,266.3086,268.6222,262.9074,265.221,266.3086,272.8738" style="stroke:#64748B;stroke-width:1.0204;"/></g><!--link CR to Sch--><g class="link" data-entity-1="ent0005" data-entity-2="ent0007" data-link-type="dependency" data-source-line="308" id="lnk21"><path d="M140.2586,197.6894 C151.8314,197.6894 160.547,197.6894 160.547,197.6894 C160.547,197.6894 160.547,240.1113 160.547,267.7719" fill="none" id="CR-to-Sch" style="stroke:#64748B;stroke-width:1.0204;"/><polygon fill="#64748B" points="160.547,272.8738,163.9483,265.221,160.547,268.6222,157.1458,265.221,160.547,272.8738" style="stroke:#64748B;stroke-width:1.0204;"/></g><!--link ER to Sch--><g class="link" data-entity-1="ent0006" data-entity-2="ent0007" data-link-type="dependency" data-source-line="309" id="lnk22"><path d="M196.8043,216.6258 C196.8043,233.0368 196.8043,251.2844 196.8043,267.6869" fill="none" id="ER-to-Sch" style="stroke:#64748B;stroke-width:1.0204;"/><polygon fill="#64748B" points="196.8043,272.7888,200.2055,265.136,196.8043,268.5372,193.403,265.136,196.8043,272.7888" style="stroke:#64748B;stroke-width:1.0204;"/></g><!--link UR to USvc--><g class="link" data-entity-1="ent0004" data-entity-2="ent0009" data-link-type="dependency" data-source-line="311" id="lnk23"><path d="M367.6911,197.6894 C469.4647,197.6894 728.7157,197.6894 728.7157,197.6894 C728.7157,197.6894 728.7157,240.1113 728.7157,267.7719" fill="none" id="UR-to-USvc" style="stroke:#64748B;stroke-width:1.0204;"/><polygon fill="#64748B" points="728.7157,272.8738,732.1169,265.221,728.7157,268.6222,725.3144,265.221,728.7157,272.8738" style="stroke:#64748B;stroke-width:1.0204;"/></g><!--link CR to CSvc--><g class="link" data-entity-1="ent0005" data-entity-2="ent0010" data-link-type="dependency" data-source-line="312" id="lnk24"><path d="M83.3304,216.6258 C83.3304,233.3089 83.3304,254.6601 83.3304,254.6601 C83.3304,254.6601 479.5748,254.6601 479.5748,254.6601 C479.5748,254.6601 479.5748,258.512 479.5748,267.6869" fill="none" id="CR-to-CSvc" style="stroke:#64748B;stroke-width:1.0204;"/><polygon fill="#64748B" points="479.5748,272.7888,482.9761,265.136,479.5748,268.5372,476.1736,265.136,479.5748,272.7888" style="stroke:#64748B;stroke-width:1.0204;"/></g><!--link ER to ESvc--><g class="link" data-entity-1="ent0006" data-entity-2="ent0011" data-link-type="dependency" data-source-line="313" id="lnk25"><path d="M230.0514,216.5578 C230.0514,226.2513 230.0514,235.9533 230.0514,235.9533 C230.0514,235.9533 612.2232,235.9533 612.2232,235.9533 C612.2232,235.9533 612.2232,251.48 612.2232,267.7634" fill="none" id="ER-to-ESvc" style="stroke:#64748B;stroke-width:1.0204;"/><polygon fill="#64748B" points="612.2232,272.8653,615.6244,265.2125,612.2232,268.6137,608.822,265.2125,612.2232,272.8653" style="stroke:#64748B;stroke-width:1.0204;"/></g><!--link CSvc to Pol--><g class="link" data-entity-1="ent0010" data-entity-2="ent0012" data-link-type="dependency" data-source-line="315" id="lnk26"><path d="M479.5748,311.6564 C479.5748,331.4431 479.5748,356.8249 479.5748,376.5436" fill="none" id="CSvc-to-Pol" style="stroke:#64748B;stroke-width:1.0204;"/><polygon fill="#64748B" points="479.5748,381.6454,482.9761,373.9926,479.5748,377.3939,476.1736,373.9926,479.5748,381.6454" style="stroke:#64748B;stroke-width:1.0204;"/></g><!--link USvc to Repo--><g class="link" data-entity-1="ent0009" data-entity-2="ent0014" data-link-type="dependency" data-source-line="316" id="lnk27"><path d="M728.7157,311.6139 C728.7157,340.5244 728.7157,391.5601 728.7157,391.5601 C728.7157,391.5601 774.1392,391.5601 812.6243,391.5601" fill="none" id="USvc-to-Repo" style="stroke:#64748B;stroke-width:1.0204;"/><polygon fill="#64748B" points="817.7261,391.5601,810.0733,388.1588,813.4746,391.5601,810.0733,394.9613,817.7261,391.5601" style="stroke:#64748B;stroke-width:1.0204;"/></g><!--link CSvc to Repo--><g class="link" data-entity-1="ent0010" data-entity-2="ent0014" data-link-type="dependency" data-source-line="317" id="lnk28"><path d="M532.9658,311.5969 C532.9658,345.2862 532.9658,411.1172 532.9658,411.1172 C532.9658,411.1172 723.8009,411.1172 812.5903,411.1172" fill="none" id="CSvc-to-Repo" style="stroke:#64748B;stroke-width:1.0204;"/><polygon fill="#64748B" points="817.6921,411.1172,810.0393,407.7159,813.4406,411.1172,810.0393,414.5184,817.6921,411.1172" style="stroke:#64748B;stroke-width:1.0204;"/></g><!--link ESvc to Repo--><g class="link" data-entity-1="ent0011" data-entity-2="ent0014" data-link-type="dependency" data-source-line="318" id="lnk29"><path d="M612.2232,311.6564 C612.2232,342.9223 612.2232,400.9135 612.2232,400.9135 C612.2232,400.9135 741.7424,400.9135 812.7263,400.9135" fill="none" id="ESvc-to-Repo" style="stroke:#64748B;stroke-width:1.0204;"/><polygon fill="#64748B" points="817.8282,400.9135,810.1754,397.5122,813.5766,400.9135,810.1754,404.3147,817.8282,400.9135" style="stroke:#64748B;stroke-width:1.0204;"/></g><!--link Repo to Sess--><g class="link" data-entity-1="ent0014" data-entity-2="ent0015" data-link-type="dependency" data-source-line="320" id="lnk30"><path d="M860.6073,420.1475 C860.6073,428.574 860.6073,433.3443 860.6073,441.7794" fill="none" id="Repo-to-Sess" style="stroke:#64748B;stroke-width:1.0204;"/><polygon fill="#64748B" points="860.6073,446.8812,864.0085,439.2284,860.6073,442.6297,857.206,439.2284,860.6073,446.8812" style="stroke:#64748B;stroke-width:1.0204;"/></g><!--link Sess to Db--><g class="link" data-entity-1="ent0015" data-entity-2="ent0016" data-link-type="dependency" data-source-line="321" id="lnk31"><path d="M880.0709,485.4683 C880.0709,493.7758 880.0709,498.4695 880.0709,507.1597" fill="none" id="Sess-to-Db" style="stroke:#64748B;stroke-width:1.0204;"/><polygon fill="#64748B" points="880.0709,512.2616,883.4721,504.6088,880.0709,508.01,876.6696,504.6088,880.0709,512.2616" style="stroke:#64748B;stroke-width:1.0204;"/></g><?plantuml-src jLhvSjl66V-VJx5cF1F9bQZ3acKvSQOK3rkDB2aarJQJwPXBO4cY0h78xa8IssIc3z5twVzzb3v9VtlW80Z8yWo56Si4ldE_QxyzlYNlD_WqlYN3EHNC9zSXZTJDfmiYRuE8_EzV_oOoY6OX8v8dmcE4JuaIYPgJAHV43-XCq0Mv2sH2GzbgV0j6etaWoJG02Vv_zIg8_iuy1Sx1Oi50e5Yu97Igc23ZFqf5XKeMuVZLAp9PWdWiFH74Iku9DcCH4q3_x7DFjkBbc4mOX48J5ldGYQWvopHGdFme-6sm0pq9ksF2C7lLYZLpaaI-5gSPxU73tfXiiGUFnOgCWyWB4v_jZRT94CsP29GqZ2LTC1BJa2d5Ti1BBMCEIV5ykKD2kkI9sY4qyicSXJ5uBwWdk6oH4ISSR04s1gA4HsoNJwUfeffL3E3unUNLv-7evulU62X6OXX4UZm2rggoa3LkXqTtB581Z-Gxl1AoYqyXN0CBtB98agtnYvUNxKyzZ0V-D8nv17vnIE6zENiWTpHCc3HGdtcXzdhBi2BacebT5h8591Z_nnGgIoBOb0aMUORTmeuxW0_k0XzkJuScYPpp9FGTByMv2Pz8UmEMb8h175F1v9oCl_chUSOOD8O97a443zAKLSiDxOmBE4uIZmgn90j68_Zz7PbW0EGzeN4S1XxLnjWXND1efh_26pA0CAYxurJ1W2331t2UB6X4zWZr51SxY5iE1-Fxhma3ops8a9A2pIIHYAGGqGTWn185UiSiYAQ2jaZRzw6lPsrlB7m_PzQHWjlOHm0dy2b04RjFX_J910hSzBBFESO-tY7ZbyDaeW8LClDoeIFV7ofOcGhVVFe8ypY78hfsWyZfeXrXxRlWVZ1TPkaW6SQf0ayQ5q2ffTKHNjIPm1um8EBD1Lym6rVN7APSlYFjxc1tV_zmdsnrZiWVychWvN6ttI8tiQzDC-6e0ofBTsYZ4mKM01UYw0JV59ynV17VaJoXoV3F7oIv3q0yNj1RX27oSdSQF8njrDzZsBgMRBR2WT_kvXvmEsYjfjx61GmJCTL92-E6rf4U3P5-4QDYztwEpDaXCuegxH83oSKNnluJapUjnekNPny-NxS_z8XztfFcDttpD2riU3Fejpkz3FQst-vtcYbTvqT7Qc07_UF-gODTNerAFCzwPmxMFIDa5NRIwpfOkpEw6kImNgVVxHyxs4ytlPjUWQuDUQcUdOkhcsu1jjy_pM2zoz7vwEUSPx__9eDzFF_myGB_HXRMFUkr-pq7-p2ukhakwDBh7sew63ujEzha8QV-xWGMDmP6ISzIwpiT-jujqkazqW-f6InYBf2soXZ-Qj3j3JvVzcv6W_P5AkJqgFtwx6qpXvUCt3dh7lSEYl31-QVsuESKVdZyvhKpj8MN1dZGFUfrY_nBpkWS7XtiTmhmaaFsZqxU7fyKu2Mdd7HUjvqptVXM0w5xUdAo_yOOyJowjSKdcpZ9F43-2s--r0Owl_mn6vqHtJyuEMmt7UJJpQZNTKoFJewFtvocaFPWSFKN1tbpT7Bqzgov-Tm-n4oUwRtvn4RutDe2sFp8mZk6TzeqqMMQcBsB84eUY4APthqFVA19EcLg2QLqSWj-Bva07rlDfQwd1faaqlP5gCZi0NCScT9542w_qoq6EfIheOLX3kQGAdNNX6QEWLMcnex6TV8vVanqoKRP9qEgkui5KoBmTZs-YF5PLtWpZBO8QBZTQcHD0rgBAKr2rUUHkjIjL76arMZ3u1z0EpYeXkfIAqWnQWfu8prvvgBgX6LeLXI47LT2rJBKu0b7CrC1jwgGEcNQ0WvQmpC1NOMLwR9VW5wYDIW2gw6fW3fDR2THuBF2nVOV1UXf9T09AGnYu_dmkaKkJ4kzOSxvSEIS-lnU9uTzfbYji09SzzueL2ojbQZZSrw0wtX79v_5XcxIgLuM5N1YwjsYTqoZfn97S2n5EboW4J9otXPWrzJtSmq9ULE0HTndaiKPxB18YCxtTWLuM4oXE235vxJ8zWmgpvnE9hrSkw0N6ZH63T4J6h4bAE_b4ydqEWrh8_BzvGyMF3PrG2zxqD8ze6bLSmfAjnv0PKCV4r4Ty_bo0VKbYIqVtSXE1AEtGCNQ0zscw-6n4DBzieHrPmnDeKM720natuhUV3mUjMnwocUBHyC-Ir-IJsnbd95kCIAiIj1k7cv-fCSjKqnGs7LhIUW2vRxWQRF2jZMOJ4CgCOSlMHZo--rdiunMfoeiTQDHHZDjMi6AXPwa4hLWp19yXDcp7GQpo2nz2GdPL6tUsc_qYY5IQDbXMvIac3rVX5tRQbGs9I65rhu2lMJItAYr9CKPqpwbURE0LsHSchKA18EqS5R5WLknLABNnCFwn5WYMKso2hIoxdMQTz9fuccQv-XFrhn4KYeFnQ3sAtpltB-kYK5Vytqnf-mwfYYYZp-LCgf5MFGA6O-9G2GnKI6ZEeWT-hgCSX2lL5aLO9Mzvh6QKMJePI6FZA8JyiIlCvHPsQuXVvsPVjAxLtK2p0fk3VaH0OyGvE5cUjBdc95EMbWUSO62yMobiKiLdL39AbtUFQl2hFFs8zW5MnsqZbQhH1YYikYzjAVMYPpW2vMYGDMBLA2MDSbZDqtMiH_9dLJ2fZt-5jsMtewLfWkKxDV4R3L3BQpVWfX6wXdxC2ruTVQo3xt76dd1ogXrIMQsKTQG7qcoHmZMawo4jZxZkZbtPTBDhFUq62iIF7asMYEgcqaBY6NjovgVQKsfg0lSRCEhYgG-Ugl8T2ycUFZqAImbUCIlpvObfwYBQMgaAwXdIujKqYTx768wus9sU6X0cAWWMDlxA3PCvIqGmIHw6PbAEMDOM1W6ZiXiJUNeMFGvp6nNP7LbUrmTSELrzThY-em_LEAapr75G2-2AVv5JsnHrwYUd64fvGV8Y6jImcnarz9yNKwiq7var5_P1AhTQKh91kb9uTVP9ITRrVRBTkdgGyYA5h6wGInJrKthNwHSAy6bDKy5-geB7ZSZ8hAsUQ_NJLCzriDdtU_6JyBsTTEcJ_QUlp9fCPMsgI_RbgRACb-8iPnkTKwkc9WDRjN4N1aTANA5ElMneOdQIebWabHlaLH4nWfDvIgsN9GDoL1VEgXIxj7IeIbxQpuXQntpvkFlmBIGo3MrVFuGJ2NLH67DkZ4bgWx3-Y1S9LoBmxNsq23Nn5RTWOMZAcrAhb2jRKuMQMgsTjQEF1nDDw0B7lbL8LmLLsMochdp2QIFRkEiKzLamLC4rgH1vR8nZoTHIPERV_E9SzXoXqHsyUM55A6LRT1lkRrV07K7o7nxs6Vkk32fdcyJsEfKk--pKkCSxfStVQhEnUhRr9Kj6LZbArO91lq9QuGIIUsoheHNLS-VytJku7MB35WYpNsUXRk-PAyXkIj4snkNsGx3L9I-z1Gd-WzY3kiEUngTNMko1nNUtDp-Mhl-P2ytmJxf3QkjviVHw7f8_liVygVXrQN-Vu_6mTxTGNCxDRgvzBYWKC6ZiP5cxmyQ1fQTFHxTQcRNfS17NonCRnDAxKTp-H1iDRy9LuelY2UO7oXpt6WPwPjTMqt1b5ZkwaF-N8lrn-WrroToGMGk2oewirnMhunjFSB3Sd7Nra93HhQEp9KrkMsCTICPaR6vxn8kt-LtycpkKzG8HfqjY81ppFKsfWi833O5srQZyIA9VasullGP2-unNxilTy5BVLTXkv4QrxmsNa2J3Bc6WxDwIcyMeH2fFvAzFVDvR-z9d8pP7P-8wvk9abn-DX-8kytK84upRIADyoJ6PKyqd8r5C9ihiFpjlRqUYF-T4txJN-s5HBBdBYWMdj_8z-wQr0yfQdxj4GJjw_CYght1bQ8Mxa82rQUAIgLlAbbKSp4hHJNN6e4qSNifAmhOkryQ5MEn8ofPmyP3RpH06vZuIwEMZhJE4Qhj7Gl9QxAL7Q8ZqXgAn_e0sEM5lVQA4JKQrXBDSpWNOOVVJUsSJXY0iD5mX-oaULse1WP3Vo3_R93iog5v8UGN1BJG1--8ahzfn9k1_TxXaOmXDP55QCT1UsXin6x8PqLWJmD_nxzVhfU-gJ14UdCK6sd0Gs_U-BsWOpltb54HxzUtCwENqMh8n5tWCQlLyCvhh6XLX7OSr6XrmMT5MC_181s-29czocb0-BcYq7KU3zPcJ6GA3LZCPG1x1yoEHdymV7-wQ8Twb4lKLIan63jO_DRCVRVhJPhf_hTXtPqq6jPfc1f-q4Oll7LMtc3Lnit0_DGMxEG_U_dF5CFOoQ4OgpWSOuM6_c9UzSXlqXSpaixAMs_bhQ7_Mb5wLFgFUSCW_Wy0?></g></svg>
