<?plantuml 1.2026.1?><svg xmlns="http://www.w3.org/2000/svg" xmlns:xlink="http://www.w3.org/1999/xlink" contentStyleType="text/css" data-diagram-type="DESCRIPTION" height="756px" preserveAspectRatio="none" style="width:741px;height:756px;background:#FFFFFF;" version="1.1" viewBox="0 0 741 756" width="741px" zoomAndPan="magnify"><title>ETR Study API &#8212; C4 Level 2 (containers)</title><defs/><g><g class="title" data-source-line="274"><text fill="#0F172A" font-family="'Helvetica'" font-size="15" font-weight="bold" lengthAdjust="spacing" textLength="340.8398" x="193.1532" y="29.9233">ETR Study API &#8212; C4 Level 2 (containers)</text></g><!--cluster Proc--><g class="cluster" data-qualified-name="Proc" data-source-line="280" id="ent0003"><rect fill="#F8FAFC" height="251.91" rx="4" ry="4" style="stroke:#1D4ED8;stroke-width:1.2;" width="156" x="450.9" y="286.2709"/><text fill="#0F172A" font-family="'Helvetica'" font-size="11" font-weight="bold" lengthAdjust="spacing" textLength="72.4292" x="492.6854" y="304.4814">API process</text><text fill="#0F172A" font-family="'Helvetica'" font-size="11" font-weight="bold" lengthAdjust="spacing" textLength="119.3726" x="469.2137" y="317.2861">(single deployable)</text></g><!--cluster Obs--><g class="cluster" data-qualified-name="Obs" data-source-line="292" id="ent0012"><rect fill="#F8FAFC" height="204.81" rx="4" ry="4" style="stroke:#1D4ED8;stroke-width:1.2;" width="218" x="471.9" y="57.4609"/><text fill="#0F172A" font-family="'Helvetica'" font-size="11" font-weight="bold" lengthAdjust="spacing" textLength="82.8652" x="539.4674" y="75.6714">Observability</text><text fill="#0F172A" font-family="'Helvetica'" font-size="11" font-weight="bold" lengthAdjust="spacing" textLength="61.0962" x="550.3519" y="88.4761">(optional)</text></g><!--cluster LogStack--><g class="cluster" data-qualified-name="LogStack" data-source-line="298" id="ent0016"><rect fill="#F8FAFC" height="188.11" rx="4" ry="4" style="stroke:#1D4ED8;stroke-width:1.2;" width="206" x="8.9" y="562.1809"/><text fill="#0F172A" font-family="'Helvetica'" font-size="11" font-weight="bold" lengthAdjust="spacing" textLength="76.0815" x="73.8592" y="580.3914">Log pipeline</text><text fill="#0F172A" font-family="'Helvetica'" font-size="11" font-weight="bold" lengthAdjust="spacing" textLength="61.0962" x="81.3519" y="593.1961">(optional)</text></g><!--entity Http--><g class="entity" data-qualified-name="Proc.Http" data-source-line="281" id="ent0004"><rect fill="#F8FAFC" height="44.8047" rx="4" ry="4" style="stroke:#2563EB;stroke-width:1.2;" width="111.3472" x="473.23" y="342.2709"/><text fill="#0F172A" font-family="'Helvetica'" font-size="11" lengthAdjust="spacing" textLength="79.3472" x="489.23" y="368.4814">HTTP &#183; FastAPI</text></g><!--entity App--><g class="entity" data-qualified-name="Proc.App" data-source-line="282" id="ent0005"><rect fill="#F8FAFC" height="44.8047" rx="4" ry="4" style="stroke:#2563EB;stroke-width:1.2;" width="123.314" x="467.24" y="409.0709"/><text fill="#0F172A" font-family="'Helvetica'" font-size="11" lengthAdjust="spacing" textLength="91.314" x="483.24" y="435.2814">Domain services</text></g><!--entity Persist--><g class="entity" data-qualified-name="Proc.Persist" data-source-line="283" id="ent0006"><rect fill="#F8FAFC" height="44.8047" rx="4" ry="4" style="stroke:#2563EB;stroke-width:1.2;" width="100.0303" x="478.88" y="477.3809"/><text fill="#0F172A" font-family="'Helvetica'" font-size="11" lengthAdjust="spacing" textLength="68.0303" x="494.88" y="503.5914">Repositories</text></g><!--entity Graf--><g class="entity" data-qualified-name="Obs.Graf" data-source-line="293" id="ent0013"><rect fill="#F8FAFC" height="44.8047" rx="4" ry="4" style="stroke:#2563EB;stroke-width:1.2;" width="76.1128" x="597.84" y="113.4609"/><text fill="#0F172A" font-family="'Helvetica'" font-size="11" lengthAdjust="spacing" textLength="44.1128" x="613.84" y="139.6714">Grafana</text></g><!--entity Prom--><g class="entity" data-qualified-name="Obs.Prom" data-source-line="294" id="ent0014"><rect fill="#F8FAFC" height="44.8047" rx="4" ry="4" style="stroke:#2563EB;stroke-width:1.2;" width="98.1235" x="573.84" y="201.4609"/><text fill="#0F172A" font-family="'Helvetica'" font-size="11" lengthAdjust="spacing" textLength="66.1235" x="589.84" y="227.6714">Prometheus</text></g><!--entity Bbx--><g class="entity" data-qualified-name="Obs.Bbx" data-source-line="295" id="ent0015"><rect fill="#F8FAFC" height="44.8047" rx="4" ry="4" style="stroke:#2563EB;stroke-width:1.2;" width="81.9834" x="487.91" y="113.4609"/><text fill="#0F172A" font-family="'Helvetica'" font-size="11" lengthAdjust="spacing" textLength="49.9834" x="503.91" y="139.6714">Blackbox</text></g><!--entity ES--><g class="entity" data-qualified-name="LogStack.ES" data-source-line="299" id="ent0017"><rect fill="#F8FAFC" height="44.8047" rx="4" ry="4" style="stroke:#2563EB;stroke-width:1.2;" width="104.6763" x="59.56" y="689.4909"/><text fill="#0F172A" font-family="'Helvetica'" font-size="11" lengthAdjust="spacing" textLength="72.6763" x="75.56" y="715.7014">Elasticsearch</text></g><!--entity Kib--><g class="entity" data-qualified-name="LogStack.Kib" data-source-line="300" id="ent0018"><rect fill="#F8FAFC" height="44.8047" rx="4" ry="4" style="stroke:#2563EB;stroke-width:1.2;" width="69.7051" x="129.05" y="618.1809"/><text fill="#0F172A" font-family="'Helvetica'" font-size="11" lengthAdjust="spacing" textLength="37.7051" x="145.05" y="644.3914">Kibana</text></g><!--entity FB--><g class="entity" data-qualified-name="LogStack.FB" data-source-line="301" id="ent0019"><rect fill="#F8FAFC" height="44.8047" rx="4" ry="4" style="stroke:#2563EB;stroke-width:1.2;" width="76.0107" x="24.89" y="618.1809"/><text fill="#0F172A" font-family="'Helvetica'" font-size="11" lengthAdjust="spacing" textLength="44.0107" x="40.89" y="644.3914">Filebeat</text></g><!--entity Client--><g class="entity" data-qualified-name="Client" data-source-line="278" id="ent0002"><ellipse cx="417.9022" cy="197.4609" fill="#ECFDF5" rx="16" ry="16" style="stroke:#047857;stroke-width:1.2;"/><path d="M417.9022,217.4609 C421.9022,217.4609 424.9022,217.4609 428.9022,213.4609 C436.9022,213.4609 444.9022,221.4609 444.9022,229.4609 L444.9022,233.4609 C444.9022,237.4609 440.9022,241.4609 436.9022,241.4609 L398.9022,241.4609 C394.9022,241.4609 390.9022,237.4609 390.9022,233.4609 L390.9022,229.4609 C390.9022,221.4609 398.9022,213.4609 406.9022,213.4609 C410.9022,217.4609 413.9022,217.4609 417.9022,217.4609" fill="#ECFDF5" style="stroke:#047857;stroke-width:1.2;"/><text fill="#0F172A" font-family="'Helvetica'" font-size="11" font-weight="bold" lengthAdjust="spacing" textLength="63.6045" x="386.1" y="258.8714">Integrator</text></g><!--entity Db--><g class="entity" data-qualified-name="Db" data-source-line="288" id="ent0009"><path d="M639.66,623.6809 C639.66,613.6809 681.9032,613.6809 681.9032,613.6809 C681.9032,613.6809 724.1463,613.6809 724.1463,623.6809 L724.1463,657.4856 C724.1463,667.4856 681.9032,667.4856 681.9032,667.4856 C681.9032,667.4856 639.66,667.4856 639.66,657.4856 L639.66,623.6809" fill="#FFF7ED" style="stroke:#C2410C;stroke-width:1.4;"/><path d="M639.66,623.6809 C639.66,633.6809 681.9032,633.6809 681.9032,633.6809 C681.9032,633.6809 724.1463,633.6809 724.1463,623.6809" fill="none" style="stroke:#C2410C;stroke-width:1.4;"/><text fill="#0F172A" font-family="'Helvetica'" font-size="11" lengthAdjust="spacing" textLength="52.4863" x="655.66" y="653.8914">Database</text></g><!--entity Redis--><g class="entity" data-qualified-name="Redis" data-source-line="289" id="ent0010"><path d="M407.39,616.7809 L606.4159,616.7809 C611.4159,616.7809 611.4159,640.5856 611.4159,640.5856 C611.4159,640.5856 611.4159,664.3903 606.4159,664.3903 L407.39,664.3903 C402.39,664.3903 402.39,640.5856 402.39,640.5856 C402.39,640.5856 402.39,616.7809 407.39,616.7809" fill="#FAF5FF" style="stroke:#7C3AED;stroke-width:1.2;"/><path d="M606.4159,616.7809 C601.4159,616.7809 601.4159,640.5856 601.4159,640.5856 C601.4159,664.3903 606.4159,664.3903 606.4159,664.3903" fill="none" style="stroke:#7C3AED;stroke-width:1.2;"/><text fill="#0F172A" font-family="'Helvetica'" font-size="11" lengthAdjust="spacing" textLength="30.1802" x="413.39" y="637.9914">Redis</text><text fill="#0F172A" font-family="'Helvetica'" font-size="11" lengthAdjust="spacing" textLength="177.0259" x="413.39" y="650.7961">(cache, rate limit, idempotency)</text></g><!--entity Mig--><g class="entity" data-qualified-name="Mig" data-source-line="290" id="ent0011"><rect fill="#F8FAFC" height="44.8047" rx="4" ry="4" style="stroke:#2563EB;stroke-width:1.2;" width="76.1504" x="643.82" y="477.3809"/><text fill="#0F172A" font-family="'Helvetica'" font-size="11" lengthAdjust="spacing" textLength="44.1504" x="659.82" y="503.5914">Alembic</text></g><!--entity LogFile--><g class="entity" data-qualified-name="LogFile" data-source-line="304" id="ent0020"><rect fill="#F8FAFC" height="47.8047" rx="4" ry="4" style="stroke:#94A3B8;stroke-width:0.5;" width="111.8081" x="7" y="475.8809"/><polygon fill="#F8FAFC" points="101.8081,480.8809,101.8081,494.8809,113.8081,494.8809,113.8081,486.8809,107.8081,480.8809,101.8081,480.8809" style="stroke:#94A3B8;stroke-width:0.5;"/><line style="stroke:#94A3B8;stroke-width:0.5;" x1="107.8081" x2="107.8081" y1="480.8809" y2="486.8809"/><line style="stroke:#94A3B8;stroke-width:0.5;" x1="113.8081" x2="107.8081" y1="486.8809" y2="486.8809"/><text fill="#0F172A" font-family="'Helvetica'" font-size="11" lengthAdjust="spacing" textLength="69.8081" x="23" y="505.0914">NDJSON logs</text></g><g class="entity" data-qualified-name="GMN34" data-source-line="323" id="ent0035"><path d="M146.64,481.1409 L146.64,518.4222 A4,4 0 0 0 150.64,522.4222 L431.1527,522.4222 A4,4 0 0 0 435.1527,518.4222 L435.1527,487.1409 L425.1527,477.1409 L150.64,477.1409 A4,4 0 0 0 146.64,481.1409" fill="#FFFBEB" style="stroke:#D97706;stroke-width:1;"/><path d="M425.1527,477.1409 L425.1527,485.1409 A2,2 0 0 0 427.1527,487.1409 L435.1527,487.1409 L425.1527,477.1409" fill="#FFFBEB" style="stroke:#D97706;stroke-width:1;"/><text fill="#0F172A" font-family="'Helvetica'" font-size="10" lengthAdjust="spacing" textLength="187.3047" x="158.64" y="497.4232">Writes update snapshots and append</text><text fill="#0F172A" font-family="'Helvetica'" font-size="10" lengthAdjust="spacing" textLength="255.5127" x="158.64" y="509.0638">review_log / conspectus_events in one transaction.</text></g><!--link Http to App--><!--link Http to App--><g class="link" data-entity-1="ent0004" data-entity-2="ent0005" data-link-type="dependency" data-source-line="307" id="lnk22"><path d="M547.46,387.2909 C547.46,394.2509 547.46,395.9209 547.46,402.8809" fill="none" id="Http-to-App" style="stroke:#64748B;stroke-width:1.2;"/><polygon fill="#64748B" points="547.46,408.8809,551.46,399.8809,547.46,403.8809,543.46,399.8809,547.46,408.8809" style="stroke:#64748B;stroke-width:1.2;"/></g><!--link App to Persist--><!--link App to Persist--><g class="link" data-entity-1="ent0005" data-entity-2="ent0006" data-link-type="dependency" data-source-line="308" id="lnk23"><path d="M545.57,454.2209 C545.57,461.5109 545.57,463.5909 545.57,470.9009" fill="none" id="App-to-Persist" style="stroke:#64748B;stroke-width:1.2;"/><polygon fill="#64748B" points="545.57,476.9009,549.57,467.9009,545.57,471.9009,541.57,467.9009,545.57,476.9009" style="stroke:#64748B;stroke-width:1.2;"/></g><!--link Client to Http--><g class="link" data-entity-1="ent0002" data-entity-2="ent0004" data-link-type="dependency" data-source-line="306" id="lnk21"><path d="M456.16,257.2909 C469.21,257.2909 480.57,257.2909 480.57,257.2909 C480.57,257.2909 480.57,304.3809 480.57,335.9009" fill="none" id="Client-to-Http" style="stroke:#64748B;stroke-width:1.2;"/><polygon fill="#64748B" points="480.57,341.9009,484.57,332.9009,480.57,336.9009,476.57,332.9009,480.57,341.9009" style="stroke:#64748B;stroke-width:1.2;"/><text fill="#475569" font-family="'Helvetica'" font-size="10" lengthAdjust="spacing" textLength="32.1143" x="487.57" y="278.6732">HTTPS</text><text fill="#475569" font-family="'Helvetica'" font-size="10" lengthAdjust="spacing" textLength="3.1787" x="519.6843" y="278.6732">&#160;</text><text fill="#475569" font-family="'Helvetica'" font-size="10" lengthAdjust="spacing" textLength="3.3691" x="522.863" y="278.6732">/</text><text fill="#475569" font-family="'Helvetica'" font-size="10" lengthAdjust="spacing" textLength="3.1787" x="526.2321" y="278.6732">&#160;</text><text fill="#475569" font-family="'Helvetica'" font-size="10" lengthAdjust="spacing" textLength="24.6484" x="529.4108" y="278.6732">JSON</text></g><!--link Persist to Db--><g class="link" data-entity-1="ent0006" data-entity-2="ent0009" data-link-type="dependency" data-source-line="309" id="lnk24"><path d="M579.2,500.2909 C602.68,500.2909 625.53,500.2909 625.53,500.2909 C625.53,500.2909 625.53,641.2909 625.53,641.2909 C625.53,641.2909 625.32,641.2909 633.18,641.2909" fill="none" id="Persist-to-Db" style="stroke:#64748B;stroke-width:1.2;"/><polygon fill="#64748B" points="639.18,641.2909,630.18,637.2909,634.18,641.2909,630.18,645.2909,639.18,641.2909" style="stroke:#64748B;stroke-width:1.2;"/><text fill="#475569" font-family="'Helvetica'" font-size="10" lengthAdjust="spacing" textLength="19.79" x="599.53" y="545.7232">SQL</text></g><!--link Persist to Redis--><g class="link" data-entity-1="ent0006" data-entity-2="ent0010" data-link-type="dependency" data-source-line="310" id="lnk25"><path d="M528.9,522.4009 C528.9,548.2109 528.9,584.2409 528.9,610.6009" fill="none" id="Persist-to-Redis" style="stroke:#64748B;stroke-width:1.2;stroke-dasharray:7,7;"/><polygon fill="#64748B" points="528.9,616.6009,532.9,607.6009,528.9,611.6009,524.9,607.6009,528.9,616.6009" style="stroke:#64748B;stroke-width:1.2;"/><text fill="#475569" font-family="'Helvetica'" font-size="10" lengthAdjust="spacing" textLength="29.6143" x="432.9" y="548.7832">cache</text><text fill="#475569" font-family="'Helvetica'" font-size="10" lengthAdjust="spacing" textLength="3.1787" x="462.5143" y="548.7832">&#160;</text><text fill="#475569" font-family="'Helvetica'" font-size="10" lengthAdjust="spacing" textLength="3.3691" x="465.693" y="548.7832">/</text><text fill="#475569" font-family="'Helvetica'" font-size="10" lengthAdjust="spacing" textLength="3.1787" x="469.0621" y="548.7832">&#160;</text><text fill="#475569" font-family="'Helvetica'" font-size="10" lengthAdjust="spacing" textLength="43.6865" x="472.2408" y="548.7832">counters</text><text fill="#475569" font-family="'Helvetica'" font-size="10" lengthAdjust="spacing" textLength="3.1787" x="515.9273" y="548.7832">&#160;</text><text fill="#475569" font-family="'Helvetica'" font-size="10" lengthAdjust="spacing" textLength="3.3691" x="519.1061" y="548.7832">/</text><text fill="#475569" font-family="'Helvetica'" font-size="10" lengthAdjust="spacing" textLength="17.7881" x="455.6686" y="560.4238">TTL</text><text fill="#475569" font-family="'Helvetica'" font-size="10" lengthAdjust="spacing" textLength="3.1787" x="473.4566" y="560.4238">&#160;</text><text fill="#475569" font-family="'Helvetica'" font-size="10" lengthAdjust="spacing" textLength="23.0713" x="476.6354" y="560.4238">keys</text></g><!--link Mig to Db--><g class="link" data-entity-1="ent0011" data-entity-2="ent0009" data-link-type="dependency" data-source-line="311" id="lnk26"><path d="M681.9,522.4009 C681.9,547.1209 681.9,580.7209 681.9,607.1909" fill="none" id="Mig-to-Db" style="stroke:#64748B;stroke-width:1.2;stroke-dasharray:7,7;"/><polygon fill="#64748B" points="681.9,613.1909,685.9,604.1909,681.9,608.1909,677.9,604.1909,681.9,613.1909" style="stroke:#64748B;stroke-width:1.2;"/><text fill="#475569" font-family="'Helvetica'" font-size="10" lengthAdjust="spacing" textLength="53.4717" x="621.9" y="584.0732">migrations</text></g><!--link App to LogFile--><g class="link" data-entity-1="ent0005" data-entity-2="ent0020" data-link-type="dependency" data-source-line="313" id="lnk27"><path d="M467.02,432.2909 C340.26,432.2909 62.9,432.2909 62.9,432.2909 C62.9,432.2909 62.9,450.0809 62.9,469.4109" fill="none" id="App-to-LogFile" style="stroke:#64748B;stroke-width:1.2;stroke-dasharray:7,7;"/><polygon fill="#64748B" points="62.9,475.4109,66.9,466.4109,62.9,470.4109,58.9,466.4109,62.9,475.4109" style="stroke:#64748B;stroke-width:1.2;"/></g><!--link LogFile to FB--><g class="link" data-entity-1="ent0020" data-entity-2="ent0019" data-link-type="dependency" data-source-line="314" id="lnk28"><path d="M62.9,523.9809 C62.9,550.4009 62.9,586.3609 62.9,612.0909" fill="none" id="LogFile-to-FB" style="stroke:#64748B;stroke-width:1.2;stroke-dasharray:7,7;"/><polygon fill="#64748B" points="62.9,618.0909,66.9,609.0909,62.9,613.0909,58.9,609.0909,62.9,618.0909" style="stroke:#64748B;stroke-width:1.2;"/></g><!--link FB to ES--><g class="link" data-entity-1="ent0019" data-entity-2="ent0017" data-link-type="dependency" data-source-line="315" id="lnk29"><path d="M80.23,663.1409 C80.23,671.4709 80.23,674.9009 80.23,683.2309" fill="none" id="FB-to-ES" style="stroke:#64748B;stroke-width:1.2;"/><polygon fill="#64748B" points="80.23,689.2309,84.23,680.2309,80.23,684.2309,76.23,680.2309,80.23,689.2309" style="stroke:#64748B;stroke-width:1.2;"/></g><!--link Kib to ES--><g class="link" data-entity-1="ent0018" data-entity-2="ent0017" data-link-type="dependency" data-source-line="316" id="lnk30"><path d="M146.64,663.1409 C146.64,671.4709 146.64,674.9009 146.64,683.2309" fill="none" id="Kib-to-ES" style="stroke:#64748B;stroke-width:1.2;"/><polygon fill="#64748B" points="146.64,689.2309,150.64,680.2309,146.64,684.2309,142.64,680.2309,146.64,689.2309" style="stroke:#64748B;stroke-width:1.2;"/></g><!--link Graf to Prom--><g class="link" data-entity-1="ent0013" data-entity-2="ent0014" data-link-type="dependency" data-source-line="318" id="lnk31"><path d="M634.9,158.5209 C634.9,171.5609 634.9,181.9009 634.9,194.9709" fill="none" id="Graf-to-Prom" style="stroke:#64748B;stroke-width:1.2;"/><polygon fill="#64748B" points="634.9,200.9709,638.9,191.9709,634.9,195.9709,630.9,191.9709,634.9,200.9709" style="stroke:#64748B;stroke-width:1.2;"/></g><!--link Prom to Http--><g class="link" data-entity-1="ent0014" data-entity-2="ent0004" data-link-type="dependency" data-source-line="319" id="lnk32"><path d="M579.21,246.4909 C579.21,272.7609 579.21,309.8509 579.21,336.1009" fill="none" id="Prom-to-Http" style="stroke:#64748B;stroke-width:1.2;stroke-dasharray:7,7;"/><polygon fill="#64748B" points="579.21,342.1009,583.21,333.1009,579.21,337.1009,575.21,333.1009,579.21,342.1009" style="stroke:#64748B;stroke-width:1.2;"/><text fill="#475569" font-family="'Helvetica'" font-size="10" lengthAdjust="spacing" textLength="69.5996" x="586.21" y="285.5732">:8000/metrics</text></g><!--link Bbx to Http--><g class="link" data-entity-1="ent0015" data-entity-2="ent0004" data-link-type="dependency" data-source-line="320" id="lnk33"><path d="M528.9,158.6409 C528.9,202.4909 528.9,292.2009 528.9,335.9909" fill="none" id="Bbx-to-Http" style="stroke:#64748B;stroke-width:1.2;stroke-dasharray:7,7;"/><polygon fill="#64748B" points="528.9,341.9909,532.9,332.9909,528.9,336.9909,524.9,332.9909,528.9,341.9909" style="stroke:#64748B;stroke-width:1.2;"/><text fill="#475569" font-family="'Helvetica'" font-size="10" lengthAdjust="spacing" textLength="60.8447" x="461.9" y="241.5932">:8000/ready</text></g><!--link App to GMN34--><g class="link" data-entity-1="ent0005" data-entity-2="ent0035" data-link-type="association" data-source-line="323" id="lnk36"><path d="M473.06,454.0109 C473.06,474.0809 473.06,500.2909 473.06,500.2909 C473.06,500.2909 457.43,500.2909 435.32,500.2909" fill="none" id="App-GMN34" style="stroke:#64748B;stroke-width:1.2;stroke-dasharray:7,7;"/></g><?plantuml-src jLhhKXl95VwlfsXhNRNWW0GOZF6kjwAhxHW3AqGsMvijgpNJGXr6qxFTFO2IJLKU8k-I_tcKF4c-lemq6irWN2LK1OWvrpwtFjrplYLlD_YfVKikfrIoa5n4DDPNdqw9kk4n-T-__aqKZwyZHfH8PS28c10jKpqb4o59oEcrf3DoorLA8zMeVGj6mobNPC91WhylNl3uRopGuCndCmO2pQ8veHFD91dzKMagTJgBHYzUaF4Sn2CLI9verPJiciLC0lrpA0BLIEOZCcOG2arO748degTieO4MvACKDtm7UX9sowHbzgAH6EOaZKCZpZ1gua5pHBROVS0IJKOy3g8qPCtHDk7nb4ckbMMiw8oHX4PCQxO3NdgU24XAflCT4j6vIFKEeN58fYnAm7j60obKWmm54M0Bi3KG9I9cks8ooHGrh180Hy_EpZzV3dy-xOs0OYL6F3RhaR1McOMSSJiYlcMnvY9MR_0l8Rju5C4riC0DYnNP6ZrxVjRwrCDwu4_BMCJWbqGKtfkoUt9BevGf2mrP41clDomhGYwOt6KHcq62zNz2eR8YaasOP75WsStSkZbySCj3k3rRcY9gAj8ezBoq43PyOkCDM59f1dDC95DJClhcB_OpmgAnJF3WCJn8CrODlxIsa72S8W6LSavcZCRm-nionWB8MqAJ9E81DSRO8KBI-DeyXJSKXp2ek-DLmO8W8mHmciveJ9g41bh87SIjW8Fn_BUKWMKJ8fIYO3DE5I8fGlG16BDKWzupu_54qWPfXI7q3PpjhONlfimvKWeN-mZW53u5A6PtsP8-sK21cvxtXS3QHpjazFmo7Mkk8sR_EJMH7rvgM9dAq3vw3_DuXoAwTddiTJ6ESFQTYP1FvejqK0phr3nGrWLGQkvqX1TD9h1xB8W4KobcpCNLXO0fvsz8gplOtTixs2DRdKFoXsKr29PnjzqWLqbeJ3CMg0DwaUxGnYGAB00kHDCndcbnpV14VaUM2Kqk__nEaJiEuj6CtY0CaPUx4tu_Sb5_XsMRMhBP2WT-kvlxWDj-OpNrDYxWCfKJaxGmRkGS6T08wHSpAdVlfiYS7N9DKQLzOY2vnCpQVsppfb5xzhpzxlD5wrsFkCzRKl-cRpzr1xky6lHRdTu2zhhVwdVg6LtdeoUriFt-KV_4myxEXmMUxLxRmxfjGbPXnxskXxKwm_F14jRhzBlz8m_xyQftrSlHjI0lqxDpUdxLpS7s-YSBMEzi-67uyv9dl_zg0Nl_uTtxK_mC7QpRxhNwFGzxDpY_kiZfqkiV63eOFYixnkIHeE7k61Qt1aP9NwJMToRqWnkaqrka7rAJpn8XaRRQ6lvyqEqDFf_rheQ3rcacvEImzRBzkhw45upSQNUFUljv-E33fzRWvmn-SFJgfJUqWnSMkDyzx7Np_0lEw1mSxkzrSl22G_OEZryV7UVW1QSSTrwsl3Fz-bO3eNjoVBptoXhnGtpZYizYuoHJZloNmNHk3FJXxEDYTLPqV__ue5Nta4zNmrxNCpqyFZfwTP91MeF1-KyUykhm-F1rkxxvt3x0JhxGU_E9ZV2vSGMm_fv5jmp_qxgDBjl4D4zvdDuJZJAzUyT3e2awONeEfKnoIt6dc0GVLysLgQSMcQJAzKMeoEmUUnoPq1cFvj-P5WCTolcbWs4F5f2gJDU4Pew1rKAD7OFhvGjy6PkIZR9FBgdfBcPCInxi1cAMuB6fy7OPBSbfjDseBPe6j1OJcaQwBs9zPbgf_4hBqIxvtu6slryEDQLMadpKvF26PlDSYgeIja1peY3ig1Igvv41ZmMQcHAuKuLKATEISD0QdWteCgo5Bdivw1bQWpom79e9gDB4TH8vFYjSNF-HWvwK0hsGt28sdWyl6-JKjjGRvhnSZfhIKDoPv72V2KuhB0StlJSA5Sjg9UhuLEJW9jxHoIzYmpJfr1oBSZW93MxGEsRHKueZ1OuY7I7H25avhtEm2ng6Imq9UPM3nI9aYYKBs46U49tlpGhm89z22IVvpqcURHigNtkTR7hvTi4SD6Y26c8sDE9AqBANJnKpvpISZSZtPpyuyCZM0NFiGKjtZwPLJoae_Na0bGrzJ4nDp2-F2wWlQUBuc4PsB1cz0IhE7kWsVG-FWv3fbnMiUytG53fqYC12zfpepSVZOSEbftgoUBJi5-bBbXjR4MTeMemOfnAqcmURN-bHmnOJ57RJMX8wGxdFUTgUi5qD9fE8AkpXSnP5ucxxoInZr2aBIzDe5D5icvQpOgudAKND6RC07sBtR4NyEhP7Nq8YDj6Rj_OhSsA8DLfss1ObAM5F5s4NhXeLJKb8hhKlGI-OT6dKIfByZka-XNqpXvTdNDYrSWI3h72MnO4_iPIYLyJ3-iPO85bDiXAqekvLcdUoRU9ncY_H7wrvWQHG7l917PRuthj_NHEBlkRxV4wvSqnUH1-_IcMKYt3e9J8U4e58Oh94HdaGU_Hr6SKWNgcockEKlUQnYbKiq8j27bX59n9fM6KeUx9TG_uwC_reRg-g1DWJt1ho0m8U85Y6c-r9ds97EcxWU2Ga2iQJbSOkrNHC5IjrURTTXbdbxGUmSxRQRnokLeaeGcKnTscFhHDBWYzKYXnLBzPSpokInrsQh6C_a3kPX4rx_3MwBNCTgsmNgDXlgRrgXbeul_64nle9-p0ZU7NtSXzwXpFoZ1LHgvBCNgEi8J-GP0yGh2TP0Mrzn_Lxxigckx3Uus8iJ_3etMYDg6edpI4MjIzgtZQQKbaLk8iBhpAIwkWj8pEzc1JHuxUmZE01lpvPbfoWBcQfaPsWdYmjCacVtEiGsnddioD00y9a2S7QtKU-OIfUWKYcqCkeJ4gRuM1X6NWYUpMrHCUXpsCkRaLMJxP7vG5NF5Ul7QxRuhuK9_iSbYpqb4_m4p-oHLsZUdI6PPJl82EfI0bxaLr9ytKviKBxdj5mvHAeygOf8njaRmg_pYvBibLjlsoNhda9MT8YbZU8HQggRVsBb6ibk73cAK5VTS73PaH4LZRlrRePgeTw-4Ntk_4tONkcQJDlzfw-CXanfRQfBjkEfimoNuYn9TtgdbooCLlSiesvD3eov19rgcF34BMqbdoSbb-Hb4J62atfARPOb2t9fHawA5FkmT9XA7jhFY5h7VFcus_Vjf38DJr_-X3C95L4OSMvCICg3yFg85mbN8l3jVRG8bV4LjKB2qzLk9HSeLgxdCpJL5pjhBtoy3HTJcSY3ij2k2okYcGLU-SZI1-ynbcdgiY2nmYiI8FIO-CodcGfpTBycq-SWuP_IUGENq544LgB2_ejV_SBeEa0MUXUzjaP5wRqqrq2EvqgxtrMQfp7_VAbJzbxiUesTULA1bRvYbE2HN_46Q50KdciA-2LrVEdV3kt_x911YnLTfvdviUNt1YI7o7QthZCLXHbeipGKvAQNuWvd3lSs-Z5M9DxKH5CxVJNslYJ6sw2VR89gwtw--7mufByzp_aJvVdP-PlaoQyURjVtywCReSUPnGg13Inqjpye6NWsBdNerlrnRWK-9Z1mcoQK1a_sk53i3Nyna9hCIE1P27NzdMZOsGckxRgacavtpKl-PTQh7-iNbFpHex7TbXGqsl7PNLaREi17ewB7rkBB1dPEhGZQshR6kjACQ8IE-yIpTyiP_9SxbFK24QzBOY4S-nu6pC510QRW6sZLdkMnh-bmWnz9b84B3JkMxhWkPbLsAvbnhN_rfv1amLo1GTlzOpU7a8XqZmapQPzt6m-YfCrk-SJ2pEPgCZPP_k0-6cc6l6Q6HCPd4SnBdgYvcqi-VLKW-NlRzru8Fvw9_nkdhg1HDBq0ugvp-_aUpyczKE6kXnx147huaCUrKrmPQYvMKYWXbHJfSsaaaErWraPgXrh1DBOtwMiAE1clmmgrk9MLB26YuVUS80sC0tdLYqJQPr3LDjR5f43iXLaxxuGQJKj4lC2sEU56tl5YcerPudw1pWNOOVlTUESJiJXxbhDlsGdTIF0YbVgh_6Mdr4EMHA9kIbKsvRg0WZa7rZVBoRhJPBsOG6G_cgWxxLE3AmhPcQAJZ5voy7Fmbg91GrO8XI74jm_lt0M1SnGazrVfZmCMVnhAExYNK-5tqL0HlRFMYtqjyIadjqNMrMxuveRGgqFK2BCcW8QJDaEiHEJ4PznlKDmbfmbmhuNTmkqkBN5f07C4h7Pc0SM-8bVvmnsFZOBf6CUeTS0Us6pZqQE4Q3EKEyadT2OsiMQx-RPXIdogBQfjm7-DO_R4NYFnRrzs1xVczKjn9sAQvBmX9b2jIODGAH8SED4zh2hcMBDp6oOPTQxDCy_yd6c2RwQ9tqUiJ6ZsZxhjur0wb_8aFfPrrRqI5ohJ8Z1hzLSx627-i4vxGrnUq3JRW4rvqW0ZVUix_0zSvZ_Qvzrno2z_F5qyR3H-C5v0C-jjy0oGFveCvJL9CFXARbXSrM38ookPJ3ZrswYIjMiD0F8LFL_xJCihz-sSc4Dh3_xMZDUSJeQFvXV5jylxSthlRszfXlJKZLuPHqe6GtdDLVtVFw9YO_TdoGtum2f6_1LCKsmusZN7QBmcCGtaostdDrzXgNjWcEL801JzPcP4M65KcActecMD5RKPdLZMKJ_3m00?></g></svg>
