<?plantuml 1.2026.1?><svg xmlns="http://www.w3.org/2000/svg" xmlns:xlink="http://www.w3.org/1999/xlink" contentStyleType="text/css" data-diagram-type="DESCRIPTION" height="675px" preserveAspectRatio="none" style="width:692px;height:675px;background:#FFFFFF;" version="1.1" viewBox="0 0 692 675" width="692px" zoomAndPan="magnify"><title>ETR Study API &#8212; C4 Level 2 (containers)</title><defs/><g><g class="title" data-source-line="44"><text fill="#000000" font-family="'Arial'" font-size="14" font-weight="bold" lengthAdjust="spacing" textLength="318.1172" x="180.2338" y="26.9951">ETR Study API &#8212; C4 Level 2 (containers)</text></g><!--cluster Proc--><g class="cluster" data-qualified-name="Proc" data-source-line="50" id="ent0003"><rect fill="#F8FAFC" height="220.42" rx="3" ry="3" style="stroke:#2563EB;stroke-width:1;" width="144" x="428.73" y="258.5769"/><text fill="#000000" font-family="'Arial'" font-size="10" font-weight="bold" lengthAdjust="spacing" textLength="65.8447" x="467.8076" y="273.8591">API process</text><text fill="#000000" font-family="'Arial'" font-size="10" font-weight="bold" lengthAdjust="spacing" textLength="108.5205" x="446.4697" y="285.4997">(single deployable)</text></g><!--cluster Obs--><g class="cluster" data-qualified-name="Obs" data-source-line="62" id="ent0012"><rect fill="#F8FAFC" height="182.28" rx="3" ry="3" style="stroke:#2563EB;stroke-width:1;" width="194" x="447.73" y="52.2969"/><text fill="#000000" font-family="'Arial'" font-size="10" font-weight="bold" lengthAdjust="spacing" textLength="75.332" x="507.064" y="67.5791">Observability</text><text fill="#000000" font-family="'Arial'" font-size="10" font-weight="bold" lengthAdjust="spacing" textLength="55.542" x="516.959" y="79.2197">(optional)</text></g><!--cluster LogStack--><g class="cluster" data-qualified-name="LogStack" data-source-line="68" id="ent0016"><rect fill="#F8FAFC" height="166.78" rx="3" ry="3" style="stroke:#2563EB;stroke-width:1;" width="182" x="7.73" y="502.9969"/><text fill="#000000" font-family="'Arial'" font-size="10" font-weight="bold" lengthAdjust="spacing" textLength="69.165" x="64.1475" y="518.2791">Log pipeline</text><text fill="#000000" font-family="'Arial'" font-size="10" font-weight="bold" lengthAdjust="spacing" textLength="55.542" x="70.959" y="529.9197">(optional)</text></g><!--entity Http--><g class="entity" data-qualified-name="Proc.Http" data-source-line="51" id="ent0004"><rect fill="#F1F1F1" height="39.6406" rx="3" ry="3" style="stroke:#181818;stroke-width:0.5;" width="100.1338" x="450.66" y="308.5769"/><text fill="#000000" font-family="'Arial'" font-size="10" lengthAdjust="spacing" textLength="72.1338" x="464.66" y="331.8591">HTTP &#183; FastAPI</text></g><!--entity App--><g class="entity" data-qualified-name="Proc.App" data-source-line="52" id="ent0005"><rect fill="#F1F1F1" height="39.6406" rx="3" ry="3" style="stroke:#181818;stroke-width:0.5;" width="111.0127" x="445.22" y="365.2169"/><text fill="#000000" font-family="'Arial'" font-size="10" lengthAdjust="spacing" textLength="83.0127" x="459.22" y="388.4991">Domain services</text></g><!--entity Persist--><g class="entity" data-qualified-name="Proc.Persist" data-source-line="53" id="ent0006"><rect fill="#F1F1F1" height="39.6406" rx="3" ry="3" style="stroke:#181818;stroke-width:0.5;" width="89.8457" x="455.81" y="423.3569"/><text fill="#000000" font-family="'Arial'" font-size="10" lengthAdjust="spacing" textLength="61.8457" x="469.81" y="446.6391">Repositories</text></g><!--entity Graf--><g class="entity" data-qualified-name="Obs.Graf" data-source-line="63" id="ent0013"><rect fill="#F1F1F1" height="39.6406" rx="3" ry="3" style="stroke:#181818;stroke-width:0.5;" width="68.1025" x="557.68" y="102.2969"/><text fill="#000000" font-family="'Arial'" font-size="10" lengthAdjust="spacing" textLength="40.1025" x="571.68" y="125.5791">Grafana</text></g><!--entity Prom--><g class="entity" data-qualified-name="Obs.Prom" data-source-line="64" id="ent0014"><rect fill="#F1F1F1" height="39.6406" rx="3" ry="3" style="stroke:#181818;stroke-width:0.5;" width="88.1123" x="534.67" y="178.9369"/><text fill="#000000" font-family="'Arial'" font-size="10" lengthAdjust="spacing" textLength="60.1123" x="548.67" y="202.2191">Prometheus</text></g><!--entity Bbx--><g class="entity" data-qualified-name="Obs.Bbx" data-source-line="65" id="ent0015"><rect fill="#F1F1F1" height="39.6406" rx="3" ry="3" style="stroke:#181818;stroke-width:0.5;" width="73.4395" x="464.01" y="102.2969"/><text fill="#000000" font-family="'Arial'" font-size="10" lengthAdjust="spacing" textLength="45.4395" x="478.01" y="125.5791">Blackbox</text></g><!--entity ES--><g class="entity" data-qualified-name="LogStack.ES" data-source-line="69" id="ent0017"><rect fill="#F1F1F1" height="39.6406" rx="3" ry="3" style="stroke:#181818;stroke-width:0.5;" width="94.0693" x="51.7" y="614.1369"/><text fill="#000000" font-family="'Arial'" font-size="10" lengthAdjust="spacing" textLength="66.0693" x="65.7" y="637.4191">Elasticsearch</text></g><!--entity Kib--><g class="entity" data-qualified-name="LogStack.Kib" data-source-line="70" id="ent0018"><rect fill="#F1F1F1" height="39.6406" rx="3" ry="3" style="stroke:#181818;stroke-width:0.5;" width="62.2773" x="111.59" y="552.9969"/><text fill="#000000" font-family="'Arial'" font-size="10" lengthAdjust="spacing" textLength="34.2773" x="125.59" y="576.2791">Kibana</text></g><!--entity FB--><g class="entity" data-qualified-name="LogStack.FB" data-source-line="71" id="ent0019"><rect fill="#F1F1F1" height="39.6406" rx="3" ry="3" style="stroke:#181818;stroke-width:0.5;" width="68.0098" x="23.73" y="552.9969"/><text fill="#000000" font-family="'Arial'" font-size="10" lengthAdjust="spacing" textLength="40.0098" x="37.73" y="576.2791">Filebeat</text></g><!--entity Client--><g class="entity" data-qualified-name="Client" data-source-line="48" id="ent0002"><ellipse cx="402.7288" cy="167.4369" fill="#ECFDF5" rx="8" ry="8" style="stroke:#047857;stroke-width:0.5;"/><path d="M402.7288,175.4369 L402.7288,202.4369 M389.7288,183.4369 L415.7288,183.4369 M402.7288,202.4369 L389.7288,217.4369 M402.7288,202.4369 L415.7288,217.4369" fill="none" style="stroke:#047857;stroke-width:0.5;"/><text fill="#000000" font-family="'Arial'" font-size="10" lengthAdjust="spacing" textLength="50.0977" x="377.68" y="232.2191">Integrator</text></g><!--entity Db--><g class="entity" data-qualified-name="Db" data-source-line="58" id="ent0009"><path d="M599.87,558.4969 C599.87,548.4969 637.7274,548.4969 637.7274,548.4969 C637.7274,548.4969 675.5848,548.4969 675.5848,558.4969 L675.5848,587.1375 C675.5848,597.1375 637.7274,597.1375 637.7274,597.1375 C637.7274,597.1375 599.87,597.1375 599.87,587.1375 L599.87,558.4969" fill="#FFF7ED" style="stroke:#C2410C;stroke-width:0.5;"/><path d="M599.87,558.4969 C599.87,568.4969 637.7274,568.4969 637.7274,568.4969 C637.7274,568.4969 675.5848,568.4969 675.5848,558.4969" fill="none" style="stroke:#C2410C;stroke-width:0.5;"/><text fill="#000000" font-family="'Arial'" font-size="10" lengthAdjust="spacing" textLength="47.7148" x="613.87" y="585.7791">Database</text></g><!--entity Redis--><g class="entity" data-qualified-name="Redis" data-source-line="59" id="ent0010"><path d="M396.26,552.1769 L575.1926,552.1769 C580.1926,552.1769 580.1926,572.8175 580.1926,572.8175 C580.1926,572.8175 580.1926,593.4581 575.1926,593.4581 L396.26,593.4581 C391.26,593.4581 391.26,572.8175 391.26,572.8175 C391.26,572.8175 391.26,552.1769 396.26,552.1769" fill="#F1F1F1" style="stroke:#181818;stroke-width:0.5;"/><path d="M575.1926,552.1769 C570.1926,552.1769 570.1926,572.8175 570.1926,572.8175 C570.1926,593.4581 575.1926,593.4581 575.1926,593.4581" fill="none" style="stroke:#181818;stroke-width:0.5;"/><text fill="#000000" font-family="'Arial'" font-size="10" lengthAdjust="spacing" textLength="27.4365" x="400.26" y="570.4591">Redis</text><text fill="#000000" font-family="'Arial'" font-size="10" lengthAdjust="spacing" textLength="160.9326" x="400.26" y="582.0997">(cache, rate limit, idempotency)</text></g><!--entity Mig--><g class="entity" data-qualified-name="Mig" data-source-line="60" id="ent0011"><rect fill="#F8FAFC" height="39.6406" rx="3" ry="3" style="stroke:#2563EB;stroke-width:0.5;" width="68.1367" x="603.66" y="423.3569"/><text fill="#000000" font-family="'Arial'" font-size="10" lengthAdjust="spacing" textLength="40.1367" x="617.66" y="446.6391">Alembic</text></g><!--entity LogFile--><g class="entity" data-qualified-name="LogFile" data-source-line="74" id="ent0020"><rect fill="#F1F1F1" height="42.6406" rx="3" ry="3" style="stroke:#181818;stroke-width:0.5;" width="101.4619" x="7" y="421.8569"/><polygon fill="#F1F1F1" points="91.4619,426.8569,91.4619,440.8569,103.4619,440.8569,103.4619,432.8569,97.4619,426.8569,91.4619,426.8569" style="stroke:#181818;stroke-width:0.5;"/><line style="stroke:#181818;stroke-width:0.5;" x1="97.4619" x2="97.4619" y1="426.8569" y2="432.8569"/><line style="stroke:#181818;stroke-width:0.5;" x1="103.4619" x2="97.4619" y1="432.8569" y2="432.8569"/><text fill="#000000" font-family="'Arial'" font-size="10" lengthAdjust="spacing" textLength="63.4619" x="21" y="448.1391">NDJSON logs</text></g><g class="entity" data-qualified-name="GMN34" data-source-line="93" id="ent0035"><path d="M128.47,425.5369 L128.47,460.8181 A3,3 0 0 0 131.47,463.8181 L409.9827,463.8181 A3,3 0 0 0 412.9827,460.8181 L412.9827,432.5369 L402.9827,422.5369 L131.47,422.5369 A3,3 0 0 0 128.47,425.5369" fill="#FEFFDD" style="stroke:#181818;stroke-width:0.5;"/><path d="M402.9827,422.5369 L402.9827,431.0369 A1.5,1.5 0 0 0 404.4827,432.5369 L412.9827,432.5369 L402.9827,422.5369" fill="#FEFFDD" style="stroke:#181818;stroke-width:1;"/><text fill="#000000" font-family="'Arial'" font-size="10" lengthAdjust="spacing" textLength="187.3047" x="138.47" y="440.8191">Writes update snapshots and append</text><text fill="#000000" font-family="'Arial'" font-size="10" lengthAdjust="spacing" textLength="255.5127" x="138.47" y="452.4597">review_log / conspectus_events in one transaction.</text></g><!--link Http to App--><!--link Http to App--><g class="link" data-entity-1="ent0004" data-entity-2="ent0005" data-link-type="dependency" data-source-line="77" id="lnk22"><path d="M517.42,348.5269 C517.42,353.8669 517.42,353.6369 517.42,358.9669" fill="none" id="Http-to-App" style="stroke:#64748B;stroke-width:1.1;"/><polygon fill="#64748B" points="517.42,364.9669,521.42,355.9669,517.42,359.9669,513.42,355.9669,517.42,364.9669" style="stroke:#64748B;stroke-width:1.1;"/></g><!--link App to Persist--><!--link App to Persist--><g class="link" data-entity-1="ent0005" data-entity-2="ent0006" data-link-type="dependency" data-source-line="78" id="lnk23"><path d="M515.7,405.0469 C515.7,410.8269 515.7,411.1369 515.7,416.9369" fill="none" id="App-to-Persist" style="stroke:#64748B;stroke-width:1.1;"/><polygon fill="#64748B" points="515.7,422.9369,519.7,413.9369,515.7,417.9369,511.7,413.9369,515.7,422.9369" style="stroke:#64748B;stroke-width:1.1;"/></g><!--link Client to Http--><g class="link" data-entity-1="ent0002" data-entity-2="ent0004" data-link-type="dependency" data-source-line="76" id="lnk21"><path d="M432.27,228.7769 C445.14,228.7769 457.34,228.7769 457.34,228.7769 C457.34,228.7769 457.34,273.1269 457.34,302.2369" fill="none" id="Client-to-Http" style="stroke:#64748B;stroke-width:1.1;"/><polygon fill="#64748B" points="457.34,308.2369,461.34,299.2369,457.34,303.2369,453.34,299.2369,457.34,308.2369" style="stroke:#64748B;stroke-width:1.1;"/><text fill="#000000" font-family="'Arial'" font-size="9" lengthAdjust="spacing" textLength="28.9028" x="462.34" y="249.3309">HTTPS</text><text fill="#000000" font-family="'Arial'" font-size="9" lengthAdjust="spacing" textLength="2.8608" x="491.2428" y="249.3309">&#160;</text><text fill="#000000" font-family="'Arial'" font-size="9" lengthAdjust="spacing" textLength="3.0322" x="494.1037" y="249.3309">/</text><text fill="#000000" font-family="'Arial'" font-size="9" lengthAdjust="spacing" textLength="2.8608" x="497.1359" y="249.3309">&#160;</text><text fill="#000000" font-family="'Arial'" font-size="9" lengthAdjust="spacing" textLength="22.1836" x="499.9967" y="249.3309">JSON</text></g><!--link Persist to Db--><g class="link" data-entity-1="ent0006" data-entity-2="ent0009" data-link-type="dependency" data-source-line="79" id="lnk24"><path d="M545.91,443.7769 C568.06,443.7769 590.03,443.7769 590.03,443.7769 C590.03,443.7769 590.03,573.7769 590.03,573.7769 C590.03,573.7769 588.02,573.7769 593.69,573.7769" fill="none" id="Persist-to-Db" style="stroke:#64748B;stroke-width:1.1;"/><polygon fill="#64748B" points="599.69,573.7769,590.69,569.7769,594.69,573.7769,590.69,577.7769,599.69,573.7769" style="stroke:#64748B;stroke-width:1.1;"/><text fill="#000000" font-family="'Arial'" font-size="9" lengthAdjust="spacing" textLength="17.811" x="568.03" y="484.8909">SQL</text></g><!--link Persist to Redis--><g class="link" data-entity-1="ent0006" data-entity-2="ent0010" data-link-type="dependency" data-source-line="80" id="lnk25"><path d="M500.73,463.4269 C500.73,487.5069 500.73,521.4669 500.73,545.8469" fill="none" id="Persist-to-Redis" style="stroke:#64748B;stroke-width:1.1;stroke-dasharray:7,7;"/><polygon fill="#64748B" points="500.73,551.8469,504.73,542.8469,500.73,546.8469,496.73,542.8469,500.73,551.8469" style="stroke:#64748B;stroke-width:1.1;"/><text fill="#000000" font-family="'Arial'" font-size="9" lengthAdjust="spacing" textLength="26.6528" x="415.73" y="490.9909">cache</text><text fill="#000000" font-family="'Arial'" font-size="9" lengthAdjust="spacing" textLength="2.8608" x="442.3828" y="490.9909">&#160;</text><text fill="#000000" font-family="'Arial'" font-size="9" lengthAdjust="spacing" textLength="3.0322" x="445.2437" y="490.9909">/</text><text fill="#000000" font-family="'Arial'" font-size="9" lengthAdjust="spacing" textLength="2.8608" x="448.2759" y="490.9909">&#160;</text><text fill="#000000" font-family="'Arial'" font-size="9" lengthAdjust="spacing" textLength="39.3179" x="451.1367" y="490.9909">counters</text><text fill="#000000" font-family="'Arial'" font-size="9" lengthAdjust="spacing" textLength="2.8608" x="490.4546" y="490.9909">&#160;</text><text fill="#000000" font-family="'Arial'" font-size="9" lengthAdjust="spacing" textLength="3.0322" x="493.3154" y="490.9909">/</text><text fill="#000000" font-family="'Arial'" font-size="9" lengthAdjust="spacing" textLength="16.0093" x="436.2217" y="501.4674">TTL</text><text fill="#000000" font-family="'Arial'" font-size="9" lengthAdjust="spacing" textLength="2.8608" x="452.231" y="501.4674">&#160;</text><text fill="#000000" font-family="'Arial'" font-size="9" lengthAdjust="spacing" textLength="20.7642" x="455.0918" y="501.4674">keys</text></g><!--link Mig to Db--><g class="link" data-entity-1="ent0011" data-entity-2="ent0009" data-link-type="dependency" data-source-line="81" id="lnk26"><path d="M637.73,463.4269 C637.73,486.3669 637.73,517.7169 637.73,542.2769" fill="none" id="Mig-to-Db" style="stroke:#64748B;stroke-width:1.1;stroke-dasharray:7,7;"/><polygon fill="#64748B" points="637.73,548.2769,641.73,539.2769,637.73,543.2769,633.73,539.2769,637.73,548.2769" style="stroke:#64748B;stroke-width:1.1;"/><text fill="#000000" font-family="'Arial'" font-size="9" lengthAdjust="spacing" textLength="48.1245" x="584.73" y="519.2109">migrations</text></g><!--link App to LogFile--><g class="link" data-entity-1="ent0005" data-entity-2="ent0020" data-link-type="dependency" data-source-line="83" id="lnk27"><path d="M445.07,385.7769 C326.09,385.7769 57.73,385.7769 57.73,385.7769 C57.73,385.7769 57.73,399.2169 57.73,415.4769" fill="none" id="App-to-LogFile" style="stroke:#64748B;stroke-width:1.1;stroke-dasharray:7,7;"/><polygon fill="#64748B" points="57.73,421.4769,61.73,412.4769,57.73,416.4769,53.73,412.4769,57.73,421.4769" style="stroke:#64748B;stroke-width:1.1;"/></g><!--link LogFile to FB--><g class="link" data-entity-1="ent0020" data-entity-2="ent0019" data-link-type="dependency" data-source-line="84" id="lnk28"><path d="M57.73,464.8769 C57.73,489.3769 57.73,522.9369 57.73,546.7569" fill="none" id="LogFile-to-FB" style="stroke:#64748B;stroke-width:1.1;stroke-dasharray:7,7;"/><polygon fill="#64748B" points="57.73,552.7569,61.73,543.7569,57.73,547.7569,53.73,543.7569,57.73,552.7569" style="stroke:#64748B;stroke-width:1.1;"/></g><!--link FB to ES--><g class="link" data-entity-1="ent0019" data-entity-2="ent0017" data-link-type="dependency" data-source-line="85" id="lnk29"><path d="M71.72,592.8369 C71.72,599.5269 71.72,600.9769 71.72,607.6869" fill="none" id="FB-to-ES" style="stroke:#64748B;stroke-width:1.1;"/><polygon fill="#64748B" points="71.72,613.6869,75.72,604.6869,71.72,608.6869,67.72,604.6869,71.72,613.6869" style="stroke:#64748B;stroke-width:1.1;"/></g><!--link Kib to ES--><g class="link" data-entity-1="ent0018" data-entity-2="ent0017" data-link-type="dependency" data-source-line="86" id="lnk30"><path d="M128.68,592.8369 C128.68,599.5269 128.68,600.9769 128.68,607.6869" fill="none" id="Kib-to-ES" style="stroke:#64748B;stroke-width:1.1;"/><polygon fill="#64748B" points="128.68,613.6869,132.68,604.6869,128.68,608.6869,124.68,604.6869,128.68,613.6869" style="stroke:#64748B;stroke-width:1.1;"/></g><!--link Graf to Prom--><g class="link" data-entity-1="ent0013" data-entity-2="ent0014" data-link-type="dependency" data-source-line="88" id="lnk31"><path d="M590.23,142.2469 C590.23,153.4269 590.23,161.2869 590.23,172.4869" fill="none" id="Graf-to-Prom" style="stroke:#64748B;stroke-width:1.1;"/><polygon fill="#64748B" points="590.23,178.4869,594.23,169.4869,590.23,173.4869,586.23,169.4869,590.23,178.4869" style="stroke:#64748B;stroke-width:1.1;"/></g><!--link Prom to Http--><g class="link" data-entity-1="ent0014" data-entity-2="ent0004" data-link-type="dependency" data-source-line="89" id="lnk32"><path d="M542.74,219.0069 C542.74,243.3669 542.74,277.9869 542.74,302.2769" fill="none" id="Prom-to-Http" style="stroke:#64748B;stroke-width:1.1;stroke-dasharray:7,7;"/><polygon fill="#64748B" points="542.74,308.2769,546.74,299.2769,542.74,303.2769,538.74,299.2769,542.74,308.2769" style="stroke:#64748B;stroke-width:1.1;"/><text fill="#000000" font-family="'Arial'" font-size="9" lengthAdjust="spacing" textLength="62.6396" x="547.74" y="257.0009">:8000/metrics</text></g><!--link Bbx to Http--><g class="link" data-entity-1="ent0015" data-entity-2="ent0004" data-link-type="dependency" data-source-line="90" id="lnk33"><path d="M499.34,142.2669 C499.34,181.7069 499.34,262.6569 499.34,302.1569" fill="none" id="Bbx-to-Http" style="stroke:#64748B;stroke-width:1.1;stroke-dasharray:7,7;"/><polygon fill="#64748B" points="499.34,308.1569,503.34,299.1569,499.34,303.1569,495.34,299.1569,499.34,308.1569" style="stroke:#64748B;stroke-width:1.1;"/><text fill="#000000" font-family="'Arial'" font-size="9" lengthAdjust="spacing" textLength="54.7603" x="440.34" y="218.5709">:8000/ready</text></g><!--link App to GMN34--><g class="link" data-entity-1="ent0005" data-entity-2="ent0035" data-link-type="association" data-source-line="93" id="lnk36"><path d="M450.52,405.2469 C450.52,422.2469 450.52,443.7769 450.52,443.7769 C450.52,443.7769 435.08,443.7769 413.26,443.7769" fill="none" id="App-GMN34" style="stroke:#64748B;stroke-width:1.1;stroke-dasharray:7,7;"/></g><?plantuml-src XLRRKXj747tVh-WYbJ8uHX8O32PLgI10jcDi4wGa3uxBpEwsj1D6CvEPMSF6vQfyHFubx_cKV4dEp4hASadyWfRkdhwSlZwWSIKSbtIcX0u_l3ebVoarhKlz2nS1T34DxEXR7uGBzLnHtf0ldBJ1zntFMBCJWT-Nfl0zsz3KE7hfpAKaB_LCyUPKAYR7kcItaJsWIMFDp0bRDGTqwAHG_UUiFd2GXI2OA2vfBa9HiQVGM10LdKfTNvDdzm5kJ8qEdjQJXGtw-_S_I7mmilGqvfdXJQDLGwMJqz3BOXXME34dNudINC4TcWhbkSDHKZFiC1aNAjDX56PkZMOTng59_XT1n70w8XREYXd_jq39Kr6hC8BBhyMSQIt5ktQ_n5Z-nhGr0493WKGKV411pgf0h4qzgoYODbAgwXdJJ5Z_Y9GndZi2Iivb82LoLdtXdBaY0yoKi3qQMmLMAGMmdtkIKu0jbQ82KYMNNRIqATcpfUr1X-Y4lep4hRqEyKoKPKHrfnkIbVJq2S8u4fRusW9Okf9bg2Zb9cQiDFJmeJRXuKEguV_5XKUQ6Qy6hUJ51NwHZZg0DnVN5nV0eX8XrbR17hePOJNBQ6BaeMBo4MChhraj30fTKcsJSa-w1QJr21MKAtFbmQR0rs6Z1wNF9wZzUUt3oZiV7ACMQVpZCvzSWZz9zG4oDVWIViPmOWnI1oUrbmMg7ddyAjg1-RwAASpDTTH_lceMGcYsXXTjQnKLAYVY62e9psBCbqoneT0yY9xwi7ktrIuku7OB7K3w5pwO6YUxW3kLK3HX71vxv8242drZ0IQW0oxh0CSJpsreeCR13ug1b1m5PdDqWD_eLeSpjIvRTVGaHGMK1DgeH4Ce3W65gxa6JNdWW1wYNDLCeYYWYzQ5HIKM8aYuOaMeDhwcA-6GH42OXeU5dz87HWjqxHx6z1qP1OaldkpixUmFRpCdbImkTOncgxTrcxbgiQStwZTryD0u3AU5xgFXyUx9rZr2-9cbu1U2ewtHxgYhxNmv0cxeszvzylXaUA_O7OtxeyFHKKVqM0IH2t_BmUsThS6zKdVqZKPx9ySToTVex1kwxW2P93xhrs4HZBkXQB2pjx-xTqVajgQJez7nQFS6k0wJNw9Nml-ZrXNyh7zZ_hMEzVCAnO3K7Q8RDCNoOzUjPFOOyNufDMHCX5Gh55pTdUFeheLCgg3ztTXX2nEhaNg0B-olICevN35hZECfnmKJ-q3gs31sCJ3DDBKXOnd5Nkp7S6oS4HDZDnMccwALURGefb4xFHUTYOcvDF_n4yO0UTFktFvgXmjr9HeC67HR4wVZl7S_cCiHtatAq5mloO-p80C6pCdadCQXBXiwF7kHfjxH3fqcHxTflK1pnH7W_4QM1MFZHCvD20RhGCRDY6RFCX5BWjPU80r03Dzh93mTAOd4PDbYcs99me1r1eFU_wpNsoC2Yz8gquXSyKPwTGO1-fWHlNq-cPpHNt_IIFY0f-yYzta8DlAEpHnkfTD1Gb_Y7Th4EcThl8GJSa4_QySEUF4rRRwjP5coVeV3GMykNk7lRSRosQSiAnTzI6lBZaok7kSPSeK9k7REA174L0ZSDuyeROAqiXyHiefx8mwzfWqmoMQhgmAmA9xdiaZCLtBM0UnD7WCKkSI6Rw0U1GMyXMeLWTi2zSo9gT0Y1Hk_8mqmpXdLKIymmB-HF5JGZQsLYCFyEaQtCdTgPjYoDbNs7MjWZjCHbqoUA2H55fw5Awgax6GSwIzbllG4dv4omf6OimY9DXf6Wx56fwWPMdjz_DtupMjSEpE_D1Bbiwoj7ThS_APDsW75QXXZNyO7MPj8C6FsKkxmlKpOuZVHZdCy7Nz_kYBsUj-q6G0zPGig2qoS47TedoQJKxhancT8H99D2kOobZN0y5co5XbBLnU_YORmHiDa5sWW_kLd5hFI-XZp4Fya-KLe1_k3mQ2FT3aWcY4hTvcEHTba6SO5B_iFawQjtP-S31mFdZAMdTSu82iJJn0SIPWIkCyXvFY3vAltG3e5hBr50TR-FHezdjtefRZFiTkr5wchUnaUKZIO_GC0?></g></svg>
