<?plantuml 1.2026.1?><svg xmlns="http://www.w3.org/2000/svg" xmlns:xlink="http://www.w3.org/1999/xlink" contentStyleType="text/css" data-diagram-type="ACTIVITY" height="1029px" preserveAspectRatio="none" style="width:485px;height:1029px;background:#FFFFFF;" version="1.1" viewBox="0 0 485 1029" width="485px" zoomAndPan="magnify"><title>Study App - Development Process with Quality Helpers</title><defs/><g><g class="title" data-source-line="44"><text fill="#000000" font-family="'Arial'" font-size="14" font-weight="bold" lengthAdjust="spacing" textLength="434.7451" x="24" y="36.9951">Study App - Development Process with Quality Helpers</text></g><ellipse cx="217.8469" cy="65.2969" fill="#222222" rx="10" ry="10" style="stroke:#222222;stroke-width:1;"/><rect fill="#F1F1F1" height="51.2813" rx="3" ry="3" style="stroke:#181818;stroke-width:0.5;" width="135.5439" x="150.075" y="95.2969"/><text fill="#000000" font-family="'Arial'" font-size="10" lengthAdjust="spacing" textLength="107.5439" x="164.075" y="118.5791">1) Implement change</text><text fill="#000000" font-family="'Arial'" font-size="10" lengthAdjust="spacing" textLength="69.8291" x="164.075" y="130.2197">(code + docs)</text><rect fill="#E8F5E9" height="62.9219" rx="3" ry="3" style="stroke:#181818;stroke-width:0.5;" width="167.3262" x="134.1838" y="166.5781"/><text fill="#000000" font-family="'Arial'" font-size="10" lengthAdjust="spacing" textLength="99.5947" x="148.1838" y="189.8604">2) Helper command</text><text fill="#000000" font-family="'Arial'" font-size="10" lengthAdjust="spacing" textLength="79.9902" x="148.1838" y="201.501">`make docs-fix`</text><text fill="#000000" font-family="'Arial'" font-size="10" lengthAdjust="spacing" textLength="139.3262" x="148.1838" y="213.1416">(regenerates docs artifacts)</text><rect fill="#F1F1F1" height="51.2813" rx="3" ry="3" style="stroke:#181818;stroke-width:0.5;" width="209.1768" x="113.2585" y="249.5"/><text fill="#000000" font-family="'Arial'" font-size="10" lengthAdjust="spacing" textLength="102.6514" x="127.2585" y="272.7822">3) Local quality gate</text><text fill="#000000" font-family="'Arial'" font-size="10" lengthAdjust="spacing" textLength="181.1768" x="127.2585" y="284.4229">`make verify` + `make docs-check`</text><rect fill="#F1F1F1" height="51.2813" rx="3" ry="3" style="stroke:#181818;stroke-width:0.5;" width="209.1768" x="113.2585" y="372.0195"/><text fill="#000000" font-family="'Arial'" font-size="10" lengthAdjust="spacing" textLength="101.8457" x="127.2585" y="395.3018">Fix locally and rerun</text><text fill="#000000" font-family="'Arial'" font-size="10" lengthAdjust="spacing" textLength="181.1768" x="127.2585" y="406.9424">`make verify` + `make docs-check`</text><rect fill="#F1F1F1" height="51.2813" rx="3" ry="3" style="stroke:#181818;stroke-width:0.5;" width="212.5459" x="111.574" y="456.8008"/><text fill="#000000" font-family="'Arial'" font-size="10" lengthAdjust="spacing" textLength="133.8721" x="125.574" y="480.083">up-&gt; :3) Local quality gate</text><text fill="#000000" font-family="'Arial'" font-size="10" lengthAdjust="spacing" textLength="184.5459" x="125.574" y="491.7236">`make verify` + `make docs-check`;</text><polygon fill="#F1F1F1" points="163.1731,320.7813,272.5208,320.7813,284.5208,332.7813,272.5208,344.7813,163.1731,344.7813,151.1731,332.7813,163.1731,320.7813" style="stroke:#181818;stroke-width:0.5;"/><text fill="#000000" font-family="'Arial'" font-size="9" lengthAdjust="spacing" textLength="11.2104" x="225.8469" y="357.1353">no</text><text fill="#000000" font-family="'Arial'" font-size="10" lengthAdjust="spacing" textLength="101.3477" x="167.1731" y="336.2432">Local checks green?</text><text fill="#000000" font-family="'Arial'" font-size="9" lengthAdjust="spacing" textLength="15.5522" x="288.5208" y="326.6587">yes</text><polygon fill="#F1F1F1" points="217.8469,528.082,229.8469,540.082,217.8469,552.082,205.8469,540.082,217.8469,528.082" style="stroke:#181818;stroke-width:0.5;"/><rect fill="#F1F1F1" height="39.6406" rx="3" ry="3" style="stroke:#181818;stroke-width:0.5;" width="123.8936" x="155.9001" y="572.082"/><text fill="#000000" font-family="'Arial'" font-size="10" lengthAdjust="spacing" textLength="95.8936" x="169.9001" y="595.3643">4) Open/Update PR</text><rect fill="#E8F5E9" height="51.2813" rx="3" ry="3" style="stroke:#181818;stroke-width:0.5;" width="243.7031" x="95.9954" y="631.7227"/><text fill="#000000" font-family="'Arial'" font-size="10" lengthAdjust="spacing" textLength="58.4668" x="109.9954" y="655.0049">Helper in CI</text><text fill="#000000" font-family="'Arial'" font-size="10" lengthAdjust="spacing" textLength="215.7031" x="109.9954" y="666.6455">`.github/workflows/pr-template-check.yml`</text><rect fill="#F1F1F1" height="51.2813" rx="3" ry="3" style="stroke:#181818;stroke-width:0.5;" width="131.7354" x="151.9792" y="703.0039"/><text fill="#000000" font-family="'Arial'" font-size="10" lengthAdjust="spacing" textLength="86.4893" x="165.9792" y="726.2861">5) CI quality gate</text><text fill="#000000" font-family="'Arial'" font-size="10" lengthAdjust="spacing" textLength="103.7354" x="165.9792" y="737.9268">(full pipeline checks)</text><polygon fill="#F1F1F1" points="190.0872,774.2852,245.6067,774.2852,257.6067,786.2852,245.6067,798.2852,190.0872,798.2852,178.0872,786.2852,190.0872,774.2852" style="stroke:#181818;stroke-width:0.5;"/><text fill="#000000" font-family="'Arial'" font-size="10" lengthAdjust="spacing" textLength="47.5195" x="194.0872" y="789.7471">CI green?</text><text fill="#000000" font-family="'Arial'" font-size="9" lengthAdjust="spacing" textLength="15.5522" x="158.5349" y="780.1626">yes</text><text fill="#000000" font-family="'Arial'" font-size="9" lengthAdjust="spacing" textLength="11.2104" x="261.6067" y="780.1626">no</text><rect fill="#F1F1F1" height="39.6406" rx="3" ry="3" style="stroke:#181818;stroke-width:0.5;" width="135.2461" x="47.5752" y="808.2852"/><text fill="#000000" font-family="'Arial'" font-size="10" lengthAdjust="spacing" textLength="107.2461" x="61.5752" y="831.5674">6) Review and merge</text><rect fill="#F1F1F1" height="62.9219" rx="3" ry="3" style="stroke:#181818;stroke-width:0.5;" width="235.3486" x="202.8213" y="808.2852"/><text fill="#000000" font-family="'Arial'" font-size="10" lengthAdjust="spacing" textLength="68.0518" x="216.8213" y="831.5674">Fix in branch;</text><text fill="#000000" font-family="'Arial'" font-size="10" lengthAdjust="spacing" textLength="207.3486" x="216.8213" y="843.208">Run `make verify` + `make docs-check`;</text><text fill="#000000" font-family="'Arial'" font-size="10" lengthAdjust="spacing" textLength="67.5391" x="216.8213" y="854.8486">Push updates</text><rect fill="#F1F1F1" height="51.2813" rx="3" ry="3" style="stroke:#181818;stroke-width:0.5;" width="145.71" x="247.6406" y="891.207"/><text fill="#000000" font-family="'Arial'" font-size="10" lengthAdjust="spacing" textLength="117.71" x="261.6406" y="914.4893">up-&gt; :5) CI quality gate</text><text fill="#000000" font-family="'Arial'" font-size="10" lengthAdjust="spacing" textLength="107.1045" x="261.6406" y="926.1299">(full pipeline checks);</text><polygon fill="#F1F1F1" points="217.8469,952.4883,229.8469,964.4883,217.8469,976.4883,205.8469,964.4883,217.8469,952.4883" style="stroke:#181818;stroke-width:0.5;"/><ellipse cx="217.8469" cy="1007.4883" fill="none" rx="11" ry="11" style="stroke:#222222;stroke-width:1;"/><ellipse cx="217.8469" cy="1007.4883" fill="#222222" rx="6" ry="6" style="stroke:#222222;stroke-width:1;"/><line style="stroke:#64748B;stroke-width:1.1;" x1="217.8469" x2="217.8469" y1="75.2969" y2="95.2969"/><polygon fill="#64748B" points="213.8469,85.2969,217.8469,95.2969,221.8469,85.2969,217.8469,89.2969" style="stroke:#64748B;stroke-width:1;"/><line style="stroke:#64748B;stroke-width:1.1;" x1="217.8469" x2="217.8469" y1="146.5781" y2="166.5781"/><polygon fill="#64748B" points="213.8469,156.5781,217.8469,166.5781,221.8469,156.5781,217.8469,160.5781" style="stroke:#64748B;stroke-width:1;"/><line style="stroke:#64748B;stroke-width:1.1;" x1="217.8469" x2="217.8469" y1="229.5" y2="249.5"/><polygon fill="#64748B" points="213.8469,239.5,217.8469,249.5,221.8469,239.5,217.8469,243.5" style="stroke:#64748B;stroke-width:1;"/><line style="stroke:#64748B;stroke-width:1.1;" x1="217.8469" x2="217.8469" y1="423.3008" y2="456.8008"/><polygon fill="#64748B" points="213.8469,446.8008,217.8469,456.8008,221.8469,446.8008,217.8469,450.8008" style="stroke:#64748B;stroke-width:1;"/><line style="stroke:#64748B;stroke-width:1.1;" x1="217.8469" x2="217.8469" y1="344.7813" y2="372.0195"/><polygon fill="#64748B" points="213.8469,362.0195,217.8469,372.0195,221.8469,362.0195,217.8469,366.0195" style="stroke:#64748B;stroke-width:1;"/><line style="stroke:#64748B;stroke-width:1.1;" x1="284.5208" x2="334.1199" y1="332.7813" y2="332.7813"/><polygon fill="#64748B" points="330.1199,433.3008,334.1199,443.3008,338.1199,433.3008,334.1199,437.3008" style="stroke:#64748B;stroke-width:1.1;"/><line style="stroke:#64748B;stroke-width:1.1;" x1="334.1199" x2="334.1199" y1="332.7813" y2="540.082"/><line style="stroke:#64748B;stroke-width:1.1;" x1="334.1199" x2="229.8469" y1="540.082" y2="540.082"/><polygon fill="#64748B" points="239.8469,536.082,229.8469,540.082,239.8469,544.082,235.8469,540.082" style="stroke:#64748B;stroke-width:1;"/><line style="stroke:#64748B;stroke-width:1.1;" x1="217.8469" x2="217.8469" y1="508.082" y2="528.082"/><polygon fill="#64748B" points="213.8469,518.082,217.8469,528.082,221.8469,518.082,217.8469,522.082" style="stroke:#64748B;stroke-width:1;"/><line style="stroke:#64748B;stroke-width:1.1;" x1="217.8469" x2="217.8469" y1="300.7813" y2="320.7813"/><polygon fill="#64748B" points="213.8469,310.7813,217.8469,320.7813,221.8469,310.7813,217.8469,314.7813" style="stroke:#64748B;stroke-width:1;"/><line style="stroke:#64748B;stroke-width:1.1;" x1="217.8469" x2="217.8469" y1="552.082" y2="572.082"/><polygon fill="#64748B" points="213.8469,562.082,217.8469,572.082,221.8469,562.082,217.8469,566.082" style="stroke:#64748B;stroke-width:1;"/><line style="stroke:#64748B;stroke-width:1.1;" x1="217.8469" x2="217.8469" y1="611.7227" y2="631.7227"/><polygon fill="#64748B" points="213.8469,621.7227,217.8469,631.7227,221.8469,621.7227,217.8469,625.7227" style="stroke:#64748B;stroke-width:1;"/><line style="stroke:#64748B;stroke-width:1.1;" x1="217.8469" x2="217.8469" y1="683.0039" y2="703.0039"/><polygon fill="#64748B" points="213.8469,693.0039,217.8469,703.0039,221.8469,693.0039,217.8469,697.0039" style="stroke:#64748B;stroke-width:1;"/><line style="stroke:#64748B;stroke-width:1.1;" x1="320.4956" x2="320.4956" y1="871.207" y2="891.207"/><polygon fill="#64748B" points="316.4956,881.207,320.4956,891.207,324.4956,881.207,320.4956,885.207" style="stroke:#64748B;stroke-width:1;"/><line style="stroke:#64748B;stroke-width:1.1;" x1="178.0872" x2="115.1982" y1="786.2852" y2="786.2852"/><line style="stroke:#64748B;stroke-width:1.1;" x1="115.1982" x2="115.1982" y1="786.2852" y2="808.2852"/><polygon fill="#64748B" points="111.1982,798.2852,115.1982,808.2852,119.1982,798.2852,115.1982,802.2852" style="stroke:#64748B;stroke-width:1;"/><line style="stroke:#64748B;stroke-width:1.1;" x1="257.6067" x2="320.4956" y1="786.2852" y2="786.2852"/><line style="stroke:#64748B;stroke-width:1.1;" x1="320.4956" x2="320.4956" y1="786.2852" y2="808.2852"/><polygon fill="#64748B" points="316.4956,798.2852,320.4956,808.2852,324.4956,798.2852,320.4956,802.2852" style="stroke:#64748B;stroke-width:1;"/><line style="stroke:#64748B;stroke-width:1.1;" x1="115.1982" x2="115.1982" y1="847.9258" y2="964.4883"/><line style="stroke:#64748B;stroke-width:1.1;" x1="115.1982" x2="205.8469" y1="964.4883" y2="964.4883"/><polygon fill="#64748B" points="195.8469,960.4883,205.8469,964.4883,195.8469,968.4883,199.8469,964.4883" style="stroke:#64748B;stroke-width:1;"/><line style="stroke:#64748B;stroke-width:1.1;" x1="320.4956" x2="320.4956" y1="942.4883" y2="964.4883"/><line style="stroke:#64748B;stroke-width:1.1;" x1="320.4956" x2="229.8469" y1="964.4883" y2="964.4883"/><polygon fill="#64748B" points="239.8469,960.4883,229.8469,964.4883,239.8469,968.4883,235.8469,964.4883" style="stroke:#64748B;stroke-width:1;"/><line style="stroke:#64748B;stroke-width:1.1;" x1="217.8469" x2="217.8469" y1="754.2852" y2="774.2852"/><polygon fill="#64748B" points="213.8469,764.2852,217.8469,774.2852,221.8469,764.2852,217.8469,768.2852" style="stroke:#64748B;stroke-width:1;"/><line style="stroke:#64748B;stroke-width:1.1;" x1="217.8469" x2="217.8469" y1="976.4883" y2="996.4883"/><polygon fill="#64748B" points="213.8469,986.4883,217.8469,996.4883,221.8469,986.4883,217.8469,990.4883" style="stroke:#64748B;stroke-width:1;"/><?plantuml-src fLRRRXit47tNLmmQ5F6wjMGvbkt8G5lVr0HDKjTo-cIWedPdjQou94DoBMsB0ls8Vc6_f8ShoLbVshJeamJkS2vdvfpXSneNmd56bqheyFxj6_9pgMbBwfyv3JWNUM17t_WWNAXAHTEQVEga3RxdUCQQdGZyKsPItxKrvSRHTyxC9NcfPuftSgcO7EkCNT9vJjUrDJCdR54FwSH9eNglMDroaAaWX4ZdL8gG5kmfr1Q7Yjv8NIt9ixj56hdHmTDM4o6XFt__WyIjaPcdCSyCxnYjQigSp4Et4ykmmecIV24oiq0wb0lbkVL5ISs8msHSA4phGsfAQpJhC0vratyQH2odPMAHh9Zntnjad8jAXH5IVYTAfi-QUZzxsc8iVs7gxmAXKu56f3oa86T58DQccXKKpAfIAgePqqnO_oKfOpot39GiPI0bfgnwmZcp80FCbB1T6bk5JvaKmBxq97E0BPMY55OPPssqjCdOiwMztTQX4teU3_k7hSDBaMKHrVrsILRIomEKSIOiyT82M5h8B1JKz2PsB3EqlQrDsDwc2lbF9XvjPjpQNLbE9lX5Ewg0RwLOJYR0eX0XpbRA7huPPTMRQcBbeM3o4MChbwpM0ONEgBADSqzw1SWg8qpGL9c5nsSAl0n95qvVNMFsoyg7k-nyS8nPfF6Ft_ec9UJJk1wYKxkV8yzOJgn1wk2azZB5rAEFNyGu2DzJiOLJiup-h-x8GYZDLiXYHQsqmEH474CXaLciUSuK2GNoe7hg8UvZgaqcI7i57K3w21z2ZPkuWBiPeHZ2E5psw0495Nh60an01ros08udBcseuSOX3ug5P1mDPYKOu9FsT3XJwMpbZWwQge2I08qo449n21XSpHNEb0SEu11DLSKaqXI-Q4jOJ68gWaGgLeGYEQQ5S6WY86p4mo9FwGE30ksu9x5zPqR1ujd1_k7-qUd3ZzU5JESwLjFlzXz-lAFOotlpsp3ur3Y8qzhtsUdvuAB_X15-PatnQyDHVpGOjRrTRIJWdh-zmS6BYzCdpHvvF1gTZCvQfkSYYAdm3nBSs-_lFcdroDzeT7Xnth9y1sRVy_K8oCRYatcTfC6uUuvszm-F1eUFJ1vwkZWRdOy6zy1rK7u9heH_Hgrj-CdynloXYlFp5iE0rfs03PhY-B5hJp9xIBpVM9qo5A6P5GgkQkiusBMsQIReQ10PjWvn9wb3_CF-YaTJ3Wjc3JdEEIwOo0Ef8s7iMZ1Dtj2GiOmY5tkn71irujhO7GLrKtGN7XI56gtKSyrCAEOc_A-_GGR8czNExTtjSA4MeeR0W6rrLCUo-pIO6mblD-NKB3V7Bpf11WZCE5HPJIVMqWwTn_oCZT90bywaaN6DEFvG2IoPch3G8uaxdUR9q1ds4tfTMiNDZKRi-4PlfHWr01F5B3dkT9vT78q65o-7UydwVbp19JJqHZ_GGzpzA8Q-EQTOK2xIqBWQlaZeZObFXm_hZ6QmtFZ1wf1vFK7ebbyyEDBv17Un6BTMTviZJpE7LdwTH0pnAAhP9vtOjjYKf4Cq7CabzZ0k0EUuS1oxIl-hM4GxbTtvYlv7kdXLoHm5xoVqlMNTUs-pk5ukhuxly5o32La_UmsVtHawLKrx2-FcULo1FUjs0kHVuUBARxSkLOHYE4Xmvq5IMtc5LuELjfdiDKZ96ZXOFm4NG3f887ktaXSDH2Mx6Hy_XX4vJl7EI8lZ6trLQVeq03Vwil85jdWisxSW_I-fhq7qmTZENm00?></g></svg>
