<?plantuml 1.2026.1?><svg xmlns="http://www.w3.org/2000/svg" xmlns:xlink="http://www.w3.org/1999/xlink" contentStyleType="text/css" data-diagram-type="DESCRIPTION" height="551px" preserveAspectRatio="none" style="width:919px;height:551px;background:#FFFFFF;" version="1.1" viewBox="0 0 919 551" width="919px" zoomAndPan="magnify"><title>Makefile composite targets (dependency order)</title><defs/><g><g class="title" data-source-line="44"><text fill="#000000" font-family="'Arial'" font-size="14" font-weight="bold" lengthAdjust="spacing" textLength="377.5625" x="263.7188" y="26.9951">Makefile composite targets (dependency order)</text></g><!--cluster make fix--><g class="cluster" data-qualified-name="make fix" data-source-line="48" id="ent0002"><rect fill="#F8FAFC" height="93.64" rx="3" ry="3" style="stroke:#2563EB;stroke-width:1;" width="276" x="7" y="52.2969"/><text fill="#000000" font-family="'Arial'" font-size="10" font-weight="bold" lengthAdjust="spacing" textLength="48.3105" x="120.8447" y="67.5791">make fix</text></g><!--cluster make verify--><g class="cluster" data-qualified-name="make verify" data-source-line="56" id="ent0008"><rect fill="#F8FAFC" height="421.84" rx="3" ry="3" style="stroke:#2563EB;stroke-width:1;" width="134" x="307" y="52.2969"/><text fill="#000000" font-family="'Arial'" font-size="10" font-weight="bold" lengthAdjust="spacing" textLength="66.6113" x="340.6943" y="67.5791">make verify</text></g><!--cluster make verify-ci--><g class="cluster" data-qualified-name="make verify-ci" data-source-line="70" id="ent0020"><rect fill="#F8FAFC" height="493.48" rx="3" ry="3" style="stroke:#2563EB;stroke-width:1;" width="134" x="465" y="52.2969"/><text fill="#000000" font-family="'Arial'" font-size="10" font-weight="bold" lengthAdjust="spacing" textLength="80.1172" x="491.9414" y="67.5791">make verify-ci</text></g><!--cluster make release-check--><g class="cluster" data-qualified-name="make release-check" data-source-line="86" id="ent0034"><rect fill="#F8FAFC" height="236.92" rx="3" ry="3" style="stroke:#2563EB;stroke-width:1;" width="136" x="623" y="52.2969"/><text fill="#000000" font-family="'Arial'" font-size="10" font-weight="bold" lengthAdjust="spacing" textLength="112.0459" x="634.9771" y="67.5791">make release-check</text></g><!--cluster make release--><g class="cluster" data-qualified-name="make release" data-source-line="94" id="ent0040"><rect fill="#F8FAFC" height="165.28" rx="3" ry="3" style="stroke:#2563EB;stroke-width:1;" width="130" x="783" y="52.2969"/><text fill="#000000" font-family="'Arial'" font-size="10" font-weight="bold" lengthAdjust="spacing" textLength="75.4883" x="810.2559" y="67.5791">make release</text></g><!--entity f1--><g class="entity" data-qualified-name="make fix.f1" data-source-line="49" id="ent0003"><rect fill="#F8FAFC" height="39.6406" rx="3" ry="3" style="stroke:#2563EB;stroke-width:0.5;" width="77.3652" x="23.32" y="90.2969"/><text fill="#000000" font-family="'Arial'" font-size="10" lengthAdjust="spacing" textLength="49.3652" x="37.32" y="113.5791">format-fix</text></g><!--entity f2--><g class="entity" data-qualified-name="make fix.f2" data-source-line="50" id="ent0004"><rect fill="#F8FAFC" height="39.6406" rx="3" ry="3" style="stroke:#2563EB;stroke-width:0.5;" width="59.6406" x="121.18" y="90.2969"/><text fill="#000000" font-family="'Arial'" font-size="10" lengthAdjust="spacing" textLength="31.6406" x="135.18" y="113.5791">lint-fix</text></g><!--entity f3--><g class="entity" data-qualified-name="make fix.f3" data-source-line="51" id="ent0005"><rect fill="#F8FAFC" height="39.6406" rx="3" ry="3" style="stroke:#2563EB;stroke-width:0.5;" width="66.999" x="200.5" y="90.2969"/><text fill="#000000" font-family="'Arial'" font-size="10" lengthAdjust="spacing" textLength="38.999" x="214.5" y="113.5791">docs-fix</text></g><!--entity m1--><g class="entity" data-qualified-name="make verify.m1" data-source-line="57" id="ent0009"><rect fill="#F8FAFC" height="39.6406" rx="3" ry="3" style="stroke:#2563EB;stroke-width:0.5;" width="76.7012" x="335.65" y="90.2969"/><text fill="#000000" font-family="'Arial'" font-size="10" lengthAdjust="spacing" textLength="48.7012" x="349.65" y="113.5791">lint-check</text></g><!--entity m2--><g class="entity" data-qualified-name="make verify.m2" data-source-line="58" id="ent0010"><rect fill="#F8FAFC" height="39.6406" rx="3" ry="3" style="stroke:#2563EB;stroke-width:0.5;" width="83.2246" x="332.39" y="161.9369"/><text fill="#000000" font-family="'Arial'" font-size="10" lengthAdjust="spacing" textLength="55.2246" x="346.39" y="185.2191">type-check</text></g><!--entity m3--><g class="entity" data-qualified-name="make verify.m3" data-source-line="59" id="ent0011"><rect fill="#F8FAFC" height="39.6406" rx="3" ry="3" style="stroke:#2563EB;stroke-width:0.5;" width="101.0957" x="323.45" y="233.5769"/><text fill="#000000" font-family="'Arial'" font-size="10" lengthAdjust="spacing" textLength="73.0957" x="337.45" y="256.8591">openapi-check</text></g><!--entity m4--><g class="entity" data-qualified-name="make verify.m4" data-source-line="60" id="ent0012"><rect fill="#F8FAFC" height="39.6406" rx="3" ry="3" style="stroke:#2563EB;stroke-width:0.5;" width="92.3457" x="327.83" y="305.2169"/><text fill="#000000" font-family="'Arial'" font-size="10" lengthAdjust="spacing" textLength="64.3457" x="341.83" y="328.4991">contract-test</text></g><!--entity m5--><g class="entity" data-qualified-name="make verify.m5" data-source-line="61" id="ent0013"><rect fill="#F8FAFC" height="39.6406" rx="3" ry="3" style="stroke:#2563EB;stroke-width:0.5;" width="47.2041" x="350.4" y="361.8569"/><text fill="#000000" font-family="'Arial'" font-size="10" lengthAdjust="spacing" textLength="19.2041" x="364.4" y="385.1391">test</text></g><!--entity m6--><g class="entity" data-qualified-name="make verify.m6" data-source-line="62" id="ent0014"><rect fill="#F8FAFC" height="39.6406" rx="3" ry="3" style="stroke:#2563EB;stroke-width:0.5;" width="66.999" x="340.5" y="418.4969"/><text fill="#000000" font-family="'Arial'" font-size="10" lengthAdjust="spacing" textLength="38.999" x="354.5" y="441.7791">docs-fix</text></g><!--entity c0--><g class="entity" data-qualified-name="make verify-ci.c0" data-source-line="71" id="ent0021"><rect fill="#F8FAFC" height="39.6406" rx="3" ry="3" style="stroke:#2563EB;stroke-width:0.5;" width="81.1787" x="491.41" y="90.2969"/><text fill="#000000" font-family="'Arial'" font-size="10" lengthAdjust="spacing" textLength="53.1787" x="505.41" y="113.5791">deps-audit</text></g><!--entity c1--><g class="entity" data-qualified-name="make verify-ci.c1" data-source-line="72" id="ent0022"><rect fill="#F8FAFC" height="39.6406" rx="3" ry="3" style="stroke:#2563EB;stroke-width:0.5;" width="76.7012" x="493.65" y="161.9369"/><text fill="#000000" font-family="'Arial'" font-size="10" lengthAdjust="spacing" textLength="48.7012" x="507.65" y="185.2191">lint-check</text></g><!--entity c2--><g class="entity" data-qualified-name="make verify-ci.c2" data-source-line="73" id="ent0023"><rect fill="#F8FAFC" height="39.6406" rx="3" ry="3" style="stroke:#2563EB;stroke-width:0.5;" width="83.2246" x="490.39" y="233.5769"/><text fill="#000000" font-family="'Arial'" font-size="10" lengthAdjust="spacing" textLength="55.2246" x="504.39" y="256.8591">type-check</text></g><!--entity c3--><g class="entity" data-qualified-name="make verify-ci.c3" data-source-line="74" id="ent0024"><rect fill="#F8FAFC" height="39.6406" rx="3" ry="3" style="stroke:#2563EB;stroke-width:0.5;" width="101.0957" x="481.45" y="305.2169"/><text fill="#000000" font-family="'Arial'" font-size="10" lengthAdjust="spacing" textLength="73.0957" x="495.45" y="328.4991">openapi-check</text></g><!--entity c4--><g class="entity" data-qualified-name="make verify-ci.c4" data-source-line="75" id="ent0025"><rect fill="#F8FAFC" height="39.6406" rx="3" ry="3" style="stroke:#2563EB;stroke-width:0.5;" width="92.3457" x="485.83" y="361.8569"/><text fill="#000000" font-family="'Arial'" font-size="10" lengthAdjust="spacing" textLength="64.3457" x="499.83" y="385.1391">contract-test</text></g><!--entity c5--><g class="entity" data-qualified-name="make verify-ci.c5" data-source-line="76" id="ent0026"><rect fill="#F8FAFC" height="39.6406" rx="3" ry="3" style="stroke:#2563EB;stroke-width:0.5;" width="47.2041" x="508.4" y="418.4969"/><text fill="#000000" font-family="'Arial'" font-size="10" lengthAdjust="spacing" textLength="19.2041" x="522.4" y="441.7791">test</text></g><!--entity c6--><g class="entity" data-qualified-name="make verify-ci.c6" data-source-line="77" id="ent0027"><rect fill="#F8FAFC" height="39.6406" rx="3" ry="3" style="stroke:#2563EB;stroke-width:0.5;" width="84.0596" x="489.97" y="490.1369"/><text fill="#000000" font-family="'Arial'" font-size="10" lengthAdjust="spacing" textLength="56.0596" x="503.97" y="513.4191">docs-check</text></g><!--entity rc1--><g class="entity" data-qualified-name="make release-check.rc1" data-source-line="87" id="ent0035"><rect fill="#F8FAFC" height="39.6406" rx="3" ry="3" style="stroke:#2563EB;stroke-width:0.5;" width="79.2939" x="651.35" y="90.2969"/><text fill="#000000" font-family="'Arial'" font-size="10" lengthAdjust="spacing" textLength="51.2939" x="665.35" y="113.5791">env-check</text></g><!--entity rc2--><g class="entity" data-qualified-name="make release-check.rc2" data-source-line="88" id="ent0036"><rect fill="#F8FAFC" height="39.6406" rx="3" ry="3" style="stroke:#2563EB;stroke-width:0.5;" width="81.1787" x="650.41" y="161.9369"/><text fill="#000000" font-family="'Arial'" font-size="10" lengthAdjust="spacing" textLength="53.1787" x="664.41" y="185.2191">deps-audit</text></g><!--entity rc3--><g class="entity" data-qualified-name="make release-check.rc3" data-source-line="89" id="ent0037"><rect fill="#F8FAFC" height="39.6406" rx="3" ry="3" style="stroke:#2563EB;stroke-width:0.5;" width="56.3984" x="662.8" y="233.5769"/><text fill="#000000" font-family="'Arial'" font-size="10" lengthAdjust="spacing" textLength="28.3984" x="676.8" y="256.8591">verify</text></g><!--entity rel1--><g class="entity" data-qualified-name="make release.rel1" data-source-line="95" id="ent0041"><rect fill="#F8FAFC" height="39.6406" rx="3" ry="3" style="stroke:#2563EB;stroke-width:0.5;" width="97.5703" x="799.21" y="90.2969"/><text fill="#000000" font-family="'Arial'" font-size="10" lengthAdjust="spacing" textLength="69.5703" x="813.21" y="113.5791">release-check</text></g><!--entity rel2--><g class="entity" data-qualified-name="make release.rel2" data-source-line="96" id="ent0042"><rect fill="#F8FAFC" height="39.6406" rx="3" ry="3" style="stroke:#2563EB;stroke-width:0.5;" width="95.9102" x="800.04" y="161.9369"/><text fill="#000000" font-family="'Arial'" font-size="10" lengthAdjust="spacing" textLength="67.9102" x="814.04" y="185.2191">DEPLOY_CMD</text></g><!--link f1 to f2--><g class="link" data-entity-1="ent0003" data-entity-2="ent0004" data-link-type="dependency" data-source-line="52" id="lnk6"><path d="M101.04,110.7769 C107.67,110.7769 108.47,110.7769 114.83,110.7769" fill="none" id="f1-to-f2" style="stroke:#64748B;stroke-width:1.1;"/><polygon fill="#64748B" points="120.83,110.7769,111.83,106.7769,115.83,110.7769,111.83,114.7769,120.83,110.7769" style="stroke:#64748B;stroke-width:1.1;"/></g><!--link f2 to f3--><g class="link" data-entity-1="ent0004" data-entity-2="ent0005" data-link-type="dependency" data-source-line="53" id="lnk7"><path d="M180.96,110.7769 C187.19,110.7769 187.79,110.7769 194.14,110.7769" fill="none" id="f2-to-f3" style="stroke:#64748B;stroke-width:1.1;"/><polygon fill="#64748B" points="200.14,110.7769,191.14,106.7769,195.14,110.7769,191.14,114.7769,200.14,110.7769" style="stroke:#64748B;stroke-width:1.1;"/></g><!--link m1 to m2--><g class="link" data-entity-1="ent0009" data-entity-2="ent0010" data-link-type="dependency" data-source-line="63" id="lnk15"><path d="M374,130.0669 C374,139.9269 374,145.7869 374,155.6569" fill="none" id="m1-to-m2" style="stroke:#64748B;stroke-width:1.1;"/><polygon fill="#64748B" points="374,161.6569,378,152.6569,374,156.6569,370,152.6569,374,161.6569" style="stroke:#64748B;stroke-width:1.1;"/></g><!--link m2 to m3--><g class="link" data-entity-1="ent0010" data-entity-2="ent0011" data-link-type="dependency" data-source-line="64" id="lnk16"><path d="M374,201.7069 C374,211.5669 374,217.4269 374,227.2969" fill="none" id="m2-to-m3" style="stroke:#64748B;stroke-width:1.1;"/><polygon fill="#64748B" points="374,233.2969,378,224.2969,374,228.2969,370,224.2969,374,233.2969" style="stroke:#64748B;stroke-width:1.1;"/></g><!--link m3 to m4--><g class="link" data-entity-1="ent0011" data-entity-2="ent0012" data-link-type="dependency" data-source-line="65" id="lnk17"><path d="M374,273.3469 C374,283.2069 374,289.0669 374,298.9369" fill="none" id="m3-to-m4" style="stroke:#64748B;stroke-width:1.1;"/><polygon fill="#64748B" points="374,304.9369,378,295.9369,374,299.9369,370,295.9369,374,304.9369" style="stroke:#64748B;stroke-width:1.1;"/></g><!--link m4 to m5--><g class="link" data-entity-1="ent0012" data-entity-2="ent0013" data-link-type="dependency" data-source-line="66" id="lnk18"><path d="M374,345.1669 C374,350.5069 374,350.2769 374,355.6069" fill="none" id="m4-to-m5" style="stroke:#64748B;stroke-width:1.1;"/><polygon fill="#64748B" points="374,361.6069,378,352.6069,374,356.6069,370,352.6069,374,361.6069" style="stroke:#64748B;stroke-width:1.1;"/></g><!--link m5 to m6--><g class="link" data-entity-1="ent0013" data-entity-2="ent0014" data-link-type="dependency" data-source-line="67" id="lnk19"><path d="M374,401.8069 C374,407.1469 374,406.9169 374,412.2569" fill="none" id="m5-to-m6" style="stroke:#64748B;stroke-width:1.1;"/><polygon fill="#64748B" points="374,418.2569,378,409.2569,374,413.2569,370,409.2569,374,418.2569" style="stroke:#64748B;stroke-width:1.1;"/></g><!--link c0 to c1--><g class="link" data-entity-1="ent0021" data-entity-2="ent0022" data-link-type="dependency" data-source-line="78" id="lnk28"><path d="M532,130.0669 C532,139.9269 532,145.7869 532,155.6569" fill="none" id="c0-to-c1" style="stroke:#64748B;stroke-width:1.1;"/><polygon fill="#64748B" points="532,161.6569,536,152.6569,532,156.6569,528,152.6569,532,161.6569" style="stroke:#64748B;stroke-width:1.1;"/></g><!--link c1 to c2--><g class="link" data-entity-1="ent0022" data-entity-2="ent0023" data-link-type="dependency" data-source-line="79" id="lnk29"><path d="M532,201.7069 C532,211.5669 532,217.4269 532,227.2969" fill="none" id="c1-to-c2" style="stroke:#64748B;stroke-width:1.1;"/><polygon fill="#64748B" points="532,233.2969,536,224.2969,532,228.2969,528,224.2969,532,233.2969" style="stroke:#64748B;stroke-width:1.1;"/></g><!--link c2 to c3--><g class="link" data-entity-1="ent0023" data-entity-2="ent0024" data-link-type="dependency" data-source-line="80" id="lnk30"><path d="M532,273.3469 C532,283.2069 532,289.0669 532,298.9369" fill="none" id="c2-to-c3" style="stroke:#64748B;stroke-width:1.1;"/><polygon fill="#64748B" points="532,304.9369,536,295.9369,532,299.9369,528,295.9369,532,304.9369" style="stroke:#64748B;stroke-width:1.1;"/></g><!--link c3 to c4--><g class="link" data-entity-1="ent0024" data-entity-2="ent0025" data-link-type="dependency" data-source-line="81" id="lnk31"><path d="M532,345.1669 C532,350.5069 532,350.2769 532,355.6069" fill="none" id="c3-to-c4" style="stroke:#64748B;stroke-width:1.1;"/><polygon fill="#64748B" points="532,361.6069,536,352.6069,532,356.6069,528,352.6069,532,361.6069" style="stroke:#64748B;stroke-width:1.1;"/></g><!--link c4 to c5--><g class="link" data-entity-1="ent0025" data-entity-2="ent0026" data-link-type="dependency" data-source-line="82" id="lnk32"><path d="M532,401.8069 C532,407.1469 532,406.9169 532,412.2569" fill="none" id="c4-to-c5" style="stroke:#64748B;stroke-width:1.1;"/><polygon fill="#64748B" points="532,418.2569,536,409.2569,532,413.2569,528,409.2569,532,418.2569" style="stroke:#64748B;stroke-width:1.1;"/></g><!--link c5 to c6--><g class="link" data-entity-1="ent0026" data-entity-2="ent0027" data-link-type="dependency" data-source-line="83" id="lnk33"><path d="M532,458.2669 C532,468.1269 532,473.9869 532,483.8569" fill="none" id="c5-to-c6" style="stroke:#64748B;stroke-width:1.1;"/><polygon fill="#64748B" points="532,489.8569,536,480.8569,532,484.8569,528,480.8569,532,489.8569" style="stroke:#64748B;stroke-width:1.1;"/></g><!--link rc1 to rc2--><g class="link" data-entity-1="ent0035" data-entity-2="ent0036" data-link-type="dependency" data-source-line="90" id="lnk38"><path d="M691,130.0669 C691,139.9269 691,145.7869 691,155.6569" fill="none" id="rc1-to-rc2" style="stroke:#64748B;stroke-width:1.1;"/><polygon fill="#64748B" points="691,161.6569,695,152.6569,691,156.6569,687,152.6569,691,161.6569" style="stroke:#64748B;stroke-width:1.1;"/></g><!--link rc2 to rc3--><g class="link" data-entity-1="ent0036" data-entity-2="ent0037" data-link-type="dependency" data-source-line="91" id="lnk39"><path d="M691,201.7069 C691,211.5669 691,217.4269 691,227.2969" fill="none" id="rc2-to-rc3" style="stroke:#64748B;stroke-width:1.1;"/><polygon fill="#64748B" points="691,233.2969,695,224.2969,691,228.2969,687,224.2969,691,233.2969" style="stroke:#64748B;stroke-width:1.1;"/></g><!--link rel1 to rel2--><g class="link" data-entity-1="ent0041" data-entity-2="ent0042" data-link-type="dependency" data-source-line="97" id="lnk43"><path d="M848,130.0669 C848,139.9269 848,145.7869 848,155.6569" fill="none" id="rel1-to-rel2" style="stroke:#64748B;stroke-width:1.1;"/><polygon fill="#64748B" points="848,161.6569,852,152.6569,848,156.6569,844,152.6569,848,161.6569" style="stroke:#64748B;stroke-width:1.1;"/></g><?plantuml-src XLRRRXit47tNLmnS5B7Tof9iotPSeAXlQe36QH2v1VeKKToHbZLtoP9SoseGe1_HB-oNz92whIHVdbRB6SsSEJDpk6-edml76NtKeWo_tRudVwzAsbNbdom3piKeiAEVV10kL8McuPIyTCe6tt8yvfAT2FmvCz8Vs2cDZADVdBbNv5KvrjmSAStakCpOxJNUqDtKch4JDf-UquLJGhVUiNxWeAGWf93tL8WWS_OKfXQ7cjwhideap-u1C4Qc39vsKuOz-k-VVqay69LvwlFOSDEKUagPKwDmq8XbME54GJuNcPa03es4zbopQ5KoyZ0P5t9JCqXJM5Do6VfXcl3B868vDHSBi6BCppjaF1AL3Zr0_Y0AffrKxyxJ7dtrDrEd3OOk1HeX-Po26kU1k3JLEATWPfLINesPniBwxqaRuxdce5MX0canPDqIpfa96N2cXJsWljKmPKg0-yAJ6e5ifJL9U6MSrTagJSQUBHssQuTEbFVni7DQE_meiYooUbmloIfwUu8oheGbVhGWbYOg2pcbtiIEPORszqiJzlUf0lx1mAFDZ7-rPvw30PveHnLWAyJZO00kSX7YR4dsYCqeQxge9bOUSYOVERRgaVKyeIWpgcmAxgcS4J93X0aQQZFnC5FWnx1tWA3lxZ3xHUN34fqFZZ6BrF_zPvyW0KyAVOvEjRy5pbXEh46LmQdIAucfHn-_YtcGlgLZ2uVcCSR_j5mMGccs0ehPQiaSanDv3Ba2ibZpFLDSA2mFggSMycwlsc00s3FgGDAAFgJgfxoWEurGJ64S_kpH0n8wj8m5cQ0ElEo274zSs31560SS50l9E3gC2so0twjFXpDLcSt2qKcg2Ym9h566XT0S0WQtv0fdseC7x10DTSKaf4GisXKMaoX5K81YHSZtVg29S6WYA4pYOO5J-S1OWNhUYzY-AwFXySt9yUdnsUMcyIvNyhwCrNGEEfl6vOgzNPlVjC6Nna6Svh6lBg-xDvqddF0Of-BdZhrEhzkhH_kqa82rU8VTawERooVTjYAUzIvwLpNNQn74KFWDW8V7dVQJNblnUhtJc-kQvmTizbgiBIAJnwkuBcGmRYrG-_Zqh7kwvR8PwUQgTzthhf7heFmAkn9UPgtk-2g-FlzLnVcvnJ2WTHVOXfBY-B6hJp9xIBnVU5qo527D2WLNrNKSspNtIHDqreqRDa-nbDHp_CBz5O-672RC9UHunF62YNkWohWmTYwOPfJMa74PnLrinN9ir8WxOviQwgPfcHuh2ZMQgUTyCw6OY_HVla86o9lPdTjQtk52JyGK0eDjcqPrB0wU9dCXuVMcN9h7nV5H8wW0WRc58gMBFDsBNa73y3amvgYa6TjukvToIgc5Uur6C3Qgyj24O70bg7WxOk4RZVcTIJj9ug1kE_IbGQlRatOW0VW0Q2QJy3Jgh9l1Pyruk6vSIERCU0JZg4DD5pMm-UFCUtHOEpXgVDs4X8j5ZQPRg59QV9N8-nIxs40LFo7gvWrS1WG9g-eUH-iU4lBaX0pD03cTUHnlf5WQkYyKNPp0MA1eVE-KA34XAGvNxp5lSRHwZrcAuzLx35vqL-ydpr7Kb6gB9Ko2RuegKpEailqYYV9b4kMh9CfNIPJFaIYV8h4MET8esqiQ4bIveZLXaojQ4nAveZNbbIjQKpgvebK-GQjZpL3n1OeDQhbygE5pcznjCEysoLkCTR8bschLpBrhzKIVvm1kGTi07bEmti1tVVFn_Qz_VBwwlLuup03g6efuzhNnFm00?></g></svg>
