<?plantuml 1.2026.1?><svg xmlns="http://www.w3.org/2000/svg" xmlns:xlink="http://www.w3.org/1999/xlink" contentStyleType="text/css" data-diagram-type="ACTIVITY" height="687px" preserveAspectRatio="none" style="width:846px;height:687px;background:#FFFFFF;" version="1.1" viewBox="0 0 846 687" width="846px" zoomAndPan="magnify"><title>Docs frontend &#8212; Motion policy decision flow</title><defs/><g><g class="title" data-source-line="274"><text fill="#0F172A" font-family="'Helvetica'" font-size="15" font-weight="bold" lengthAdjust="spacing" textLength="374.9268" x="234.113" y="39.9233">Docs frontend &#8212; Motion policy decision flow</text></g><ellipse cx="340.5723" cy="70.4609" fill="#1D4ED8" rx="10" ry="10" style="stroke:#222222;stroke-width:1;"/><rect fill="#F8FAFC" height="57.6094" rx="4" ry="4" style="stroke:#2563EB;stroke-width:1.2;" width="150.2178" x="265.4634" y="100.4609"/><text fill="#0F172A" font-family="'Helvetica'" font-size="11" lengthAdjust="spacing" textLength="118.2178" x="281.4634" y="126.6714">Reader interacts with</text><text fill="#0F172A" font-family="'Helvetica'" font-size="11" lengthAdjust="spacing" textLength="113.647" x="281.4634" y="139.4761">an animated surface</text><rect fill="#F8FAFC" height="57.6094" rx="4" ry="4" style="stroke:#2563EB;stroke-width:1.2;" width="191.1724" x="244.9861" y="178.0703"/><text fill="#0F172A" font-family="'Helvetica'" font-size="11" lengthAdjust="spacing" textLength="159.1724" x="260.9861" y="204.2808">read prefers-reduced-motion</text><text fill="#0F172A" font-family="'Helvetica'" font-size="11" lengthAdjust="spacing" textLength="158.3506" x="260.9861" y="217.0854">(media query at action time)</text><polygon fill="#DBEAFE" points="259.0063,255.6797,422.1382,255.6797,434.1382,268.082,422.1382,280.4844,259.0063,280.4844,247.0063,268.082,259.0063,255.6797" style="stroke:#1D4ED8;stroke-width:1.2;"/><text fill="#0F172A" font-family="'Helvetica'" font-size="11" lengthAdjust="spacing" textLength="151.1318" x="265.0063" y="271.8901">reduced-motion = reduce ?</text><text fill="#475569" font-family="'Helvetica'" font-size="10" lengthAdjust="spacing" textLength="17.2803" x="223.7261" y="259.7236">yes</text><text fill="#475569" font-family="'Helvetica'" font-size="10" lengthAdjust="spacing" textLength="12.4561" x="440.1382" y="259.7236">no</text><rect fill="#F8FAFC" height="44.8047" rx="4" ry="4" style="stroke:#2563EB;stroke-width:1.2;" width="112.9316" x="72.1794" y="290.4844"/><text fill="#0F172A" font-family="'Helvetica'" font-size="11" lengthAdjust="spacing" textLength="80.9316" x="88.1794" y="316.6948">skip animation</text><rect fill="#F8FAFC" height="57.6094" rx="4" ry="4" style="stroke:#2563EB;stroke-width:1.2;" width="235.2905" x="11" y="370.2891"/><text fill="#0F172A" font-family="'Helvetica'" font-size="11" lengthAdjust="spacing" textLength="203.2905" x="27" y="396.4995">perform the underlying state change</text><text fill="#0F172A" font-family="'Helvetica'" font-size="11" lengthAdjust="spacing" textLength="171.3271" x="27" y="409.3042">(scroll, open, dismiss) instantly</text><rect fill="#F8FAFC" height="44.8047" rx="4" ry="4" style="stroke:#2563EB;stroke-width:1.2;" width="52.6465" x="102.322" y="462.8984"/><text fill="#0F172A" font-family="'Helvetica'" font-size="11" lengthAdjust="spacing" textLength="20.6465" x="118.322" y="489.1089">exit</text><ellipse cx="128.6453" cy="539.5391" fill="none" rx="11" ry="11" style="stroke:#222222;stroke-width:1;"/><ellipse cx="128.6453" cy="539.5391" fill="#222222" rx="6" ry="6" style="stroke:#222222;stroke-width:1;"/><polygon fill="#DBEAFE" points="298.8518,315.4844,394.2166,315.4844,406.2166,327.8867,394.2166,340.2891,298.8518,340.2891,286.8518,327.8867,298.8518,315.4844" style="stroke:#1D4ED8;stroke-width:1.2;"/><text fill="#475569" font-family="'Helvetica'" font-size="10" lengthAdjust="spacing" textLength="53.125" x="356.5342" y="355.5713">decorative</text><text fill="#0F172A" font-family="'Helvetica'" font-size="11" lengthAdjust="spacing" textLength="83.3647" x="304.8518" y="331.6948">animation type</text><rect fill="#F8FAFC" height="44.8047" rx="4" ry="4" style="stroke:#2563EB;stroke-width:1.2;" width="129.7109" x="281.6787" y="383.9297"/><text fill="#0F172A" font-family="'Helvetica'" font-size="11" lengthAdjust="spacing" textLength="97.7109" x="297.6787" y="410.1401">run full animation</text><rect fill="#F8FAFC" height="44.8047" rx="4" ry="4" style="stroke:#2563EB;stroke-width:1.2;" width="160.4873" x="266.2905" y="463.7344"/><text fill="#0F172A" font-family="'Helvetica'" font-size="11" lengthAdjust="spacing" textLength="128.4873" x="282.2905" y="489.9448">emit no announcement</text><polygon fill="#DBEAFE" points="491.8242,315.4844,577.3008,315.4844,589.3008,327.8867,577.3008,340.2891,491.8242,340.2891,479.8242,327.8867,491.8242,315.4844" style="stroke:#1D4ED8;stroke-width:1.2;"/><text fill="#475569" font-family="'Helvetica'" font-size="10" lengthAdjust="spacing" textLength="3.1787" x="544.5625" y="355.5713">&#160;</text><text fill="#0F172A" font-family="'Helvetica'" font-size="11" lengthAdjust="spacing" textLength="73.4766" x="497.8242" y="331.6948">informational</text><text fill="#475569" font-family="'Helvetica'" font-size="10" lengthAdjust="spacing" textLength="33.4912" x="595.3008" y="319.5283">critical</text><rect fill="#F8FAFC" height="57.6094" rx="4" ry="4" style="stroke:#2563EB;stroke-width:1.2;" width="175.5693" x="446.7778" y="383.9297"/><text fill="#0F172A" font-family="'Helvetica'" font-size="11" lengthAdjust="spacing" textLength="77.2578" x="462.7778" y="410.1401">run animation</text><text fill="#0F172A" font-family="'Helvetica'" font-size="11" lengthAdjust="spacing" textLength="143.5693" x="462.7778" y="422.9448">+ aria-live announcement</text><rect fill="#F8FAFC" height="44.8047" rx="4" ry="4" style="stroke:#2563EB;stroke-width:1.2;" width="196.3608" x="638.792" y="368.3047"/><text fill="#0F172A" font-family="'Helvetica'" font-size="11" lengthAdjust="spacing" textLength="164.3608" x="654.792" y="394.5151">animation may not gate input</text><rect fill="#F8FAFC" height="57.6094" rx="4" ry="4" style="stroke:#2563EB;stroke-width:1.2;" width="188.6211" x="642.6619" y="448.1094"/><text fill="#0F172A" font-family="'Helvetica'" font-size="11" lengthAdjust="spacing" textLength="77.2578" x="658.6619" y="474.3198">run animation</text><text fill="#0F172A" font-family="'Helvetica'" font-size="11" lengthAdjust="spacing" textLength="156.6211" x="658.6619" y="487.1245">in parallel with state change</text><rect fill="#F8FAFC" height="44.8047" rx="4" ry="4" style="stroke:#2563EB;stroke-width:1.2;" width="149.0093" x="477.9946" y="589.375"/><text fill="#0F172A" font-family="'Helvetica'" font-size="11" lengthAdjust="spacing" textLength="117.0093" x="493.9946" y="615.5854">resolve focus + state</text><ellipse cx="552.4993" cy="665.1797" fill="none" rx="11" ry="11" style="stroke:#222222;stroke-width:1;"/><ellipse cx="552.4993" cy="665.1797" fill="#222222" rx="6" ry="6" style="stroke:#222222;stroke-width:1;"/><line style="stroke:#64748B;stroke-width:1.2;" x1="340.5723" x2="340.5723" y1="80.4609" y2="100.4609"/><polygon fill="#64748B" points="336.5723,90.4609,340.5723,100.4609,344.5723,90.4609,340.5723,94.4609" style="stroke:#64748B;stroke-width:1;"/><line style="stroke:#64748B;stroke-width:1.2;" x1="340.5723" x2="340.5723" y1="158.0703" y2="178.0703"/><polygon fill="#64748B" points="336.5723,168.0703,340.5723,178.0703,344.5723,168.0703,340.5723,172.0703" style="stroke:#64748B;stroke-width:1;"/><line style="stroke:#64748B;stroke-width:1.2;" x1="128.6453" x2="128.6453" y1="335.2891" y2="370.2891"/><polygon fill="#64748B" points="124.6453,360.2891,128.6453,370.2891,132.6453,360.2891,128.6453,364.2891" style="stroke:#64748B;stroke-width:1;"/><line style="stroke:#64748B;stroke-width:1.2;" x1="128.6453" x2="128.6453" y1="427.8984" y2="462.8984"/><polygon fill="#64748B" points="124.6453,452.8984,128.6453,462.8984,132.6453,452.8984,128.6453,456.8984" style="stroke:#64748B;stroke-width:1;"/><line style="stroke:#64748B;stroke-width:1.2;" x1="128.6453" x2="128.6453" y1="507.7031" y2="528.5391"/><polygon fill="#64748B" points="124.6453,518.5391,128.6453,528.5391,132.6453,518.5391,128.6453,522.5391" style="stroke:#64748B;stroke-width:1;"/><line style="stroke:#64748B;stroke-width:1.2;" x1="346.5342" x2="346.5342" y1="428.7344" y2="463.7344"/><polygon fill="#64748B" points="342.5342,453.7344,346.5342,463.7344,350.5342,453.7344,346.5342,457.7344" style="stroke:#64748B;stroke-width:1;"/><line style="stroke:#64748B;stroke-width:1.2;" x1="736.9724" x2="736.9724" y1="413.1094" y2="448.1094"/><polygon fill="#64748B" points="732.9724,438.1094,736.9724,448.1094,740.9724,438.1094,736.9724,442.1094" style="stroke:#64748B;stroke-width:1;"/><line style="stroke:#64748B;stroke-width:1.2;" x1="346.5342" x2="346.5342" y1="340.2891" y2="383.9297"/><polygon fill="#64748B" points="342.5342,373.9297,346.5342,383.9297,350.5342,373.9297,346.5342,377.9297" style="stroke:#64748B;stroke-width:1;"/><line style="stroke:#64748B;stroke-width:1.2;" x1="346.5342" x2="346.5342" y1="508.5391" y2="569.375"/><polygon fill="#64748B" points="342.5342,559.375,346.5342,569.375,350.5342,559.375,346.5342,563.375" style="stroke:#64748B;stroke-width:1;"/><line style="stroke:#64748B;stroke-width:1.2;" x1="534.5625" x2="534.5625" y1="340.2891" y2="383.9297"/><polygon fill="#64748B" points="530.5625,373.9297,534.5625,383.9297,538.5625,373.9297,534.5625,377.9297" style="stroke:#64748B;stroke-width:1;"/><line style="stroke:#64748B;stroke-width:1.2;" x1="534.5625" x2="534.5625" y1="441.5391" y2="569.375"/><polygon fill="#64748B" points="530.5625,559.375,534.5625,569.375,538.5625,559.375,534.5625,563.375" style="stroke:#64748B;stroke-width:1;"/><line style="stroke:#64748B;stroke-width:1.2;" x1="406.2166" x2="479.8242" y1="327.8867" y2="327.8867"/><polygon fill="#64748B" points="469.8242,323.8867,479.8242,327.8867,469.8242,331.8867,473.8242,327.8867" style="stroke:#64748B;stroke-width:1;"/><line style="stroke:#64748B;stroke-width:1.2;" x1="434.1382" x2="552.4993" y1="268.082" y2="268.082"/><line style="stroke:#64748B;stroke-width:1.2;" x1="552.4993" x2="552.4993" y1="268.082" y2="290.4844"/><line style="stroke:#64748B;stroke-width:1.2;" x1="552.4993" x2="346.5342" y1="290.4844" y2="290.4844"/><line style="stroke:#64748B;stroke-width:1.2;" x1="346.5342" x2="346.5342" y1="290.4844" y2="315.4844"/><polygon fill="#64748B" points="342.5342,305.4844,346.5342,315.4844,350.5342,305.4844,346.5342,309.4844" style="stroke:#64748B;stroke-width:1;"/><line style="stroke:#64748B;stroke-width:1.2;" x1="589.3008" x2="736.9724" y1="327.8867" y2="327.8867"/><line style="stroke:#64748B;stroke-width:1.2;" x1="736.9724" x2="736.9724" y1="327.8867" y2="368.3047"/><polygon fill="#64748B" points="732.9724,358.3047,736.9724,368.3047,740.9724,358.3047,736.9724,362.3047" style="stroke:#64748B;stroke-width:1;"/><line style="stroke:#64748B;stroke-width:1.2;" x1="736.9724" x2="736.9724" y1="505.7188" y2="569.375"/><polygon fill="#64748B" points="732.9724,559.375,736.9724,569.375,740.9724,559.375,736.9724,563.375" style="stroke:#64748B;stroke-width:1;"/><line style="stroke:#64748B;stroke-width:1.2;" x1="346.5342" x2="736.9724" y1="569.375" y2="569.375"/><line style="stroke:#64748B;stroke-width:1.2;" x1="552.4993" x2="552.4993" y1="569.375" y2="589.375"/><polygon fill="#64748B" points="548.4993,579.375,552.4993,589.375,556.4993,579.375,552.4993,583.375" style="stroke:#64748B;stroke-width:1;"/><line style="stroke:#64748B;stroke-width:1.2;" x1="552.4993" x2="552.4993" y1="634.1797" y2="654.1797"/><polygon fill="#64748B" points="548.4993,644.1797,552.4993,654.1797,556.4993,644.1797,552.4993,648.1797" style="stroke:#64748B;stroke-width:1;"/><line style="stroke:#64748B;stroke-width:1.2;" x1="247.0063" x2="128.6453" y1="268.082" y2="268.082"/><line style="stroke:#64748B;stroke-width:1.2;" x1="128.6453" x2="128.6453" y1="268.082" y2="290.4844"/><polygon fill="#64748B" points="124.6453,280.4844,128.6453,290.4844,132.6453,280.4844,128.6453,284.4844" style="stroke:#64748B;stroke-width:1;"/><line style="stroke:#64748B;stroke-width:1.2;" x1="340.5723" x2="340.5723" y1="235.6797" y2="255.6797"/><polygon fill="#64748B" points="336.5723,245.6797,340.5723,255.6797,344.5723,245.6797,340.5723,249.6797" style="stroke:#64748B;stroke-width:1;"/><?plantuml-src jLhhKjj85lxlf-WmgGfaiBa4Ge39x1fVakmGO8pPtQcQghWjjR4MMQrqjm1lpOzzY7sN_R-Fia-ot-cMR5cM759bL9K0EjS-jpxTEg_O-pK-jLViUioLyDbLo2Dpy_cSwRiWOl_xrx-P3gBRK30j4-K99aVCgCICsKWgvWVyLl49kmzqmaFTgBq2e_uuq6mKW0G_NxyEedy8pu1pC9a841WHJXaV6Q7OuC_QS6MIIJXu_PeDfo0UQ4y5iT4xIjoAI2YWV_6bfnlnTC260aAXYOXywCJCMCmqC9BzekHTi0qzcRWNoZ9xtOY9EKiYdyGHensys1cmJV7eYTYmGH1vOUABdS4M2wAnK87Hbh7c4y5Y7WfZn3PucMai8IaUJxTPoASoCTkCHpuRYp06xmdtbDGDrfTCWYt0ra2SoKZKvMYKAKgiOW07BouklrptVpll381Y9OP1HEjHi5QPXPnnMpAw5v49PAHFy2TZTRmAuHfOu4v4ccqENhoyQ7xkO3tmfsKi8_2BGmxlZSKZk-TX8hI5-i8BoUiDougnAw7g8XGJIB3-ZpbKrao9aL0YyYoxYLjt01_S1pxSdYrDCpsMIUYdl8oKDdmYyWOigOs0EKPAw34R_F1t-momQ2mJF8887kGPgqQwj3Efu3ZDFAxKb4q4Z-3t4pR40jXxnkCu33nEnjXcKl7ebjx26pg0CAYxdQg21K663-0ucV28xJ3k6Qcs4RSI3iRxhua0ons8q9g3pJ3HYAGGqGTW9183-fHP48qKRx2cxqDVpzdUMlXXB9mZbNInZm1Eu5E08l6GBUcp3HIuwMLNIgnziCq6Bw-JeGbCAEmVvnJv_hM1bRdoxQkFC4_gK4HNFOXINSWHphuJwGUZwImTjC0wJU1fwm8eDNKwmekK2U8H2sBUMCc9S75r9M7AwGbhjdlrtTtzNRRPEc0_pgk1Du-xhGQxYNqopL2Y3fXPkaCRIXHO05oOuKEyC_9Mu8qwPVE4PjT__Q3PGm3YmOJV8GoHb_LHy3XmKV-0PLCjMM-50x_w-XvmssiifjxQ1LmdQaH92-E6pf4U3v5-aU2g_Z16vcopMuugdIO6aajEhFs7DcyQjHSlppvykMf-w33tl6SRFtJji-5WrpUzRhFLcS7UTPlTraP6r_eb9RMmlUvXzpY5NLps2ppFEcSfh7t6s2BigDDEOSrM_x8tXtLQtNRtC8NzUjEvwUJecf2NwTawlxnfvs2xtUCPh7FH_zJ_RSwpstqxWttyzE7ZEVxr7QnzrcbsEodiG-_ovYgdIwUxJtGmV5PsoEIXv7vz28jR0wEaprBhb4BVkqCwlKVw8JM3IImLqjPOmr_ssftUbulEJR_NFC-471yqtvozsvZ32qPkdRKFEtjvUE_JvsRljmo-V_ZsJMfe1oyiSAzzq6dd-HUSqTe_sDjjvU05X-mU7BqxFCh12quvQhrffivCrxSO2EtZewFTjzQ8dw8xLtnc6oSR1yX_vOsdPA1F5x_CLcT5T_UEzfiRAUJpJR_JJfaU71qUlZtE8CrUx_9lAUJjmT71kxEDzUVsFdRocTxhJso4pvqhW1iVHNWly3VViD5bcvYTyo1A7fb1cQu_13xGD1y9CuLIbDnAFcYXmCTLSqtrr2ApHBk-21LPF6AFOoC-2SBfARKOw50khnqCUx24L4rT4vev0LOpDRO9DvKlySkGIZRAFhlcr5rCX561L_Va9CPhgl1s6KqLy72hKPir3MWjHZm9JLT6ve9QgVnAoz6kWty2RM-l74gbLh5yrEJm-hHvpaLL2PkXEL4GTbWADTEGm4E9PgO4xbHXLSeq5HoqX6S3kWnhfijk3dg1rY0FB8Tc0geqSPr4Ziy25zT_vA37fS1KI6uHQy-7DmrsRblgDNEUBqUFkIyVA3dSCy9fHUJWr7kZK8ciLgAEZsKEJl6EJduM6zIaSpeMvN1YxjsXTyoYfnH7IHn5MbAX4R9otkLWLzptvneozZO7YwGlj8XdiFqy8JhVkmNWVZw5ue3bd-CyspEeV9lgPDChRHVeeC5Zr13Qq9WhGVDUFj62pcau6x6VBdvsu86j0tJiGKltYARLZ3aeq_C0AXlwc8XJpC-F2wWlIUpuK2CxL8BV0HLd3tIRQG-FWn3ronhMlHLe2XqwH60Xkqxq-kFneE7IKpzRF5hsi_HbyusjYDEd5YF2gGJjvlxwLthOiCK4XPrQIyOdAFSvJziJjgl1R1HoZJryAi9GFcmzcsL8dRAmf4QZY6RRj9mLSpr9AMhEc0Lu7xjdCmnk8tlqPImK8xD-Qx-b4qDaqBB3jYX9iNY-2BjorQXeIiPohNq9Ui6aSwDMakHtJFSKziqSNfvnOTVA4VIombaM1-c9fHIz8XwMDyO2oMAIbQ0LTQ_Il9Lj4q_JV8x-PCqB98Noa0zglyJtgVkNDR7eIxxFvvGxn-H5TF5VgOno4GwzHCOg4OWaeKfab0TnYhuienZ42rNM13XbBtciOXKpzAAG5QjeXJBngmnbJxPBoDzdfb_fzgfAW3t1BI6l4B22O1vkjYTzZXtfg87ZaLGe6CzM6jlSy27NejJbxRCop2flhy3EsMglSR1O9S8GbONkqfvQ9-O4twWKEQfEP08phKWUTscoZBqYTp89w_RuEtHRT1shRHUenTV4NZL3BPpVWfX7vXdxC1Ayk7kvXp_WZ3mHHTIg9BFNA4l8Av9i1S5oaXNGbdVSTCzTs7HdrdjQZEK9dhmRBH5LxQGvnABsHStFI5EkgW9tTk5LHb8TlMLar8if6Jvz2yi8LlZrsRBa67KnIuti1FLiQP59-km-XzZEE9yT7XeGeKe8bku-yWrJyGf42OrUHcTIpWGE5fP1IcIlfkReEFIbcBDRaSMJxM5vm1NFrKk7wpFvM8gJFGSb2pqFHlWNFR55NQ9wSePbb1yW8wv82NkHNKdpVJcnGFjHS7_X4gZofYaZwsLV2h_FBdEoHMs_RPSsVOGiQH7B6yGYLTMs_atAfH9SEFEKe2-wOBKP4P6LpNkrRaIrgeUVTRzh_nAsIqqRVTbx_if4OafjKrss7KsPPRuHOtEwnJsvP6Esk6KRSsbqPCWbwbJ71X4rZL71C2c_8Yc9Z0MQqbDiiIXRaciQEYXJRcNf8ChEaa_OKiUy_lZRioqaSirCdpy4CqaLKLXnRio8oiEmEWWN2PVYSAazjCWLiLNrmIAbAbnABb0jNKxcQIgkTfO-UQGqxO1FPEINXN1PN1N9AlRE9v2klCPPfgh8WgS8h4Y3qcFZF9vKAStS_EjFdFr6-f787Rwya2EqPXVqc-dTBu3K0GhVVUopCov2c-Ux17OwLTxxBDIu5FVRbpvbtyMgszI5AnbOvJjE2HRz2MU40adbiQw0LrRFd_FhtDwR1kk9HDjvdaawlkJ6aD8Hegsroso6OIQAXfxYXFv3pE7SuRv6pyQQt8SARsodlvR6dznm4-oJJLXjRdpizw-ksN__m_voVNb1FtTu7EpSxsriPKQtGuyJ3XKy7bjfRdxGCd3itEVHpOtPk1Juq61XDaseoOzs-11iYTzG6YCdp5F23upztEWOqMJNveOIHathz95_hiNoO_KQqnUv8BB3WeRVEYwB8sERAtWuBkdOMcZ9sEQ17LdJMzPODrem7Tjvbt1wCf_9SxdFKIC4Jst159nZnzi45H0OR0IsZLhjHH9zJIGDVSPAUi8dzyrTy99c5RPgcN7jdxKNq6I6NC4XjNf6Rm-X44alsSwEVRspyoHErkmfdqZIPA9c5r_i2vPECzLOgXcPY72UnBZeYLfgOnNSZWrO_l7UZGVYP-g4F-Yj6qXaE-c0OkxvW_sKZadzdA7Ennv1qBpwb4Tr4rmPQcuM4gW-DrmRcbHog7OmAqErOur06gPtAGiAkDalGiLQt8eArd3nq9QUfYaqE0PhfaZxBAsUiHqlf7dJGDFV8nprgL9rQ58NMqymuMH8dKwy1MwGqbzWDvzQGT59RhF9G-BqAXiDLab4at1e1rUDBRiDp4-WUttY5FJeQWTEGF3QYTjQxQHdJxyqcIe8uYOMVu_WdgA-fxKJ1MIgK3Z7wleYxz-ZJJluJ4Ecj5X3pYQP9a3fFAtLWX7RBAZpFjMF_McBj8tOvfJoax4JR0PngW0GJ-aLl8nLkSa_Mwd2ATrbQ7iYSvKHEcXKqp3SPZ8MqJQIMay2hMdeMTF8MZYrhCHZOEWNX4bS4o5AmMOaIIxfE9DACrqYKmm-bJGYT2y83ppW0pPAK0mMj2Jc4vI-IE9zX23px9WnWKWEyKS8OXcMWeSP-npJ6R_Ven-nBGIy7a9gAJkswQc0nd_2b7wk-uHFAPtPBLa76sjYJaj580Pfqmr34RhIbxUdbHFvmOYCbWOcGijBDFlH8SwjQD7-3m00?></g></svg>
