<?plantuml 1.2026.1?><svg xmlns="http://www.w3.org/2000/svg" xmlns:xlink="http://www.w3.org/1999/xlink" contentStyleType="text/css" data-diagram-type="SEQUENCE" height="713px" preserveAspectRatio="none" style="width:781px;height:713px;background:#FFFFFF;" version="1.1" viewBox="0 0 781 713" width="781px" zoomAndPan="magnify"><title>ETR Study API &#8212; Review (retrieve outcome)</title><defs/><g><text fill="#000000" font-family="'Arial'" font-size="14" font-weight="bold" lengthAdjust="spacing" textLength="345.9463" x="218.6919" y="31.9951">ETR Study API &#8212; Review (retrieve outcome)</text><g><title>HTTP API</title><rect fill="#FFFFFF" height="205.0938" style="stroke:#181818;stroke-width:1;" width="10" x="174.312" y="174.8906"/></g><g><title>ConspectusService</title><rect fill="#FFFFFF" height="129.6641" style="stroke:#181818;stroke-width:1;" width="10" x="314.8062" y="217.8438"/></g><rect fill="#F1F5F9" height="392.5938" rx="3" ry="3" style="stroke:#CBD5E1;stroke-width:1.5;" width="764.3301" x="10" y="296.75"/><path d="M10,387.9844 L774.3301,387.9844 L774.3301,686.3438 A3,3 0 0 1 771.3301,689.3438 L13,689.3438 A3,3 0 0 1 10,686.3438 L10,387.9844" fill="#F1F5F9" style="stroke:none;stroke-width:1;"/><g class="participant-lifeline" data-entity-uid="part1" data-qualified-name="Client" id="part1-lifeline"><g><title>Integrator</title><rect fill="#000000" fill-opacity="0.00000" height="576.4063" width="8" x="48.0488" y="129.9375"/><line style="stroke:#181818;stroke-width:0.5;stroke-dasharray:5,5;" x1="52" x2="52" y1="129.9375" y2="706.3438"/></g></g><g class="participant-lifeline" data-entity-uid="part2" data-qualified-name="Api" id="part2-lifeline"><g><title>HTTP API</title><rect fill="#000000" fill-opacity="0.00000" height="576.4063" width="8" x="175.312" y="129.9375"/><line style="stroke:#181818;stroke-width:0.5;stroke-dasharray:5,5;" x1="178.9292" x2="178.9292" y1="129.9375" y2="706.3438"/></g></g><g class="participant-lifeline" data-entity-uid="part3" data-qualified-name="Service" id="part3-lifeline"><g><title>ConspectusService</title><rect fill="#000000" fill-opacity="0.00000" height="576.4063" width="8" x="315.8062" y="129.9375"/><line style="stroke:#181818;stroke-width:0.5;stroke-dasharray:5,5;" x1="319.2695" x2="319.2695" y1="129.9375" y2="706.3438"/></g></g><g class="participant-lifeline" data-entity-uid="part4" data-qualified-name="Policy" id="part4-lifeline"><g><title>SchedulePolicy</title><rect fill="#000000" fill-opacity="0.00000" height="576.4063" width="8" x="433.8794" y="129.9375"/><line style="stroke:#181818;stroke-width:0.5;stroke-dasharray:5,5;" x1="437.3428" x2="437.3428" y1="129.9375" y2="706.3438"/></g></g><g class="participant-lifeline" data-entity-uid="part5" data-qualified-name="Db" id="part5-lifeline"><g><title>DB .transaction.</title><rect fill="#000000" fill-opacity="0.00000" height="576.4063" width="8" x="545.4316" y="129.9375"/><line style="stroke:#181818;stroke-width:0.5;stroke-dasharray:5,5;" x1="549.416" x2="549.416" y1="129.9375" y2="706.3438"/></g></g><g class="participant participant-head" data-entity-uid="part1" data-qualified-name="Client" id="part1-head"><text fill="#000000" font-family="'Arial'" font-size="10" lengthAdjust="spacing" textLength="50.0977" x="24" y="123.5791">Integrator</text><ellipse cx="52.0488" cy="58.7969" fill="#ECFDF5" rx="8" ry="8" style="stroke:#047857;stroke-width:0.5;"/><path d="M52.0488,66.7969 L52.0488,93.7969 M39.0488,74.7969 L65.0488,74.7969 M52.0488,93.7969 L39.0488,108.7969 M52.0488,93.7969 L65.0488,108.7969" fill="none" style="stroke:#047857;stroke-width:0.5;"/></g><g class="participant participant-head" data-entity-uid="part2" data-qualified-name="Api" id="part2-head"><text fill="#000000" font-family="'Arial'" font-size="10" lengthAdjust="spacing" textLength="44.7656" x="153.9292" y="123.5791">HTTP API</text><path d="M158.812,82.2969 L158.812,106.2969 M158.812,94.2969 L175.812,94.2969" fill="none" style="stroke:#181818;stroke-width:0.5;"/><ellipse cx="187.812" cy="94.2969" fill="#E2E2F0" rx="12" ry="12" style="stroke:#181818;stroke-width:0.5;"/></g><g class="participant participant-head" data-entity-uid="part3" data-qualified-name="Service" id="part3-head"><text fill="#000000" font-family="'Arial'" font-size="10" lengthAdjust="spacing" textLength="95.0732" x="269.2695" y="123.5791">ConspectusService</text><ellipse cx="319.8062" cy="94.2969" fill="#E2E2F0" rx="12" ry="12" style="stroke:#181818;stroke-width:0.5;"/><polygon fill="#181818" points="315.8062,82.2969,321.8062,77.2969,319.8062,82.2969,321.8062,87.2969,315.8062,82.2969" style="stroke:#181818;stroke-width:1;"/></g><g class="participant participant-head" data-entity-uid="part4" data-qualified-name="Policy" id="part4-head"><rect fill="#F8FAFC" height="33.6406" rx="3" ry="3" style="stroke:#2563EB;stroke-width:0.5;" width="97.0732" x="389.3428" y="95.2969"/><text fill="#000000" font-family="'Arial'" font-size="10" lengthAdjust="spacing" textLength="75.0732" x="400.3428" y="115.5791">SchedulePolicy</text></g><g class="participant participant-head" data-entity-uid="part5" data-qualified-name="Db" id="part5-head"><text fill="#000000" font-family="'Arial'" font-size="10" lengthAdjust="spacing" textLength="82.0313" x="505.416" y="123.5791">DB (transaction)</text><path d="M531.4316,74.2969 C531.4316,64.2969 549.4316,64.2969 549.4316,64.2969 C549.4316,64.2969 567.4316,64.2969 567.4316,74.2969 L567.4316,100.2969 C567.4316,110.2969 549.4316,110.2969 549.4316,110.2969 C549.4316,110.2969 531.4316,110.2969 531.4316,100.2969 L531.4316,74.2969" fill="#FFF7ED" style="stroke:#C2410C;stroke-width:0.5;"/><path d="M531.4316,74.2969 C531.4316,84.2969 549.4316,84.2969 549.4316,84.2969 C549.4316,84.2969 567.4316,84.2969 567.4316,74.2969" fill="none" style="stroke:#C2410C;stroke-width:0.5;"/></g><g><title>HTTP API</title><rect fill="#FFFFFF" height="205.0938" style="stroke:#181818;stroke-width:1;" width="10" x="174.312" y="174.8906"/></g><g><title>ConspectusService</title><rect fill="#FFFFFF" height="129.6641" style="stroke:#181818;stroke-width:1;" width="10" x="314.8062" y="217.8438"/></g><g class="message" data-entity-1="part1" data-entity-2="part2" id="msg1"><polygon fill="#64748B" points="162.312,170.8906,172.312,174.8906,162.312,178.8906,166.312,174.8906" style="stroke:#64748B;stroke-width:1;"/><line style="stroke:#64748B;stroke-width:1.1;" x1="52.0488" x2="168.312" y1="174.8906" y2="174.8906"/><text fill="#000000" font-family="'Arial'" font-size="9" font-weight="bold" lengthAdjust="spacing" textLength="6.2622" x="65.5488" y="161.5298">1</text><text fill="#000000" font-family="'Arial'" font-size="9" lengthAdjust="spacing" textLength="23.7217" x="110.4507" y="156.2915">POST</text><text fill="#000000" font-family="'Arial'" font-size="9" lengthAdjust="spacing" textLength="77.001" x="83.811" y="166.7681">.../actions/review</text></g><g class="message" data-entity-1="part2" data-entity-2="part3" id="msg2"><polygon fill="#64748B" points="302.8062,213.8438,312.8062,217.8438,302.8062,221.8438,306.8062,217.8438" style="stroke:#64748B;stroke-width:1;"/><line style="stroke:#64748B;stroke-width:1.1;" x1="184.312" x2="308.8062" y1="217.8438" y2="217.8438"/><text fill="#000000" font-family="'Arial'" font-size="9" font-weight="bold" lengthAdjust="spacing" textLength="6.2622" x="197.812" y="204.4829">2</text><text fill="#000000" font-family="'Arial'" font-size="9" lengthAdjust="spacing" textLength="85.2319" x="216.0742" y="199.2446">apply_review(user,</text><text fill="#000000" font-family="'Arial'" font-size="9" lengthAdjust="spacing" textLength="11.0742" x="242.5886" y="209.7212">id,</text><text fill="#000000" font-family="'Arial'" font-size="9" lengthAdjust="spacing" textLength="2.8608" x="253.6628" y="209.7212">&#160;</text><text fill="#000000" font-family="'Arial'" font-size="9" lengthAdjust="spacing" textLength="18.2681" x="256.5237" y="209.7212">tag)</text></g><g class="message" data-entity-1="part3" data-entity-2="part5" id="msg3"><polygon fill="#64748B" points="537.4316,277.75,547.4316,281.75,537.4316,285.75,541.4316,281.75" style="stroke:#64748B;stroke-width:1;"/><line style="stroke:#64748B;stroke-width:1.1;" x1="324.8062" x2="543.4316" y1="281.75" y2="281.75"/><text fill="#000000" font-family="'Arial'" font-size="9" font-weight="bold" lengthAdjust="spacing" textLength="6.2622" x="397.303" y="257.9126">3</text><text fill="#000000" font-family="'Arial'" font-size="9" lengthAdjust="spacing" textLength="33.8818" x="429.3091" y="242.1978">SELECT</text><text fill="#000000" font-family="'Arial'" font-size="9" lengthAdjust="spacing" textLength="50.9678" x="415.5652" y="252.6743">conspectus</text><text fill="#000000" font-family="'Arial'" font-size="9" lengthAdjust="spacing" textLength="2.8608" x="466.533" y="252.6743">&#160;</text><text fill="#000000" font-family="'Arial'" font-size="9" lengthAdjust="spacing" textLength="7.541" x="469.3938" y="252.6743">+</text><text fill="#000000" font-family="'Arial'" font-size="9" lengthAdjust="spacing" textLength="40.333" x="426.0835" y="263.1509">schedule</text><text fill="#000000" font-family="'Arial'" font-size="9" lengthAdjust="spacing" textLength="53.4375" x="419.5313" y="273.6274">(ownership)</text></g><path d="M13,296.75 L77.9561,296.75 L77.9561,308.3906 L67.9561,318.3906 L10,318.3906 L10,299.75 A3,3 0 0 1 13,296.75" fill="#EEEEEE" style="stroke:#000000;stroke-width:1.5;"/><rect fill="none" height="392.5938" rx="3" ry="3" style="stroke:#CBD5E1;stroke-width:1.5;" width="764.3301" x="10" y="296.75"/><text fill="#000000" font-family="'Arial'" font-size="10" font-weight="bold" lengthAdjust="spacing" textLength="14.9561" x="29" y="311.0322">alt</text><text fill="#000000" font-family="'Arial'" font-size="10" font-weight="bold" lengthAdjust="spacing" textLength="64.0088" x="96.9561" y="312.0322">[not found]</text><g class="message" data-entity-1="part3" data-entity-2="part2" id="msg4"><polygon fill="#64748B" points="195.312,343.5078,185.312,347.5078,195.312,351.5078,191.312,347.5078" style="stroke:#64748B;stroke-width:1;"/><line style="stroke:#64748B;stroke-width:1.1;stroke-dasharray:2,2;" x1="189.312" x2="318.8062" y1="347.5078" y2="347.5078"/><text fill="#000000" font-family="'Arial'" font-size="9" font-weight="bold" lengthAdjust="spacing" textLength="6.2622" x="234.3389" y="339.3853">4</text><text fill="#000000" font-family="'Arial'" font-size="9" lengthAdjust="spacing" textLength="17.1782" x="252.6011" y="339.3853">404</text></g><g class="message" data-entity-1="part2" data-entity-2="part1" id="msg5"><polygon fill="#64748B" points="63.0488,375.9844,53.0488,379.9844,63.0488,383.9844,59.0488,379.9844" style="stroke:#64748B;stroke-width:1;"/><line style="stroke:#64748B;stroke-width:1.1;stroke-dasharray:2,2;" x1="57.0488" x2="178.312" y1="379.9844" y2="379.9844"/><text fill="#000000" font-family="'Arial'" font-size="9" font-weight="bold" lengthAdjust="spacing" textLength="6.2622" x="97.9602" y="371.8618">5</text><text fill="#000000" font-family="'Arial'" font-size="9" lengthAdjust="spacing" textLength="17.1782" x="116.2224" y="371.8618">404</text></g><line style="stroke:#CBD5E1;stroke-width:1;stroke-dasharray:2,2;" x1="10" x2="774.3301" y1="388.9844" y2="388.9844"/><text fill="#000000" font-family="'Arial'" font-size="10" font-weight="bold" lengthAdjust="spacing" textLength="41.7578" x="19" y="402.2666">[found]</text><g class="message" data-entity-1="part3" data-entity-2="part4" id="msg6"><polygon fill="#64748B" points="425.8794,440.5781,435.8794,444.5781,425.8794,448.5781,429.8794,444.5781" style="stroke:#64748B;stroke-width:1;"/><line style="stroke:#64748B;stroke-width:1.1;" x1="319.8062" x2="431.8794" y1="444.5781" y2="444.5781"/><text fill="#000000" font-family="'Arial'" font-size="9" font-weight="bold" lengthAdjust="spacing" textLength="6.2622" x="338.0667" y="431.2173">6</text><text fill="#000000" font-family="'Arial'" font-size="9" lengthAdjust="spacing" textLength="20.0962" x="356.3289" y="425.979">next</text><text fill="#000000" font-family="'Arial'" font-size="9" lengthAdjust="spacing" textLength="2.8608" x="376.425" y="425.979">&#160;</text><text fill="#000000" font-family="'Arial'" font-size="9" lengthAdjust="spacing" textLength="40.333" x="379.2859" y="425.979">schedule</text><text fill="#000000" font-family="'Arial'" font-size="9" lengthAdjust="spacing" textLength="21.1289" x="357.812" y="436.4556">(tag,</text><text fill="#000000" font-family="'Arial'" font-size="9" lengthAdjust="spacing" textLength="2.8608" x="378.9409" y="436.4556">&#160;</text><text fill="#000000" font-family="'Arial'" font-size="9" lengthAdjust="spacing" textLength="36.334" x="381.8018" y="436.4556">current)</text></g><g class="message" data-entity-1="part4" data-entity-2="part3" id="msg7"><polygon fill="#64748B" points="330.8062,473.0547,320.8062,477.0547,330.8062,481.0547,326.8062,477.0547" style="stroke:#64748B;stroke-width:1;"/><line style="stroke:#64748B;stroke-width:1.1;stroke-dasharray:2,2;" x1="324.8062" x2="436.8794" y1="477.0547" y2="477.0547"/><text fill="#000000" font-family="'Arial'" font-size="9" font-weight="bold" lengthAdjust="spacing" textLength="6.2622" x="368.2813" y="468.9321">7</text><text fill="#000000" font-family="'Arial'" font-size="9" lengthAdjust="spacing" textLength="2.8608" x="386.5435" y="468.9321">&#160;</text></g><g class="message" data-entity-1="part3" data-entity-2="part5" id="msg8"><polygon fill="#64748B" points="537.4316,516.0078,547.4316,520.0078,537.4316,524.0078,541.4316,520.0078" style="stroke:#64748B;stroke-width:1;"/><line style="stroke:#64748B;stroke-width:1.1;" x1="319.8062" x2="543.4316" y1="520.0078" y2="520.0078"/><text fill="#000000" font-family="'Arial'" font-size="9" font-weight="bold" lengthAdjust="spacing" textLength="6.2622" x="385.748" y="506.647">8</text><text fill="#000000" font-family="'Arial'" font-size="9" lengthAdjust="spacing" textLength="36.2856" x="404.0103" y="501.4087">UPDATE</text><text fill="#000000" font-family="'Arial'" font-size="9" lengthAdjust="spacing" textLength="2.8608" x="440.2959" y="501.4087">&#160;</text><text fill="#000000" font-family="'Arial'" font-size="9" lengthAdjust="spacing" textLength="40.333" x="443.1567" y="501.4087">schedule</text><text fill="#000000" font-family="'Arial'" font-size="9" lengthAdjust="spacing" textLength="41.0493" x="423.2253" y="511.8853">snapshot</text></g><g class="message" data-entity-1="part3" data-entity-2="part5" id="msg9"><polygon fill="#64748B" points="537.4316,579.9141,547.4316,583.9141,537.4316,587.9141,541.4316,583.9141" style="stroke:#64748B;stroke-width:1;"/><line style="stroke:#64748B;stroke-width:1.1;" x1="319.8062" x2="543.4316" y1="583.9141" y2="583.9141"/><text fill="#000000" font-family="'Arial'" font-size="9" font-weight="bold" lengthAdjust="spacing" textLength="6.2622" x="373.6631" y="560.0767">9</text><text fill="#000000" font-family="'Arial'" font-size="9" lengthAdjust="spacing" textLength="32.5371" x="427.4814" y="544.3618">INSERT</text><text fill="#000000" font-family="'Arial'" font-size="9" lengthAdjust="spacing" textLength="103.6494" x="391.9253" y="554.8384">conspectus_review_log</text><text fill="#000000" font-family="'Arial'" font-size="9" lengthAdjust="spacing" textLength="57.1553" x="415.1724" y="565.3149">(before/after</text><text fill="#000000" font-family="'Arial'" font-size="9" lengthAdjust="spacing" textLength="25.6948" x="430.9026" y="575.7915">JSON)</text></g><path d="M554,542.3203 L554,577.3203 A3,3 0 0 0 557,580.3203 L755,580.3203 A3,3 0 0 0 758,577.3203 L758,549.3203 L748,539.3203 L557,539.3203 A3,3 0 0 0 554,542.3203" fill="#FEFFDD" style="stroke:#181818;stroke-width:0.5;"/><path d="M748,539.3203 L748,547.8203 A1.5,1.5 0 0 0 749.5,549.3203 L758,549.3203 L748,539.3203" fill="#FEFFDD" style="stroke:#181818;stroke-width:0.5;"/><text fill="#000000" font-family="'Arial'" font-size="10" lengthAdjust="spacing" textLength="138.5498" x="564" y="557.6025">Option A: reviews live here;</text><text fill="#000000" font-family="'Arial'" font-size="10" lengthAdjust="spacing" textLength="175.8984" x="564" y="569.2432">no duplicate in conspectus_events.</text><g class="message" data-entity-1="part5" data-entity-2="part3" id="msg11"><polygon fill="#64748B" points="330.8062,612.3906,320.8062,616.3906,330.8062,620.3906,326.8062,616.3906" style="stroke:#64748B;stroke-width:1;"/><line style="stroke:#64748B;stroke-width:1.1;stroke-dasharray:2,2;" x1="324.8062" x2="548.4316" y1="616.3906" y2="616.3906"/><text fill="#000000" font-family="'Arial'" font-size="9" font-weight="bold" lengthAdjust="spacing" textLength="12.5244" x="420.9263" y="608.2681">10</text><text fill="#000000" font-family="'Arial'" font-size="9" lengthAdjust="spacing" textLength="2.8608" x="445.4507" y="608.2681">&#160;</text></g><g class="message" data-entity-1="part3" data-entity-2="part2" id="msg12"><polygon fill="#64748B" points="190.312,644.8672,180.312,648.8672,190.312,652.8672,186.312,648.8672" style="stroke:#64748B;stroke-width:1;"/><line style="stroke:#64748B;stroke-width:1.1;stroke-dasharray:2,2;" x1="184.312" x2="318.8062" y1="648.8672" y2="648.8672"/><text fill="#000000" font-family="'Arial'" font-size="9" font-weight="bold" lengthAdjust="spacing" textLength="12.5244" x="210.9473" y="640.7446">11</text><text fill="#000000" font-family="'Arial'" font-size="9" lengthAdjust="spacing" textLength="17.1782" x="235.4717" y="640.7446">200</text><text fill="#000000" font-family="'Arial'" font-size="9" lengthAdjust="spacing" textLength="2.8608" x="252.6499" y="640.7446">&#160;</text><text fill="#000000" font-family="'Arial'" font-size="9" lengthAdjust="spacing" textLength="7.541" x="255.5107" y="640.7446">+</text><text fill="#000000" font-family="'Arial'" font-size="9" lengthAdjust="spacing" textLength="2.8608" x="263.0518" y="640.7446">&#160;</text><text fill="#000000" font-family="'Arial'" font-size="9" lengthAdjust="spacing" textLength="22.2583" x="265.9126" y="640.7446">body</text></g><g class="message" data-entity-1="part2" data-entity-2="part1" id="msg13"><polygon fill="#64748B" points="63.0488,677.3438,53.0488,681.3438,63.0488,685.3438,59.0488,681.3438" style="stroke:#64748B;stroke-width:1;"/><line style="stroke:#64748B;stroke-width:1.1;stroke-dasharray:2,2;" x1="57.0488" x2="178.312" y1="681.3438" y2="681.3438"/><text fill="#000000" font-family="'Arial'" font-size="9" font-weight="bold" lengthAdjust="spacing" textLength="12.5244" x="86.9058" y="673.2212">12</text><text fill="#000000" font-family="'Arial'" font-size="9" lengthAdjust="spacing" textLength="17.1782" x="111.4302" y="673.2212">200</text><text fill="#000000" font-family="'Arial'" font-size="9" lengthAdjust="spacing" textLength="2.8608" x="128.6084" y="673.2212">&#160;</text><text fill="#000000" font-family="'Arial'" font-size="9" lengthAdjust="spacing" textLength="12.9858" x="131.4692" y="673.2212">OK</text></g><?plantuml-src ZLRRRjj647tNLmnK595SHv8Ttw80HNLjqYIsOIfzAX2jo96uzMgNtLrQKei2_OX-OR-aPqd9fYsdwOCWOdSuS-RCp1c-e2WLbXEwLaBxJny_aBkLcXfI_ygnnxcOUxRqW_F2-dofQBOX5rkPUTUsl63DLdZ-d9ZOjR8DpOsbzzRSId9IBnI_d4l5P5adR9kr5pJPP6PXHPPkkjIpKgZsMrPtx6Ki227YMreA7wVio6yo72hw87M-9iVs3Z3cHdj7ZI92a_xvwsyITqOcZY9U67vfjDfGOkNSjseXZKnOiIINYiIi08VcGZckt2Yf6N6OZFMfgLp4PfaPpTf7VbFWZxq8wLHCCe0L2_woGS9paIi_1kHBiMIg5_dMdxU8vEzCHnqmr1SeHCnTydAHUc9jyaLAtfIPKfelc1OYSuUaZ75SCL1oAJqfCMFL5jQQ5HbmfaJMeYXJk4ga0FTBHt8EigLI5CCguQJAbZO9Eyxek5Cvj4BVXiEZyyhXjKYImEf9DQLCqkipf34G6V4w0x6qaebFgQXDg5XYwE106tzmG3dmJwSEPMQyrIajfrFyenovnzrIhATJS94A7tehPWVVZBGsksn2vZvbSe7ZJAvPRGCAdL2U5SuTwPAG4X4wQARCok6QFAzzimMdRoVe_MNk_3qwvosZ5odw-KTNG0AUmdKNbUfy2vmXdP23rDvAxMIChaSTlmjn4BwjGWbdPXtytzmF2o6rB0UAShJY59qJUFIf1BAGyorJ62WC3xAdDkBkZzfq2jWbTI3fWJw4YegueBjeeH32MBpiK0CIohTD1Z917NXfW1n7lCpy1cuiS5189E5Wi5XY0bopsXtMv3eftT5PaHLO4XYZ10EXs7iqhkOSPyg11ymGpLJE9E8OlgWXCdHYBBm4b4pujFc6LiAYYA2m48yCEANpZ16enks5yWsCWiKtPoVd9nVzfvUJLCQtEcHpr3fwUda_OgyVzMynmNrZ8KvRtuF-y7Hqz8mH_XP5ybl3yT7uT5prThEJW4V-Za_FNetwpvhjURmOzyQ3YkbGU34JxWd0uvEZphDMU_x6u_FHi69vYSb-v6kFoCBYgxXwiJVsaQFEoVd5wVcUoLDFey5uE3vzHAw5yalCYlzlrgg6NyKNyMzvw9-FQ0QKheTfq1JQZssrazb1ujtEgizGXA9NoDkygkEOhgrDqK4Nfs72jY7k9RMB9-olS3HZlsBMaECvXmKJva3gC33PLZ3Dl1X3nZ8AizWEwMH18oOcUwcWRehkmsD4eKQbUcud4ugv2__7dv01SgRSkUtx7IxKIcmWC9YsJL37PUjvCdSINYrAtwntnwzgNde8p6XoGv7FamtrhjyLgdV3Tv9Nr812MWd4GTEmDBbPgudS6vqlPs0xBOJ4cA21k0XDGVLtA0GumtETXAE1aYXDRHOgAY3hzRUJoNM8KzpsCbcBCRpMAAeFKAyCyvEx29y3CkR2PFjSonxIedg4RuWaLtnj83URmgvyh2NRUQ7wi4yD29Ls00OzQXPMmrcjLaAYbz-7y5swleecr6grsgLT-Eu9oOTyv5tGym0Il_325aotfFvpQTd0Zh2799D3ycBHV7Xn1ttx7nmCPrsAHXz6WmbKUvSkEiXj4wA6MGKjJsKMk5QUGdlC0tiredj7E-mddHCS9xmNagX03BiossTCGrgXH_UzVxybCsZzsbUm8Rr3YdEB3pxVn1kbMH7c8V2JR3zT3tkJqOCJf_5rang_R_dkCXhTL7dPyljPcGLMEcD_SBjSgZz5LvS10CZ1rrbOWrswoegrq-jI-Ph3YA9pKxRyvXUj3ILvkPp2Ggz6GNzZ3xRWRZZxKYuxmeyx7LHhPfBD_-Kzl77r_XdgmVc_?></g></svg>
