<?plantuml 1.2026.1?><svg xmlns="http://www.w3.org/2000/svg" xmlns:xlink="http://www.w3.org/1999/xlink" contentStyleType="text/css" data-diagram-type="DESCRIPTION" height="382.4266px" preserveAspectRatio="none" style="width:960px;height:382px;background:#FFFFFF;" version="1.1" viewBox="0 0 960 382" width="960.2415px" zoomAndPan="magnify"><title>Docs frontend &#8212; Rocket smoke renderer pipeline (per fixed step)</title><defs/><g><g class="title" data-source-line="274"><text fill="#0F172A" font-family="'Helvetica'" font-size="12.5249" font-weight="bold" lengthAdjust="spacing" textLength="461.4639" x="243.8406" y="24.9858">Docs frontend &#8212; Rocket smoke renderer pipeline (per fixed step)</text></g><!--entity Pool--><g class="entity" data-qualified-name="Pool" data-source-line="278" id="ent0002"><rect fill="#F8FAFC" height="48.1034" rx="3.34" ry="3.34" style="stroke:#2563EB;stroke-width:1.002;" width="117.6361" x="262.2075" y="47.9795"/><text fill="#0F172A" font-family="'Helvetica'" font-size="9.1849" lengthAdjust="spacing" textLength="56.89" x="275.5673" y="69.865">Particle pool</text><text fill="#0F172A" font-family="'Helvetica'" font-size="9.1849" lengthAdjust="spacing" textLength="90.9163" x="275.5673" y="80.5568">(2 400 GL / 800 2D)</text></g><!--entity Emit--><g class="entity" data-qualified-name="Emit" data-source-line="280" id="ent0003"><rect fill="#F8FAFC" height="37.4116" rx="3.34" ry="3.34" style="stroke:#2563EB;stroke-width:1.002;" width="54.6378" x="293.7034" y="114.4532"/><text fill="#0F172A" font-family="'Helvetica'" font-size="9.1849" lengthAdjust="spacing" textLength="27.918" x="307.0633" y="136.3388">emit()</text></g><g class="entity" data-qualified-name="GMN4" data-source-line="282" id="ent0005"><path d="M323.521,173.5707 L323.521,214.4201 A3.34,3.34 0 0 0 326.8609,217.7601 L447.1154,217.7601 A3.34,3.34 0 0 0 450.4553,214.4201 L450.4553,178.5807 L442.1054,170.2307 L339.2773,170.2307 L335.9373,152.078 L332.5973,170.2307 L326.8609,170.2307 A3.34,3.34 0 0 0 323.521,173.5707" fill="#FFFBEB" style="stroke:#D97706;stroke-width:0.835;"/><path d="M442.1054,170.2307 L442.1054,176.9107 A1.67,1.67 0 0 0 443.7754,178.5807 L450.4553,178.5807 L442.1054,170.2307" fill="#FFFBEB" style="stroke:#D97706;stroke-width:0.835;"/><text fill="#0F172A" font-family="'Helvetica'" font-size="8.3499" lengthAdjust="spacing" textLength="66.4569" x="333.5409" y="187.1662">Boil phase only:</text><text fill="#0F172A" font-family="'Helvetica'" font-size="8.3499" lengthAdjust="spacing" textLength="99.3796" x="333.5409" y="196.8861">squashed-disc emission</text><text fill="#0F172A" font-family="'Helvetica'" font-size="8.3499" lengthAdjust="spacing" textLength="91.629" x="333.5409" y="206.6059">around nozzle, vy &#8805; 0</text></g><!--entity Phys--><g class="entity" data-qualified-name="Phys" data-source-line="287" id="ent0007"><rect fill="#F8FAFC" height="37.4116" rx="3.34" ry="3.34" style="stroke:#2563EB;stroke-width:1.002;" width="89.0588" x="211.3648" y="175.2908"/><text fill="#0F172A" font-family="'Helvetica'" font-size="9.1849" lengthAdjust="spacing" textLength="62.339" x="224.7246" y="197.1763">physicsStep()</text></g><g class="entity" data-qualified-name="GMN8" data-source-line="289" id="ent0009"><path d="M172.3456,249.2795 L172.3456,290.1289 A3.34,3.34 0 0 0 175.6855,293.4689 L336.1077,293.4689 A3.34,3.34 0 0 0 339.4476,290.1289 L339.4476,254.2894 L331.0977,245.9395 L244.3971,245.9395 L241.0571,213.0993 L237.7171,245.9395 L175.6855,245.9395 A3.34,3.34 0 0 0 172.3456,249.2795" fill="#FFFBEB" style="stroke:#D97706;stroke-width:0.835;"/><path d="M331.0977,245.9395 L331.0977,252.6195 A1.67,1.67 0 0 0 332.7677,254.2894 L339.4476,254.2894 L331.0977,245.9395" fill="#FFFBEB" style="stroke:#D97706;stroke-width:0.835;"/><text fill="#0F172A" font-family="'Helvetica'" font-size="8.3499" lengthAdjust="spacing" textLength="139.5473" x="182.3655" y="262.875">settle + drag + 3-frequency swirl</text><text fill="#0F172A" font-family="'Helvetica'" font-size="8.3499" lengthAdjust="spacing" textLength="118.2648" x="182.3655" y="272.5949">ceiling clamp at startY &#8722; 2&#183;s</text><text fill="#0F172A" font-family="'Helvetica'" font-size="8.3499" lengthAdjust="spacing" textLength="91.0052" x="182.3655" y="282.3147">smoke killed at lift-off</text></g><!--entity GL--><g class="entity" data-qualified-name="GL" data-source-line="294" id="ent0011"><path d="M370.0811,243.1033 C373.6295,238.2223 378.9299,237.6888 382.0483,243.5811 C386.7203,237.192 390.8366,237.0017 395.0177,244.0547 C397.9644,239.2223 401.8293,239.8056 404.8998,243.918 C407.9673,238.532 413.3975,237.851 417.2865,242.9472 C420.1673,236.993 425.4315,236.2378 429.308,241.9184 C433.113,236.3511 436.7389,236.1787 440.608,241.8538 C444.2789,237.0418 448.9658,236.4441 452.0251,242.4966 C454.4392,237.7955 459.0911,237.4711 462.193,241.7146 C466.1453,236.7216 471.5323,236.7122 474.5046,242.8031 C477.8523,236.3733 482.7894,236.367 486.765,242.174 C490.2925,237.7412 493.5889,237.3325 496.4839,242.7952 C500.6268,236.4756 505.389,235.8985 509.5176,242.8093 C513.2462,238.3298 517.6161,238.8474 519.8358,244.3666 C523.5588,238.6262 527.6222,239.2204 531.0526,244.6602 C537.872,246.2048 539.5851,251.3298 535.4265,256.8224 C542.3879,260.1445 544.2313,265.5143 537.2673,270.6854 C543.5891,275.9082 543.8369,281.9461 535.3231,285.1787 C540.0395,289.9211 539.6151,295.264 532.4009,297.076 C529.8259,302.3469 524.2181,303.8045 520.7594,298.0052 C516.9461,303.7108 513.2795,304.6483 508.4447,299.1256 C506.0462,305.016 501.3443,306.4651 496.8297,301.3611 C494.1199,307.5345 489.5366,307.4323 485.9638,302.1819 C483.3375,307.7223 479.3668,308.1669 475.4118,303.5643 C471.3915,309.5445 467.3268,309.1293 462.8817,304.0454 C460.2121,309.0984 457.0644,310.1602 452.3889,306.4463 C448.2597,312.3817 442.4366,312.2565 439.584,305.1892 C435.5102,310.2917 430.7889,310.6253 427.9957,303.9312 C423.8642,308.463 419.5128,307.7004 417.8669,301.5699 C414.1957,307.8683 409.2931,307.2948 405.8153,301.379 C402.1509,305.835 396.6512,305.4094 393.9925,300.1545 C390.4575,305.295 385.5,303.162 383.4872,298.5198 C379.3962,304.5776 375.7152,303.5883 371.4804,298.6772 C362.3088,295.7154 361.1226,291.1215 367.689,284.0738 C360.2116,282.5235 356.2511,276.6044 362.2661,269.8941 C359.0382,264.3377 359.6415,259.1336 367.2399,258.1702 C361.7187,251.9342 362.5761,246.883 370.0811,243.1033" fill="#F0F9FF" style="stroke:#94A3B8;stroke-width:0.4175;"/><text fill="#0F172A" font-family="'Helvetica'" font-size="9.1849" lengthAdjust="spacing" textLength="62.4422" x="380.7514" y="262.1972">WebGL2 path</text><text fill="#0F172A" font-family="'Helvetica'" font-size="9.1849" lengthAdjust="spacing" textLength="75.5558" x="380.7514" y="272.889">instanced quads</text><text fill="#0F172A" font-family="'Helvetica'" font-size="9.1849" lengthAdjust="spacing" textLength="139.3973" x="380.7514" y="283.5808">+ domain-warped FBM shader</text></g><!--entity C2--><g class="entity" data-qualified-name="C2" data-source-line="295" id="ent0012"><path d="M17.3395,248.864 C20.3626,244.1781 24.8767,244.4083 27.7231,249.0605 C29.9923,244.0271 34.5623,243.3794 38.0455,247.7242 C40.7418,243.2135 46.0495,242.3527 48.6764,247.7983 C51.2658,243.1127 56.053,241.7136 59.3866,246.9989 C62.1481,241.4816 66.3515,241.7428 69.3778,246.7476 C71.9614,241.8987 75.2797,240.5872 79.4544,245.0202 C83.5931,239.987 86.7738,241.4591 89.6968,246.2833 C93.521,241.7749 97.2783,242.7739 100.1068,247.416 C103.9065,242.4244 107.8153,240.9075 111.8946,247.1218 C115.4291,243.8706 118.3359,243.674 120.9061,248.2342 C124.0517,242.1618 128.2356,242.3118 132.0183,247.6117 C135.9402,242.2045 140.3409,242.9011 143.4319,248.4753 C148.6546,250.0181 150.4563,255.1294 146.3954,259.2302 C153.3167,260.1798 154.1705,264.8966 150.73,270.012 C154.9615,275.8409 153.1868,279.4047 146.8606,281.7547 C149.6776,286.7875 147.8542,290.8935 142.1709,292.0568 C138.9111,296.9801 135.6845,297.0833 132.5151,291.9699 C129.9564,296.8721 125.2607,298.3211 121.4566,293.3672 C118.8208,298.8765 114.4423,298.4168 111.4033,293.7661 C108.8467,299.739 104.3801,299.4312 100.5625,295.0918 C96.8546,298.9262 93.7908,298.6505 90.7822,294.2602 C87.9255,299.9093 83.8367,299.8847 80.1796,295.0713 C77.0787,300.083 73.4202,300.2423 69.7269,295.7209 C66.0107,301.1066 61.0187,300.4255 58.0238,294.9441 C54.4638,299.1581 50.0667,299.3165 47.4319,293.924 C43.8392,298.3067 40.5251,298.0463 37.2702,293.538 C33.8612,298.1485 28.6346,297.1404 26.7275,291.9264 C23.2978,296.4123 19.7248,296.6282 16.2418,291.9875 C10.165,290.5121 8.3662,285.6569 13.4141,281.2515 C6.296,279.469 5.01,275.2753 9.8678,269.788 C5.7238,265.3134 7.5996,261.3288 12.9651,259.8045 C8.9868,253.9627 10.7874,250.4952 17.3395,248.864" fill="#F0F9FF" style="stroke:#94A3B8;stroke-width:0.4175;"/><text fill="#0F172A" font-family="'Helvetica'" font-size="9.1849" lengthAdjust="spacing" textLength="85.3417" x="26.7395" y="267.5411">Canvas2D fallback</text><text fill="#0F172A" font-family="'Helvetica'" font-size="9.1849" lengthAdjust="spacing" textLength="104.2766" x="26.7395" y="278.233">3-stop radial gradients</text></g><!--entity P1--><g class="entity" data-qualified-name="P1" data-source-line="297" id="ent0013"><rect fill="#F8FAFC" height="56.4533" rx="3.34" ry="3.34" style="stroke:#94A3B8;stroke-width:0.4175;" width="127.9675" x="135.9649" y="321.6483"/><path d="M178.6208,321.6483 L178.6208,325.8233 L172.7758,331.6682 L135.9649,331.6682" fill="none" style="stroke:#94A3B8;stroke-width:0.4175;"/><text fill="#0F172A" font-family="'Helvetica'" font-size="9.1849" lengthAdjust="spacing" textLength="54.2709" x="153.4998" y="351.8837">smoke pass</text><text fill="#0F172A" font-family="'Helvetica'" font-size="9.1849" lengthAdjust="spacing" textLength="84.5479" x="153.4998" y="362.5756">premultiplied over</text></g><!--entity P2--><g class="entity" data-qualified-name="P2" data-source-line="298" id="ent0014"><rect fill="#F8FAFC" height="56.4533" rx="3.34" ry="3.34" style="stroke:#94A3B8;stroke-width:0.4175;" width="82.4107" x="348.2868" y="321.6483"/><path d="M375.7571,321.6483 L375.7571,325.8233 L369.9121,331.6682 L348.2868,331.6682" fill="none" style="stroke:#94A3B8;stroke-width:0.4175;"/><text fill="#0F172A" font-family="'Helvetica'" font-size="9.1849" lengthAdjust="spacing" textLength="38.9911" x="365.8217" y="351.8837">hot pass</text><text fill="#0F172A" font-family="'Helvetica'" font-size="9.1849" lengthAdjust="spacing" textLength="37.0805" x="365.8217" y="362.5756">additive</text></g><g class="entity" data-qualified-name="GMN23" data-source-line="311" id="ent0024"><path d="M560.709,249.2795 L560.709,267.0481 L537.9721,270.3881 L560.709,273.7281 L560.709,290.1289 A3.34,3.34 0 0 0 564.0489,293.4689 L751.0049,293.4689 A3.34,3.34 0 0 0 754.3449,290.1289 L754.3449,254.2894 L745.995,245.9395 L564.0489,245.9395 A3.34,3.34 0 0 0 560.709,249.2795" fill="#FFFBEB" style="stroke:#D97706;stroke-width:0.835;"/><path d="M745.995,245.9395 L745.995,252.6195 A1.67,1.67 0 0 0 747.665,254.2894 L754.3449,254.2894 L745.995,245.9395" fill="#FFFBEB" style="stroke:#D97706;stroke-width:0.835;"/><text fill="#0F172A" font-family="'Helvetica'" font-size="8.3499" lengthAdjust="spacing" textLength="166.0812" x="570.7289" y="262.875">pack instance buffers (positions &#215; DPR)</text><text fill="#0F172A" font-family="'Helvetica'" font-size="8.3499" lengthAdjust="spacing" textLength="137.3579" x="570.7289" y="272.5949">drawArraysInstanced &#215; 2 passes</text><text fill="#0F172A" font-family="'Helvetica'" font-size="8.3499" lengthAdjust="spacing" textLength="144.0199" x="570.7289" y="282.3147">uPass uniform routes particle type</text></g><g class="entity" data-qualified-name="GMN26" data-source-line="317" id="ent0027"><path d="M777.5566,254.1391 L777.5566,285.2687 A3.34,3.34 0 0 0 780.8965,288.6087 L951.6501,288.6087 A3.34,3.34 0 0 0 954.99,285.2687 L954.99,259.1491 L946.6401,250.7992 L780.8965,250.7992 A3.34,3.34 0 0 0 777.5566,254.1391" fill="#FFFBEB" style="stroke:#D97706;stroke-width:0.835;"/><path d="M946.6401,250.7992 L946.6401,257.4791 A1.67,1.67 0 0 0 948.3101,259.1491 L954.99,259.1491 L946.6401,250.7992" fill="#FFFBEB" style="stroke:#D97706;stroke-width:0.835;"/><text fill="#0F172A" font-family="'Helvetica'" font-size="8.3499" lengthAdjust="spacing" textLength="136.7749" x="787.5765" y="267.7347">iterate pool, draw radialGradient</text><text fill="#0F172A" font-family="'Helvetica'" font-size="8.3499" lengthAdjust="spacing" textLength="149.8787" x="787.5765" y="277.4545">globalCompositeOperation per pass</text></g><!--link Pool to Emit--><g class="link" data-entity-1="ent0002" data-entity-2="ent0003" data-link-type="dependency" data-source-line="300" id="lnk15"><path d="M321.0243,96.1919 C321.0243,102.1955 321.0243,103.5399 321.0243,109.2512" fill="none" id="Pool-to-Emit" style="stroke:#64748B;stroke-width:1.002;"/><polygon fill="#64748B" points="321.0243,114.2612,324.3643,106.7462,321.0243,110.0862,317.6844,106.7462,321.0243,114.2612" style="stroke:#64748B;stroke-width:1.002;"/><text fill="#475569" font-family="'Helvetica'" font-size="8.3499" lengthAdjust="spacing" textLength="20.9931" x="268.1112" y="118.8221">write</text><text fill="#475569" font-family="'Helvetica'" font-size="8.3499" lengthAdjust="spacing" textLength="2.6542" x="289.1042" y="118.8221">&#160;</text><text fill="#475569" font-family="'Helvetica'" font-size="8.3499" lengthAdjust="spacing" textLength="20.8463" x="291.7584" y="118.8221">head</text><text fill="#475569" font-family="'Helvetica'" font-size="8.3499" lengthAdjust="spacing" textLength="19.6028" x="265.0798" y="128.5419">(ring</text><text fill="#475569" font-family="'Helvetica'" font-size="8.3499" lengthAdjust="spacing" textLength="2.6542" x="284.6826" y="128.5419">&#160;</text><text fill="#475569" font-family="'Helvetica'" font-size="8.3499" lengthAdjust="spacing" textLength="28.2992" x="287.3368" y="128.5419">buffer)</text></g><!--link Emit to Phys--><g class="link" data-entity-1="ent0003" data-entity-2="ent0007" data-link-type="dependency" data-source-line="301" id="lnk16"><path d="M297.0684,152.078 C297.0684,159.3341 297.0684,162.5989 297.0684,169.8717" fill="none" id="Emit-to-Phys" style="stroke:#64748B;stroke-width:1.002;"/><polygon fill="#64748B" points="297.0684,174.8816,300.4084,167.3667,297.0684,170.7067,293.7284,167.3667,297.0684,174.8816" style="stroke:#64748B;stroke-width:1.002;"/><text fill="#475569" font-family="'Helvetica'" font-size="8.3499" lengthAdjust="spacing" textLength="34.7207" x="232.774" y="156.2047">updated</text><text fill="#475569" font-family="'Helvetica'" font-size="8.3499" lengthAdjust="spacing" textLength="2.6542" x="267.4947" y="156.2047">&#160;</text><text fill="#475569" font-family="'Helvetica'" font-size="8.3499" lengthAdjust="spacing" textLength="21.1521" x="270.1489" y="156.2047">state</text></g><!--link Phys to GL--><g class="link" data-entity-1="ent0007" data-entity-2="ent0011" data-link-type="dependency" data-source-line="302" id="lnk17"><path d="M270.7411,212.7987 C270.7411,220.1967 270.7411,226.9685 270.7411,226.9685 C270.7411,226.9685 406.8365,226.9685 406.8365,226.9685 C406.8365,226.9685 406.8365,225.7243 406.8365,231.0182" fill="none" id="Phys-to-GL" style="stroke:#64748B;stroke-width:1.002;"/><polygon fill="#64748B" points="406.8365,236.0281,410.1765,228.5132,406.8365,231.8532,403.4966,228.5132,406.8365,236.0281" style="stroke:#64748B;stroke-width:1.002;"/><text fill="#475569" font-family="'Helvetica'" font-size="8.3499" lengthAdjust="spacing" textLength="25.9019" x="291.9749" y="240.564">useGL</text><text fill="#475569" font-family="'Helvetica'" font-size="8.3499" lengthAdjust="spacing" textLength="2.6542" x="317.8768" y="240.564">&#160;</text><text fill="#475569" font-family="'Helvetica'" font-size="8.3499" lengthAdjust="spacing" textLength="6.9963" x="320.531" y="240.564">=</text><text fill="#475569" font-family="'Helvetica'" font-size="8.3499" lengthAdjust="spacing" textLength="2.6542" x="327.5274" y="240.564">&#160;</text><text fill="#475569" font-family="'Helvetica'" font-size="8.3499" lengthAdjust="spacing" textLength="17.1361" x="330.1816" y="240.564">true</text></g><!--link Phys to C2--><g class="link" data-entity-1="ent0007" data-entity-2="ent0012" data-link-type="dependency" data-source-line="303" id="lnk18"><path d="M210.9974,194.4038 C158.5515,194.4038 78.8765,194.4038 78.8765,194.4038 C78.8765,194.4038 78.8765,214.9028 78.8765,236.2285" fill="none" id="Phys-to-C2" style="stroke:#64748B;stroke-width:1.002;"/><polygon fill="#64748B" points="78.8765,241.2385,82.2164,233.7236,78.8765,237.0635,75.5365,233.7236,78.8765,241.2385" style="stroke:#64748B;stroke-width:1.002;"/><text fill="#475569" font-family="'Helvetica'" font-size="8.3499" lengthAdjust="spacing" textLength="25.9019" x="58.0601" y="187.1245">useGL</text><text fill="#475569" font-family="'Helvetica'" font-size="8.3499" lengthAdjust="spacing" textLength="2.6542" x="83.962" y="187.1245">&#160;</text><text fill="#475569" font-family="'Helvetica'" font-size="8.3499" lengthAdjust="spacing" textLength="6.9963" x="86.6162" y="187.1245">=</text><text fill="#475569" font-family="'Helvetica'" font-size="8.3499" lengthAdjust="spacing" textLength="2.6542" x="93.6125" y="187.1245">&#160;</text><text fill="#475569" font-family="'Helvetica'" font-size="8.3499" lengthAdjust="spacing" textLength="19.8637" x="96.2667" y="187.1245">false</text></g><!--link GL to P1--><g class="link" data-entity-1="ent0011" data-entity-2="ent0013" data-link-type="dependency" data-source-line="305" id="lnk19"><path d="M362.9243,270.3881 C351.6101,270.3881 343.8697,270.3881 343.8697,270.3881 C343.8697,270.3881 343.8697,350.5474 343.8697,350.5474 C343.8697,350.5474 307.6645,350.5474 269.3466,350.5474" fill="none" id="GL-to-P1" style="stroke:#64748B;stroke-width:1.002;"/><polygon fill="#64748B" points="264.3367,350.5474,271.8516,353.8874,268.5117,350.5474,271.8516,347.2074,264.3367,350.5474" style="stroke:#64748B;stroke-width:1.002;"/></g><!--link GL to P2--><g class="link" data-entity-1="ent0011" data-entity-2="ent0014" data-link-type="dependency" data-source-line="306" id="lnk20"><path d="M396.9586,303.4705 C396.9586,309.4657 396.9586,310.6347 396.9586,316.463" fill="none" id="GL-to-P2" style="stroke:#64748B;stroke-width:1.002;"/><polygon fill="#64748B" points="396.9586,321.4729,400.2985,313.958,396.9586,317.298,393.6186,313.958,396.9586,321.4729" style="stroke:#64748B;stroke-width:1.002;"/></g><!--link C2 to P1--><g class="link" data-entity-1="ent0012" data-entity-2="ent0013" data-link-type="dependency" data-source-line="307" id="lnk21"><path d="M139.1128,298.1933 C139.1128,305.7584 139.1128,308.9147 139.1128,316.463" fill="none" id="C2-to-P1" style="stroke:#64748B;stroke-width:1.002;"/><polygon fill="#64748B" points="139.1128,321.4729,142.4528,313.958,139.1128,317.298,135.7729,313.958,139.1128,321.4729" style="stroke:#64748B;stroke-width:1.002;"/></g><!--link C2 to P2--><g class="link" data-entity-1="ent0012" data-entity-2="ent0014" data-link-type="dependency" data-source-line="308" id="lnk22"><path d="M142.2608,298.1599 C142.2608,307.8626 142.2608,316.3127 142.2608,316.3127 C142.2608,316.3127 355.7517,316.3127 355.7517,316.3127 C355.7517,316.3127 355.7517,313.2733 355.7517,316.2542" fill="none" id="C2-to-P2" style="stroke:#64748B;stroke-width:1.002;"/><polygon fill="#64748B" points="355.7517,321.2642,359.0917,313.7493,355.7517,317.0892,352.4117,313.7493,355.7517,321.2642" style="stroke:#64748B;stroke-width:1.002;"/></g><!--link C2 to GMN26--><g class="link" data-entity-1="ent0012" data-entity-2="ent0027" data-link-type="association" data-source-line="317" id="lnk28"><path d="M145.4087,298.3019 C145.4087,304.6979 145.4087,309.6327 145.4087,309.6327 C145.4087,309.6327 866.2745,309.6327 866.2745,309.6327 C866.2745,309.6327 866.2745,299.1786 866.2745,288.9667" fill="none" id="C2-GMN26" style="stroke:#64748B;stroke-width:1.002;stroke-dasharray:5.8449,5.8449;"/></g><?plantuml-src jLhTRjj65hxNKvoe0MgdbcmhTfoaJR7wTR9rR5UsjniWG3GYHnRN58UP6TfMqOkztBrTBB1FiC_G--wRz4dscnbIeYZISG5RG2APvtVEtvmPdg_fpGD-Qb_JsPH9xjDfo29zyVw8r5KGqUz__pUf8BeCEIcHI8-Jc92MYPxIH4Zo0tOfsOok0vMmK3LhNuFH-JHGD0b0WkzdpuBeRzpJu1pCPXm4ceTpOXFD9Ot-f3IJEfc5esVFQ3m7yKXvCeYrsfRyaaTS0lsJBppLZESZ6dC8XIOyyg4JwIbVQA05_I35LR05FObVSscPFMl6XZabaM_46KRRUB0zeWr-w_5OqoY8l33n-VPeau9eocMWbMMis8nJp4AkDTy2BpsF1IJ5q_aMXMmk4hr5BF9foiCOl6VCaq8rwLoG05k0hO4OYOWtn6IIAMfOnG2EdXoVV3ex_t3K7m75IWo3oAn7mbfb5dB6xOhecaSw495wZJ-96dWKmZMmm1MF56sCdZmzRh_lOptmfsKi8l2BGmRlJVajNRCmuSf2VUw5nkjDouhebCi63_aC4gp_OmQL5Ka-uP97dcKtS-iEu8Fhm8VRiwKfKbEHX7xAImjXmoSote0bbUOmnqHoDQNHLt-rdn4MZMM2Hn31WonZrKoNrX4IZbFaCIddDECiWjzVqnWBe3V4uZWCF6QCiKL2ikZIF8KtL01XK7ShLGKBWWmVm6aoOn5j4_Eqa5k8Mm47u_ddX8FbDaGenS1cd2X4KeZe0p3YYGPzoYo89f8rgUtxqDTpjhSMlfbovqWfNEmZW1Fu5A28tsHBUcy31MvwEX02QnzjqUZfMJBMWGwv_UF8HBv_fc5b9dtxw2tCapeKqTK8ebGNumXdtvdmWybyaGwAOvqwy9Hr0PIQEntXHPC9_1OB8cygnOoxk3eLCENyDRLxmyREJck7DhfxzCso6dZBkDjiqaNi6zEC1Ug0NgGxj3690Wk02sasnZCjBZcUo6zfcT1qzfT3HJS1Y4SpTeKmH5us9i7jo4Nz3PPjQid3LZZmQppS1znscwkfz-02pX8vCKaBuuREaHuBaNuHPx9nCqNcRD4bGvLE4mF99MRM_cERDytQawUTmq-dxSC-kSyRgdyri9-wWvrT30VjRdy1Upbe3xhrZAxxGqfgORk3_S6h57PySbxWsUbtKbYlGxGAE-ZtKbYxUtuoNCBwtK5li9_2VhpeN_HpT6t8o_Ji7frSz7AmdS6h1Qn_VFxk_CEIvs3mOW5x--xmxH7-dJjOhzDl3_efx71uSd6QqwK_Q1aw63uhEyRaeM1-OmoBMmEZf2zIwriJ-juLqkaDqW-f6SnY8P6ssXh-PDZh3pyTzo_EX-sZJCYhlVRppilw4bumShVJs-_lvk73T-_RmmyPlBN_udbgQ0SlB72tjzVlvVaNdD5jxUtkT7FmWaDszWvUxX_au0Md77IVjrDdfkjR3OJUguE3dHVMYE-YArTy5XidJGFal_IcSsEWTyS_B5PdHGzs3rhjUWfvVt7UxwLCzmxszr-yoY3juV3afnJoOkzWxsMd_l2vtS9Elj3xuHCRuNFb2c3zBG-lEVvcTHjTjedPFWgYv9OqodJZ9l21fjY4wpcKCiajnOtY4dnSDLUcdbfaIfJhYr2H-ItsE9gmMH3ElpKj1ZgKapC7mnui85MPhWdD70UhXHfR1ZULB_1ZR4esoZwTCTDTpBYMWTVmn2p6OrFXxJBQCc3XPhEsQ1hGManO4kg1YFInQQNoAor7Emj-1jhkRZdKb5f9-QZ9uPsRpNCfgahO0is9Wh3zKgYUXmOy5cXcIk1E5QfIfYtXe3Ky6z1bM0jTTdBGOxG6UM0vD1DGfOdh979yLhYu_YC7VLKAJ8Na5l7W-V2yIKUsfNvWpilbg2dpnOr93lUPuBJ2St3JUwDGyQnMeevFHGvkuXsT_28sJ9FEpB4eXnCpxmgzOnOzfJXIu2ZI5HADa9NpCWSxPRw_r93eHGuM2Pyh7YzWhJmXEj-h5M0hdq9nGFdFgppR3bI-J7MowPMs2-QWmMBK4BEXaIj1oru-KToSqt0sek-EltVWaQq3vjY3bkuMJQkUCb2cvm5KDlGn4JCnlpmkeBuaiUDZ6jcnvEmAg3XxeDjCUtWSX4o_h63TIuwcqA5311QouqG_V3pkDLrwgaUBHyj-aRwqtDYAEEUcnOXmAa6xsNhubUutRJ51OJUj9R4PodtEq_Q4xMemJKAci8VFUHYAcyr7iunHfomiJQDHHBDjMiwAkPwa53Ldp0By7BjdEmmk8tlq9GhvH3-yjL-O4qEaqRB3jYX9CN-y23jrrQXeIg9SQr-2NZ3fqgYL9FaTqtqA-sOEBy-ui6lb28PPuIoBW_J4KefU4G_h6sE1P3N9Ij2AkbTftissYVjflaI_j-O5aa9vo0UrN-BxrFthcbZqDT_dSygTO_8Y1lYlL4Qv28TU8kCk4OWaBajab0TnYhukenZ4ArLM1pXbhtciOXKBzAAGErRH3KNYLndAdcpNaF-OcNuqjrTL0km9RWtv3W5t42p3pVQaZx4Z7JHnF18I1UFHIcEFQJPcYfUwlDSfmwpozXtOELljDlTMgqGOehAOkxJxreabmHSgHOwg7-b0pokInrsQh6FVaJkPX8Vs-4jqM-OwLjakKF7FYRrgXbeulmKnY_GZzc56yEhkvJxi1cVa6I-YLYMPlKPPGxuZoUuWM4-o0jhwZflkkIkRxi9wzuknFC6zTwCreggTD8TOrBweUSTeocHLu2uklCf8ggEtZCpqObA4zz_2Ce8x_FfeMV8ATJ5BZUm4zMXfaKbwxrw7sCuudnqU6X0kImZMxZxo3LFn2aHoXLv6PL8w70SBoo0bibTJItGS-bBCnQt8wibslppWYkVgjSDrHzoMucIVlPA57WKJ_8lksQAkKTqxmpBAGyY8ArB2NcHNqlond5YXVSkPlt89L7dJb94DipU5VymkIx9LRRzibvvv2LdI8fOtY4MggctzYvHh9RXmvYb1NtN1tMP4H5OsxzMw6QgxUlX5z_lWRy9sJDDctkmzVcKoOafjKrss7KsPPRuGOqkwrJsvP6Esk6KRSsbqPCWbwbJ7XY5gQos3SL9-HL8I6IiqfQVOOb6s96TcwA1CkJjBXw7ih_c4rZhcXu-_NTj28jVq_F53C9DK4OKLvyQCg3mCguDmbN0j3jVQGujS4LjLBonIgiAbv0hLskLadgRYQcVjbKTAqmlOJ4H-MGYNnLMHh6Bll0VfdTSuwrGLMN0VWHLfK7fiNCQJBALPcl_X4wVLJ5yIkSEN5pA4rkA2VYEz-mNGT83STo_xx8mBL_hnBe6TJfNtFYirBiNzygLFsNknwZPrvKe6Lla3fmIBVeypGe6aybXNm2khvu_vTcxtUPE6F55sdcUMZY-vCQHqX6ZpmMMsmp0JPOQUuiJyXvZ3kSEzZLwCDRaN5TxKJd-jZJ-vuIRO9vkmsgY_FJy_FQFVVgK_dvqSc-zj5WVRrxlrpSpeTkXnng22ns8hpSqFMWQEdNizkb5VZ4k1ZnaipAO9bV6Z7Ju4MyDlBBGMC_8azmDjNpSwHcQoQwCkkPRpXdd9lzHY_MFrcfetSa5aXmKrktHSLaV6DkxWuRYaOskX9QEDFJkofZQjiIuK9nNRUPTm_deva-Todw56S9RQWYISOyVRk2aWCDW4R9krsfCa-fm8C_GPI-5ntxXlwOAdPbPXivOPr_vPUm9D5iWL75AhP_Js40gHvY5jRzl7szltucJDdlA9X9bCL7JyoJwWT9gfHgbcnaG6vrwCYvwefJQMmULKW-KlRznu8BvJ9_nYdhg1HDfE1nHpdr_ektHCwliCTJds28BswRiygflWob1piv10zPbcIfj99OTg1xCoL3lM2AHnUfUoee2R_JAeM8jRKS4QBXvwmbDc2WsEmPfDf0s5TyKrqabSyNHUnKo31Z6t4RnXPcSdmIsC23NZpLhPEtdtChwsU9zETNUwnwzOYF1ZjD6YlPqTEZo2_Y_nezNRh1kFdWAwGiTdWTvmi3v-EjUdgIacxXbHHmGXnLEctEZiQpnIdnEcfjnl-87o26oKWla1O7PBG7py_7F8j-XwJh__yx-qimoQlFXuEbSeIcTOQQh5APuKjR3F899hOz9lo9Vi4b_F6nFf3dfpKZU136lc7YO8pRK5zkrPJ0nsDYtB1_hz7_-Yrc-_MZRMybT16CB6p9IUYJO3oJaDFVFAWUe_yV7XKOjYfgSVeo02AuIDJrYvhpv6q4FCM10rRfYCyNZGUM-dAhYq2payojXqMNJDLAjdPYp2CNRDZz7p1i8kHhL0AGdfqdmZTvKbxBPgjObvDKHrfsgCBUvZX68_G-SH8DGXJ5odOavtC-Ifq2cgkRf11yKT0jWPjsC_-jxwarxJZGoq6NrcFaB5pl6Dayc4oysQHJ2OnkR0JEnSgub5VDNiGmD5OBqsKm_uVkDkfHQWRYi7SbCbDVosF7SNlreruANFibzGr3hULWRZTvYGx109PSPFzSHs6miLsFj_-jz_g7Swt0Ggui9Sbx6vUhTm5g0jQnPkV9-ScdOkYOA9a7RsnBpfZxFSCRcLYu9LPU0M8ZkRhLsMRLbvgGyFKnS2vp8KOnRQrv9GaP_4sRnOxAQ-rLB4_m40?></g></svg>
